<?xml version="1.0" encoding="UTF-8"?>
<svg xmlns="http://www.w3.org/2000/svg" width="361.35" height="252.94" viewBox="0,0,361.35,252.94">
<desc>R SVG Plot!</desc>
<rect width="100%" height="100%" style="fill:#FFFFFF"/>
<polygon points="0.00 , 252.94 0.00 , 0.00 361.35 , 0.00 361.35 , 252.94 " style="stroke-width:1;stroke:#FFFFFF;fill:#FFFFFF;stroke-opacity:1.000000;fill-opacity:1.000000" />
<polyline points="32.95 , 179.04 355.85 , 179.04 " style="stroke-width:0;stroke:#FFFFFF;fill:#000000;stroke-opacity:1.000000;fill-opacity:0.000000"/>
<polyline points="32.95 , 139.66 355.85 , 139.66 " style="stroke-width:0;stroke:#FFFFFF;fill:#000000;stroke-opacity:1.000000;fill-opacity:0.000000"/>
<polyline points="32.95 , 100.28 355.85 , 100.28 " style="stroke-width:0;stroke:#FFFFFF;fill:#000000;stroke-opacity:1.000000;fill-opacity:0.000000"/>
<polyline points="32.95 , 60.90 355.85 , 60.90 " style="stroke-width:0;stroke:#FFFFFF;fill:#000000;stroke-opacity:1.000000;fill-opacity:0.000000"/>
<polyline points="194.40 , 206.19 194.40 , 41.95 " style="stroke-width:0;stroke:#FFFFFF;fill:#000000;stroke-opacity:1.000000;fill-opacity:0.000000"/>
<polyline points="32.95 , 198.73 355.85 , 198.73 " style="stroke-width:1;stroke:#FFFFFF;fill:#000000;stroke-opacity:1.000000;fill-opacity:0.000000"/>
<polyline points="32.95 , 159.35 355.85 , 159.35 " style="stroke-width:1;stroke:#FFFFFF;fill:#000000;stroke-opacity:1.000000;fill-opacity:0.000000"/>
<polyline points="32.95 , 119.97 355.85 , 119.97 " style="stroke-width:1;stroke:#FFFFFF;fill:#000000;stroke-opacity:1.000000;fill-opacity:0.000000"/>
<polyline points="32.95 , 80.59 355.85 , 80.59 " style="stroke-width:1;stroke:#FFFFFF;fill:#000000;stroke-opacity:1.000000;fill-opacity:0.000000"/>
<polyline points="47.63 , 206.19 47.63 , 41.95 " style="stroke-width:1;stroke:#FFFFFF;fill:#000000;stroke-opacity:1.000000;fill-opacity:0.000000"/>
<polyline points="145.48 , 206.19 145.48 , 41.95 " style="stroke-width:1;stroke:#FFFFFF;fill:#000000;stroke-opacity:1.000000;fill-opacity:0.000000"/>
<polyline points="243.32 , 206.19 243.32 , 41.95 " style="stroke-width:1;stroke:#FFFFFF;fill:#000000;stroke-opacity:1.000000;fill-opacity:0.000000"/>
<polyline points="341.17 , 206.19 341.17 , 41.95 " style="stroke-width:1;stroke:#FFFFFF;fill:#000000;stroke-opacity:1.000000;fill-opacity:0.000000"/>
<polyline points="47.14 , 198.39 48.54 , 198.40 49.94 , 198.43 51.33 , 198.47 52.73 , 198.51 54.13 , 198.55 55.53 , 198.58 56.93 , 198.59 58.33 , 198.59 59.73 , 198.56 61.13 , 198.52 62.52 , 198.46 63.92 , 198.40 65.32 , 198.34 66.72 , 198.28 68.12 , 198.21 69.52 , 198.15 70.92 , 198.07 72.32 , 197.98 73.72 , 197.88 75.11 , 197.77 76.51 , 197.66 77.91 , 197.56 79.31 , 197.50 80.71 , 197.47 82.11 , 197.49 83.51 , 197.55 84.91 , 197.63 86.30 , 197.72 87.70 , 197.79 89.10 , 197.83 90.50 , 197.84 91.90 , 197.81 93.30 , 197.75 94.70 , 197.67 96.10 , 197.59 97.49 , 197.51 98.89 , 197.43 100.29 , 197.34 101.69 , 197.22 103.09 , 197.06 104.49 , 196.85 105.89 , 196.56 107.29 , 196.17 108.68 , 195.68 110.08 , 195.06 111.48 , 194.30 112.88 , 193.41 114.28 , 192.40 115.68 , 191.29 117.08 , 190.12 118.48 , 188.95 119.88 , 187.82 121.27 , 186.79 122.67 , 185.89 124.07 , 185.11 125.47 , 184.44 126.87 , 183.86 128.27 , 183.30 129.67 , 182.73 131.07 , 182.07 132.46 , 181.29 133.86 , 180.33 135.26 , 179.15 136.66 , 177.69 138.06 , 175.89 139.46 , 173.74 140.86 , 171.20 142.26 , 168.36 143.65 , 165.32 145.05 , 162.20 146.45 , 159.11 147.85 , 156.11 149.25 , 153.22 150.65 , 150.38 152.05 , 147.51 153.45 , 144.53 154.85 , 141.40 156.24 , 138.16 157.64 , 134.85 159.04 , 131.58 160.44 , 128.40 161.84 , 125.33 163.24 , 122.32 164.64 , 119.26 166.04 , 116.01 167.43 , 112.48 168.83 , 108.58 170.23 , 104.29 171.63 , 99.64 173.03 , 94.68 174.43 , 89.50 175.83 , 84.22 177.23 , 78.99 178.62 , 73.99 180.02 , 69.41 181.42 , 65.47 182.82 , 62.31 184.22 , 60.05 185.62 , 58.73 187.02 , 58.29 188.42 , 58.63 189.81 , 59.57 191.21 , 60.92 192.61 , 62.52 194.01 , 64.29 195.41 , 66.15 196.81 , 68.09 198.21 , 70.11 199.61 , 72.24 201.01 , 74.55 202.40 , 77.08 203.80 , 79.88 205.20 , 82.97 206.60 , 86.34 208.00 , 89.97 209.40 , 93.80 210.80 , 97.79 212.20 , 101.85 213.59 , 105.93 214.99 , 109.96 216.39 , 113.90 217.79 , 117.75 219.19 , 121.53 220.59 , 125.27 221.99 , 129.02 223.39 , 132.81 224.78 , 136.66 226.18 , 140.55 227.58 , 144.44 228.98 , 148.30 230.38 , 152.08 231.78 , 155.74 233.18 , 159.26 234.58 , 162.62 235.98 , 165.81 237.37 , 168.84 238.77 , 171.69 240.17 , 174.37 241.57 , 176.86 242.97 , 179.15 244.37 , 181.21 245.77 , 183.04 247.17 , 184.61 248.56 , 185.91 249.96 , 186.96 251.36 , 187.77 252.76 , 188.38 254.16 , 188.85 255.56 , 189.21 256.96 , 189.51 258.36 , 189.78 259.75 , 190.02 261.15 , 190.23 262.55 , 190.38 263.95 , 190.48 265.35 , 190.50 266.75 , 190.49 268.15 , 190.46 269.55 , 190.47 270.94 , 190.57 272.34 , 190.79 273.74 , 191.15 275.14 , 191.63 276.54 , 192.19 277.94 , 192.79 279.34 , 193.38 280.74 , 193.92 282.14 , 194.36 283.53 , 194.72 284.93 , 194.97 286.33 , 195.13 287.73 , 195.23 289.13 , 195.27 290.53 , 195.30 291.93 , 195.32 293.33 , 195.35 294.72 , 195.42 296.12 , 195.52 297.52 , 195.66 298.92 , 195.84 300.32 , 196.04 301.72 , 196.24 303.12 , 196.45 304.52 , 196.64 305.91 , 196.83 307.31 , 197.00 308.71 , 197.15 310.11 , 197.30 311.51 , 197.42 312.91 , 197.51 314.31 , 197.55 315.71 , 197.54 317.11 , 197.47 318.50 , 197.37 319.90 , 197.24 321.30 , 197.12 322.70 , 197.02 324.10 , 196.97 325.50 , 196.97 326.90 , 197.03 328.30 , 197.12 329.69 , 197.24 331.09 , 197.37 332.49 , 197.51 333.89 , 197.64 335.29 , 197.76 336.69 , 197.86 338.09 , 197.96 339.49 , 198.04 340.88 , 198.12 342.28 , 198.19 343.68 , 198.25 345.08 , 198.32 346.48 , 198.39 347.88 , 198.44 349.28 , 198.49 350.68 , 198.52 352.07 , 198.53 353.47 , 198.52 354.87 , 198.49 355.85 , 198.47 " style="stroke-width:1;stroke:#A6CEE3;fill:#000000;stroke-opacity:1.000000;fill-opacity:0.000000"/>
<polyline points="47.14 , 198.73 48.54 , 198.73 49.94 , 198.73 51.33 , 198.73 52.73 , 198.73 54.13 , 198.73 55.53 , 198.73 56.93 , 198.73 58.33 , 198.73 59.73 , 198.72 61.13 , 198.71 62.52 , 198.70 63.92 , 198.69 65.32 , 198.68 66.72 , 198.68 68.12 , 198.69 69.52 , 198.69 70.92 , 198.68 72.32 , 198.66 73.72 , 198.62 75.11 , 198.57 76.51 , 198.52 77.91 , 198.46 79.31 , 198.38 80.71 , 198.29 82.11 , 198.20 83.51 , 198.12 84.91 , 198.06 86.30 , 198.03 87.70 , 198.02 89.10 , 198.04 90.50 , 198.07 91.90 , 198.09 93.30 , 198.08 94.70 , 198.01 96.10 , 197.86 97.49 , 197.63 98.89 , 197.32 100.29 , 196.99 101.69 , 196.68 103.09 , 196.45 104.49 , 196.33 105.89 , 196.30 107.29 , 196.34 108.68 , 196.38 110.08 , 196.41 111.48 , 196.37 112.88 , 196.21 114.28 , 195.87 115.68 , 195.33 117.08 , 194.64 118.48 , 193.89 119.88 , 193.15 121.27 , 192.43 122.67 , 191.71 124.07 , 190.95 125.47 , 190.13 126.87 , 189.22 128.27 , 188.21 129.67 , 187.09 131.07 , 185.89 132.46 , 184.65 133.86 , 183.37 135.26 , 182.02 136.66 , 180.55 138.06 , 178.91 139.46 , 177.15 140.86 , 175.28 142.26 , 173.30 143.65 , 171.11 145.05 , 168.67 146.45 , 166.01 147.85 , 163.26 149.25 , 160.57 150.65 , 158.01 152.05 , 155.56 153.45 , 153.16 154.85 , 150.72 156.24 , 148.13 157.64 , 145.19 159.04 , 141.74 160.44 , 137.64 161.84 , 132.94 163.24 , 127.84 164.64 , 122.68 166.04 , 117.82 167.43 , 113.43 168.83 , 109.42 170.23 , 105.46 171.63 , 101.30 173.03 , 96.91 174.43 , 92.41 175.83 , 88.00 177.23 , 83.71 178.62 , 79.49 180.02 , 75.33 181.42 , 71.32 182.82 , 67.64 184.22 , 64.38 185.62 , 61.52 187.02 , 58.90 188.42 , 56.35 189.81 , 53.86 191.21 , 51.61 192.61 , 50.01 194.01 , 49.42 195.41 , 49.93 196.81 , 51.40 198.21 , 53.62 199.61 , 56.38 201.01 , 59.45 202.40 , 62.58 203.80 , 65.62 205.20 , 68.60 206.60 , 71.71 208.00 , 75.22 209.40 , 79.35 210.80 , 84.20 212.20 , 89.63 213.59 , 95.38 214.99 , 101.21 216.39 , 106.96 217.79 , 112.60 219.19 , 118.16 220.59 , 123.58 221.99 , 128.75 223.39 , 133.52 224.78 , 137.83 226.18 , 141.70 227.58 , 145.28 228.98 , 148.78 230.38 , 152.33 231.78 , 155.91 233.18 , 159.31 234.58 , 162.37 235.98 , 165.06 237.37 , 167.52 238.77 , 169.90 240.17 , 172.21 241.57 , 174.34 242.97 , 176.19 244.37 , 177.75 245.77 , 179.07 247.17 , 180.25 248.56 , 181.39 249.96 , 182.53 251.36 , 183.68 252.76 , 184.81 254.16 , 185.88 255.56 , 186.87 256.96 , 187.79 258.36 , 188.63 259.75 , 189.40 261.15 , 190.12 262.55 , 190.79 263.95 , 191.45 265.35 , 192.08 266.75 , 192.66 268.15 , 193.15 269.55 , 193.51 270.94 , 193.77 272.34 , 193.96 273.74 , 194.13 275.14 , 194.32 276.54 , 194.52 277.94 , 194.71 279.34 , 194.85 280.74 , 194.96 282.14 , 195.07 283.53 , 195.22 284.93 , 195.43 286.33 , 195.68 287.73 , 195.93 289.13 , 196.13 290.53 , 196.26 291.93 , 196.32 293.33 , 196.33 294.72 , 196.37 296.12 , 196.48 297.52 , 196.64 298.92 , 196.83 300.32 , 196.99 301.72 , 197.11 303.12 , 197.18 304.52 , 197.21 305.91 , 197.23 307.31 , 197.25 308.71 , 197.28 310.11 , 197.32 311.51 , 197.36 312.91 , 197.40 314.31 , 197.44 315.71 , 197.46 317.11 , 197.48 318.50 , 197.49 319.90 , 197.50 321.30 , 197.50 322.70 , 197.48 324.10 , 197.43 325.50 , 197.37 326.90 , 197.33 328.30 , 197.31 329.69 , 197.32 331.09 , 197.36 332.49 , 197.42 333.89 , 197.54 335.29 , 197.70 336.69 , 197.88 338.09 , 198.03 339.49 , 198.14 340.88 , 198.18 342.28 , 198.19 343.68 , 198.18 345.08 , 198.18 346.48 , 198.18 347.88 , 198.18 349.28 , 198.17 350.68 , 198.15 352.07 , 198.13 353.47 , 198.12 354.87 , 198.12 355.85 , 198.14 " style="stroke-width:1;stroke:#1F78B4;fill:#000000;stroke-opacity:1.000000;fill-opacity:0.000000"/>
<polyline points="32.95 , 206.19 32.95 , 41.95 " style="stroke-width:1;stroke:#000000;fill:#000000;stroke-opacity:1.000000;fill-opacity:0.000000"/>
<text transform="translate(16.50,202.03)"  style="font-size:9" >0.0</text>
<text transform="translate(15.35,162.65)"  style="font-size:9" >0.2</text>
<text transform="translate(15.35,123.27)"  style="font-size:9" >0.4</text>
<text transform="translate(15.35,83.89)"  style="font-size:9" >0.6</text>
<polyline points="30.20 , 198.73 32.95 , 198.73 " style="stroke-width:1;stroke:#333333;fill:#000000;stroke-opacity:1.000000;fill-opacity:0.000000"/>
<polyline points="30.20 , 159.35 32.95 , 159.35 " style="stroke-width:1;stroke:#333333;fill:#000000;stroke-opacity:1.000000;fill-opacity:0.000000"/>
<polyline points="30.20 , 119.97 32.95 , 119.97 " style="stroke-width:1;stroke:#333333;fill:#000000;stroke-opacity:1.000000;fill-opacity:0.000000"/>
<polyline points="30.20 , 80.59 32.95 , 80.59 " style="stroke-width:1;stroke:#333333;fill:#000000;stroke-opacity:1.000000;fill-opacity:0.000000"/>
<polyline points="32.95 , 206.19 355.85 , 206.19 " style="stroke-width:1;stroke:#000000;fill:#000000;stroke-opacity:1.000000;fill-opacity:0.000000"/>
<polyline points="47.63 , 208.94 47.63 , 206.19 " style="stroke-width:1;stroke:#333333;fill:#000000;stroke-opacity:1.000000;fill-opacity:0.000000"/>
<polyline points="145.48 , 208.94 145.48 , 206.19 " style="stroke-width:1;stroke:#333333;fill:#000000;stroke-opacity:1.000000;fill-opacity:0.000000"/>
<polyline points="243.32 , 208.94 243.32 , 206.19 " style="stroke-width:1;stroke:#333333;fill:#000000;stroke-opacity:1.000000;fill-opacity:0.000000"/>
<polyline points="341.17 , 208.94 341.17 , 206.19 " style="stroke-width:1;stroke:#333333;fill:#000000;stroke-opacity:1.000000;fill-opacity:0.000000"/>
<text transform="translate(45.15,217.74)"  style="font-size:9" >6</text>
<text transform="translate(143.00,217.74)"  style="font-size:9" >8</text>
<text transform="translate(238.37,217.74)"  style="font-size:9" >10</text>
<text transform="translate(336.22,217.74)"  style="font-size:9" >12</text>
<text transform="translate(95.48,228.75)"  style="font-size:11" >Translocation rate [samples/nucleotide]</text>
<text transform="translate(13.75,143.04) rotate(-90)"  style="font-size:11" >Density</text>
<rect x="105.43" y="5.50" width="177.95" height="25.45" style="stroke-width:1;stroke:#FFFFFF;fill:#FFFFFF;stroke-opacity:0.000000;fill-opacity:1.000000" />
<text transform="translate(110.93,22.35)"  style="font-size:11" >Read</text>
<rect x="139.39" y="11.00" width="14.45" height="14.45" style="stroke-width:1;stroke:#FFFFFF;fill:#F2F2F2;stroke-opacity:1.000000;fill-opacity:1.000000" />
<line x1="140.84" y1="18.23" x2="152.40" y2="18.23" style="stroke-width:1;stroke:#A6CEE3;fill:#000000;stroke-opacity:1.000000;fill-opacity:0.000000"/>
<rect x="202.12" y="11.00" width="14.45" height="14.45" style="stroke-width:1;stroke:#FFFFFF;fill:#F2F2F2;stroke-opacity:1.000000;fill-opacity:1.000000" />
<line x1="203.56" y1="18.23" x2="215.13" y2="18.23" style="stroke-width:1;stroke:#1F78B4;fill:#000000;stroke-opacity:1.000000;fill-opacity:0.000000"/>
<text transform="translate(159.34,21.53)"  style="font-size:9" >Erroneous</text>
<text transform="translate(222.07,21.53)"  style="font-size:9" >Non-Erroneous</text>
<text transform="translate(132.34,240.84)"  style="font-size:9" >Both erroneous and non-erroneous reads have the same</text>
<text transform="translate(192.36,247.45)"  style="font-size:9" >       nucleotide translocation rate profiles</text>
</svg>
