<?xml version="1.0" encoding="UTF-8"?>
<svg xmlns="http://www.w3.org/2000/svg" width="361.35" height="252.94" viewBox="0,0,361.35,252.94">
<desc>R SVG Plot!</desc>
<rect width="100%" height="100%" style="fill:#FFFFFF"/>
<polygon points="0.00 , 252.94 0.00 , 0.00 361.35 , 0.00 361.35 , 252.94 " style="stroke-width:1;stroke:#FFFFFF;fill:#FFFFFF;stroke-opacity:1.000000;fill-opacity:1.000000" />
<polyline points="37.45 , 187.46 226.27 , 187.46 " style="stroke-width:0;stroke:#FFFFFF;fill:#000000;stroke-opacity:1.000000;fill-opacity:0.000000"/>
<polyline points="37.45 , 132.54 226.27 , 132.54 " style="stroke-width:0;stroke:#FFFFFF;fill:#000000;stroke-opacity:1.000000;fill-opacity:0.000000"/>
<polyline points="37.45 , 77.62 226.27 , 77.62 " style="stroke-width:0;stroke:#FFFFFF;fill:#000000;stroke-opacity:1.000000;fill-opacity:0.000000"/>
<polyline points="37.45 , 22.70 226.27 , 22.70 " style="stroke-width:0;stroke:#FFFFFF;fill:#000000;stroke-opacity:1.000000;fill-opacity:0.000000"/>
<polyline points="67.49 , 224.89 67.49 , 5.50 " style="stroke-width:0;stroke:#FFFFFF;fill:#000000;stroke-opacity:1.000000;fill-opacity:0.000000"/>
<polyline points="110.40 , 224.89 110.40 , 5.50 " style="stroke-width:0;stroke:#FFFFFF;fill:#000000;stroke-opacity:1.000000;fill-opacity:0.000000"/>
<polyline points="153.32 , 224.89 153.32 , 5.50 " style="stroke-width:0;stroke:#FFFFFF;fill:#000000;stroke-opacity:1.000000;fill-opacity:0.000000"/>
<polyline points="196.23 , 224.89 196.23 , 5.50 " style="stroke-width:0;stroke:#FFFFFF;fill:#000000;stroke-opacity:1.000000;fill-opacity:0.000000"/>
<polyline points="37.45 , 214.92 226.27 , 214.92 " style="stroke-width:1;stroke:#FFFFFF;fill:#000000;stroke-opacity:1.000000;fill-opacity:0.000000"/>
<polyline points="37.45 , 160.00 226.27 , 160.00 " style="stroke-width:1;stroke:#FFFFFF;fill:#000000;stroke-opacity:1.000000;fill-opacity:0.000000"/>
<polyline points="37.45 , 105.08 226.27 , 105.08 " style="stroke-width:1;stroke:#FFFFFF;fill:#000000;stroke-opacity:1.000000;fill-opacity:0.000000"/>
<polyline points="37.45 , 50.16 226.27 , 50.16 " style="stroke-width:1;stroke:#FFFFFF;fill:#000000;stroke-opacity:1.000000;fill-opacity:0.000000"/>
<polyline points="46.03 , 224.89 46.03 , 5.50 " style="stroke-width:1;stroke:#FFFFFF;fill:#000000;stroke-opacity:1.000000;fill-opacity:0.000000"/>
<polyline points="88.95 , 224.89 88.95 , 5.50 " style="stroke-width:1;stroke:#FFFFFF;fill:#000000;stroke-opacity:1.000000;fill-opacity:0.000000"/>
<polyline points="131.86 , 224.89 131.86 , 5.50 " style="stroke-width:1;stroke:#FFFFFF;fill:#000000;stroke-opacity:1.000000;fill-opacity:0.000000"/>
<polyline points="174.77 , 224.89 174.77 , 5.50 " style="stroke-width:1;stroke:#FFFFFF;fill:#000000;stroke-opacity:1.000000;fill-opacity:0.000000"/>
<polyline points="217.69 , 224.89 217.69 , 5.50 " style="stroke-width:1;stroke:#FFFFFF;fill:#000000;stroke-opacity:1.000000;fill-opacity:0.000000"/>
<polyline points="37.45 , 214.82 41.08 , 214.66 46.68 , 214.48 52.28 , 214.29 57.88 , 214.53 63.48 , 214.23 69.09 , 214.01 74.69 , 214.27 80.29 , 214.28 85.89 , 213.90 91.49 , 212.75 97.09 , 211.07 102.69 , 209.91 108.30 , 209.02 113.90 , 199.08 119.50 , 134.87 125.10 , 66.58 130.70 , 31.49 136.30 , 17.76 141.90 , 79.39 147.51 , 162.42 153.11 , 199.61 158.71 , 201.36 164.31 , 199.73 169.91 , 201.75 175.51 , 205.53 181.11 , 210.15 186.72 , 211.89 192.32 , 210.95 197.92 , 210.57 203.52 , 211.06 209.12 , 211.18 214.72 , 209.72 220.32 , 210.31 225.93 , 213.65 226.27 , 213.70 " style="stroke-width:2;stroke:#A6CEE3;fill:#000000;stroke-opacity:1.000000;fill-opacity:0.000000"/>
<polyline points="37.45 , 213.56 41.08 , 213.19 46.68 , 211.81 52.28 , 210.37 57.88 , 209.67 63.48 , 210.05 69.09 , 209.29 74.69 , 209.25 80.29 , 210.31 85.89 , 209.37 91.49 , 208.47 97.09 , 209.14 102.69 , 208.74 108.30 , 207.77 113.90 , 205.50 119.50 , 189.88 125.10 , 153.80 130.70 , 77.52 136.30 , 15.47 141.90 , 58.23 147.51 , 140.56 153.11 , 185.08 158.71 , 195.11 164.31 , 192.13 169.91 , 187.20 175.51 , 191.91 181.11 , 201.78 186.72 , 208.05 192.32 , 210.16 197.92 , 212.64 203.52 , 213.74 209.12 , 214.00 214.72 , 213.90 220.32 , 214.39 225.93 , 214.49 226.27 , 214.49 " style="stroke-width:2;stroke:#1F78B4;fill:#000000;stroke-opacity:1.000000;fill-opacity:0.000000"/>
<polyline points="37.45 , 214.92 41.08 , 214.92 46.68 , 214.92 52.28 , 214.92 57.88 , 214.92 63.48 , 214.92 69.09 , 214.92 74.69 , 214.92 80.29 , 214.92 85.89 , 214.92 91.49 , 214.85 97.09 , 214.36 102.69 , 213.04 108.30 , 211.24 113.90 , 209.75 119.50 , 207.88 125.10 , 199.46 130.70 , 180.39 136.30 , 161.83 141.90 , 164.64 147.51 , 155.31 153.11 , 120.21 158.71 , 100.02 164.31 , 107.00 169.91 , 130.69 175.51 , 157.58 181.11 , 172.76 186.72 , 180.10 192.32 , 190.26 197.92 , 199.79 203.52 , 205.11 209.12 , 207.77 214.72 , 209.14 220.32 , 210.71 225.93 , 211.93 226.27 , 212.00 " style="stroke-width:2;stroke:#B2DF8A;fill:#000000;stroke-opacity:1.000000;fill-opacity:0.000000"/>
<polyline points="37.45 , 214.76 41.08 , 214.83 46.68 , 214.77 52.28 , 214.69 57.88 , 214.50 63.48 , 214.18 69.09 , 213.76 74.69 , 213.32 80.29 , 213.08 85.89 , 213.11 91.49 , 213.25 97.09 , 212.86 102.69 , 211.72 108.30 , 209.69 113.90 , 207.11 119.50 , 202.89 125.10 , 192.22 130.70 , 171.88 136.30 , 148.80 141.90 , 136.49 147.51 , 121.59 153.11 , 93.34 158.71 , 80.89 164.31 , 110.46 169.91 , 154.93 175.51 , 181.87 181.11 , 195.31 186.72 , 204.35 192.32 , 209.72 197.92 , 211.61 203.52 , 212.41 209.12 , 212.99 214.72 , 213.60 220.32 , 214.31 225.93 , 214.54 226.27 , 214.53 " style="stroke-width:2;stroke:#33A02C;fill:#000000;stroke-opacity:1.000000;fill-opacity:0.000000"/>
<polyline points="37.45 , 224.89 37.45 , 5.50 " style="stroke-width:1;stroke:#000000;fill:#000000;stroke-opacity:1.000000;fill-opacity:0.000000"/>
<text transform="translate(16.50,218.22)"  style="font-size:9" >0.00</text>
<text transform="translate(14.90,163.30)"  style="font-size:9" >0.01</text>
<text transform="translate(14.90,108.38)"  style="font-size:9" >0.02</text>
<text transform="translate(14.90,53.46)"  style="font-size:9" >0.03</text>
<polyline points="34.70 , 214.92 37.45 , 214.92 " style="stroke-width:1;stroke:#333333;fill:#000000;stroke-opacity:1.000000;fill-opacity:0.000000"/>
<polyline points="34.70 , 160.00 37.45 , 160.00 " style="stroke-width:1;stroke:#333333;fill:#000000;stroke-opacity:1.000000;fill-opacity:0.000000"/>
<polyline points="34.70 , 105.08 37.45 , 105.08 " style="stroke-width:1;stroke:#333333;fill:#000000;stroke-opacity:1.000000;fill-opacity:0.000000"/>
<polyline points="34.70 , 50.16 37.45 , 50.16 " style="stroke-width:1;stroke:#333333;fill:#000000;stroke-opacity:1.000000;fill-opacity:0.000000"/>
<polyline points="37.45 , 224.89 226.27 , 224.89 " style="stroke-width:1;stroke:#000000;fill:#000000;stroke-opacity:1.000000;fill-opacity:0.000000"/>
<polyline points="46.03 , 227.64 46.03 , 224.89 " style="stroke-width:1;stroke:#333333;fill:#000000;stroke-opacity:1.000000;fill-opacity:0.000000"/>
<polyline points="88.95 , 227.64 88.95 , 224.89 " style="stroke-width:1;stroke:#333333;fill:#000000;stroke-opacity:1.000000;fill-opacity:0.000000"/>
<polyline points="131.86 , 227.64 131.86 , 224.89 " style="stroke-width:1;stroke:#333333;fill:#000000;stroke-opacity:1.000000;fill-opacity:0.000000"/>
<polyline points="174.77 , 227.64 174.77 , 224.89 " style="stroke-width:1;stroke:#333333;fill:#000000;stroke-opacity:1.000000;fill-opacity:0.000000"/>
<polyline points="217.69 , 227.64 217.69 , 224.89 " style="stroke-width:1;stroke:#333333;fill:#000000;stroke-opacity:1.000000;fill-opacity:0.000000"/>
<text transform="translate(36.96,236.44)"  style="font-size:9" >-100</text>
<text transform="translate(82.35,236.44)"  style="font-size:9" >-50</text>
<text transform="translate(129.39,236.44)"  style="font-size:9" >0</text>
<text transform="translate(169.82,236.44)"  style="font-size:9" >50</text>
<text transform="translate(210.26,236.44)"  style="font-size:9" >100</text>
<text transform="translate(13.75,134.16) rotate(-90)"  style="font-size:11" >Density</text>
<rect x="237.27" y="73.91" width="118.58" height="82.57" style="stroke-width:1;stroke:#FFFFFF;fill:#FFFFFF;stroke-opacity:0.000000;fill-opacity:1.000000" />
<text transform="translate(242.77,87.66)"  style="font-size:11" >Read</text>
<rect x="242.77" y="93.16" width="14.45" height="14.45" style="stroke-width:1;stroke:#FFFFFF;fill:#F2F2F2;stroke-opacity:1.000000;fill-opacity:1.000000" />
<line x1="244.22" y1="100.39" x2="255.78" y2="100.39" style="stroke-width:2;stroke:#A6CEE3;fill:#000000;stroke-opacity:1.000000;fill-opacity:0.000000"/>
<rect x="242.77" y="107.62" width="14.45" height="14.45" style="stroke-width:1;stroke:#FFFFFF;fill:#F2F2F2;stroke-opacity:1.000000;fill-opacity:1.000000" />
<line x1="244.22" y1="114.85" x2="255.78" y2="114.85" style="stroke-width:2;stroke:#1F78B4;fill:#000000;stroke-opacity:1.000000;fill-opacity:0.000000"/>
<rect x="242.77" y="122.07" width="14.45" height="14.45" style="stroke-width:1;stroke:#FFFFFF;fill:#F2F2F2;stroke-opacity:1.000000;fill-opacity:1.000000" />
<line x1="244.22" y1="129.30" x2="255.78" y2="129.30" style="stroke-width:2;stroke:#B2DF8A;fill:#000000;stroke-opacity:1.000000;fill-opacity:0.000000"/>
<rect x="242.77" y="136.53" width="14.45" height="14.45" style="stroke-width:1;stroke:#FFFFFF;fill:#F2F2F2;stroke-opacity:1.000000;fill-opacity:1.000000" />
<line x1="244.22" y1="143.75" x2="255.78" y2="143.75" style="stroke-width:2;stroke:#33A02C;fill:#000000;stroke-opacity:1.000000;fill-opacity:0.000000"/>
<text transform="translate(262.72,103.69)"  style="font-size:9" >Erroneous Poly(T)</text>
<text transform="translate(262.72,118.15)"  style="font-size:9" >Non-Erroneous Poly(T)</text>
<text transform="translate(262.72,132.60)"  style="font-size:9" >Erroneous Poly(A)</text>
<text transform="translate(262.72,147.05)"  style="font-size:9" >Non-Erroneous Poly(A)</text>
</svg>
