<?xml version="1.0" encoding="UTF-8"?>
<svg xmlns="http://www.w3.org/2000/svg" width="411.94" height="252.94" viewBox="0,0,411.94,252.94">
<desc>R SVG Plot!</desc>
<rect width="100%" height="100%" style="fill:#FFFFFF"/>
<polygon points="0.00 , 252.94 0.00 , 0.00 411.94 , 0.00 411.94 , 252.94 " style="stroke-width:1;stroke:#FFFFFF;fill:#FFFFFF;stroke-opacity:1.000000;fill-opacity:1.000000" />
<polyline points="30.45 , 217.63 406.44 , 217.63 " style="stroke-width:1;stroke:#BEBEBE;fill:#000000;stroke-opacity:1.000000;fill-opacity:0.000000"/>
<polyline points="30.45 , 184.17 406.44 , 184.17 " style="stroke-width:1;stroke:#BEBEBE;fill:#000000;stroke-opacity:1.000000;fill-opacity:0.000000"/>
<polyline points="30.45 , 150.71 406.44 , 150.71 " style="stroke-width:1;stroke:#BEBEBE;fill:#000000;stroke-opacity:1.000000;fill-opacity:0.000000"/>
<polyline points="30.45 , 117.24 406.44 , 117.24 " style="stroke-width:1;stroke:#BEBEBE;fill:#000000;stroke-opacity:1.000000;fill-opacity:0.000000"/>
<polyline points="30.45 , 83.78 406.44 , 83.78 " style="stroke-width:1;stroke:#BEBEBE;fill:#000000;stroke-opacity:1.000000;fill-opacity:0.000000"/>
<polyline points="30.45 , 50.32 406.44 , 50.32 " style="stroke-width:1;stroke:#BEBEBE;fill:#000000;stroke-opacity:1.000000;fill-opacity:0.000000"/>
<polygon points="132.99 , 197.99 132.99 , 197.88 132.99 , 197.78 132.99 , 197.67 132.99 , 197.56 132.99 , 197.46 132.99 , 197.35 132.99 , 197.25 132.99 , 197.14 132.99 , 197.03 132.99 , 196.93 132.99 , 196.82 132.99 , 196.72 132.99 , 196.61 132.99 , 196.50 132.99 , 196.40 132.99 , 196.29 132.99 , 196.19 132.99 , 196.08 132.99 , 195.98 132.99 , 195.87 132.99 , 195.76 132.99 , 195.66 132.99 , 195.55 132.99 , 195.45 132.99 , 195.34 132.99 , 195.23 132.99 , 195.13 132.99 , 195.02 132.99 , 194.92 132.99 , 194.81 132.99 , 194.70 132.99 , 194.60 132.99 , 194.49 132.99 , 194.39 132.99 , 194.28 132.99 , 194.18 132.99 , 194.07 132.99 , 193.96 132.99 , 193.86 132.99 , 193.75 132.99 , 193.65 132.99 , 193.54 132.99 , 193.43 132.99 , 193.33 132.99 , 193.22 132.99 , 193.12 132.99 , 193.01 132.99 , 192.90 132.99 , 192.80 132.99 , 192.69 132.99 , 192.59 132.99 , 192.48 132.99 , 192.38 132.99 , 192.27 132.99 , 192.16 132.99 , 192.06 132.99 , 191.95 132.99 , 191.85 132.99 , 191.74 132.99 , 191.63 132.99 , 191.53 132.99 , 191.42 132.99 , 191.32 132.99 , 191.21 132.99 , 191.10 132.99 , 191.00 132.99 , 190.89 132.99 , 190.79 132.99 , 190.68 132.99 , 190.58 132.99 , 190.47 132.99 , 190.36 132.99 , 190.26 132.99 , 190.15 132.99 , 190.05 132.99 , 189.94 132.99 , 189.83 132.99 , 189.73 132.99 , 189.62 132.99 , 189.52 132.99 , 189.41 132.99 , 189.30 132.99 , 189.20 132.99 , 189.09 132.99 , 188.99 132.99 , 188.88 132.99 , 188.78 132.99 , 188.67 132.99 , 188.56 132.99 , 188.46 132.99 , 188.35 132.99 , 188.25 132.99 , 188.14 132.99 , 188.03 132.99 , 187.93 132.99 , 187.82 132.99 , 187.72 132.99 , 187.61 132.99 , 187.50 132.99 , 187.40 132.99 , 187.29 132.99 , 187.19 132.99 , 187.08 132.99 , 186.98 132.99 , 186.87 132.99 , 186.76 132.99 , 186.66 132.99 , 186.55 132.99 , 186.45 132.99 , 186.34 132.99 , 186.23 132.99 , 186.13 132.99 , 186.02 132.99 , 185.92 132.99 , 185.81 132.99 , 185.70 132.99 , 185.60 132.99 , 185.49 132.99 , 185.39 132.99 , 185.28 132.99 , 185.18 132.99 , 185.07 132.99 , 184.96 132.99 , 184.86 132.99 , 184.75 132.99 , 184.65 132.99 , 184.54 132.99 , 184.43 132.99 , 184.33 132.99 , 184.22 132.99 , 184.12 132.99 , 184.01 132.99 , 183.90 132.99 , 183.80 132.99 , 183.69 132.99 , 183.59 132.99 , 183.48 132.99 , 183.37 132.99 , 183.27 132.99 , 183.16 132.99 , 183.06 132.99 , 182.95 132.99 , 182.85 132.99 , 182.74 132.99 , 182.63 132.99 , 182.53 132.99 , 182.42 132.99 , 182.32 132.99 , 182.21 132.99 , 182.10 132.99 , 182.00 132.99 , 181.89 132.99 , 181.79 132.99 , 181.68 132.99 , 181.57 132.99 , 181.47 132.99 , 181.36 132.99 , 181.26 132.99 , 181.15 132.99 , 181.05 132.99 , 180.94 132.99 , 180.83 132.99 , 180.73 132.99 , 180.62 132.99 , 180.52 132.99 , 180.41 132.99 , 180.30 132.99 , 180.20 132.99 , 180.09 132.99 , 179.99 132.99 , 179.88 132.99 , 179.77 132.99 , 179.67 132.99 , 179.56 132.99 , 179.46 132.99 , 179.35 132.99 , 179.25 132.99 , 179.14 132.99 , 179.03 132.99 , 178.93 132.99 , 178.82 132.99 , 178.72 132.99 , 178.61 132.99 , 178.50 132.99 , 178.40 132.99 , 178.29 132.99 , 178.19 132.99 , 178.08 132.99 , 177.97 132.99 , 177.87 132.99 , 177.76 132.99 , 177.66 132.99 , 177.55 132.99 , 177.45 132.99 , 177.34 132.99 , 177.23 132.99 , 177.13 132.99 , 177.02 132.99 , 176.92 132.99 , 176.81 132.99 , 176.70 132.99 , 176.60 132.99 , 176.49 132.99 , 176.39 132.99 , 176.28 132.99 , 176.17 132.99 , 176.07 132.99 , 175.96 132.99 , 175.86 132.99 , 175.75 132.99 , 175.65 132.99 , 175.54 132.99 , 175.43 132.99 , 175.33 132.99 , 175.22 132.99 , 175.12 132.99 , 175.01 132.99 , 174.90 132.99 , 174.80 132.99 , 174.69 132.99 , 174.59 132.99 , 174.48 132.99 , 174.37 132.99 , 174.27 132.99 , 174.16 132.99 , 174.06 132.99 , 173.95 132.99 , 173.85 132.99 , 173.74 132.99 , 173.63 132.99 , 173.53 132.99 , 173.42 132.99 , 173.32 132.99 , 173.21 132.99 , 173.10 132.99 , 173.00 132.99 , 172.89 132.99 , 172.79 132.99 , 172.68 132.99 , 172.57 132.99 , 172.47 132.99 , 172.36 132.99 , 172.26 132.99 , 172.15 132.99 , 172.05 132.99 , 171.94 132.99 , 171.83 132.99 , 171.73 132.99 , 171.62 132.99 , 171.52 132.99 , 171.41 132.99 , 171.30 132.99 , 171.20 132.99 , 171.09 132.99 , 170.99 132.99 , 170.88 132.99 , 170.77 132.99 , 170.67 132.99 , 170.56 132.99 , 170.46 132.99 , 170.35 132.99 , 170.25 132.99 , 170.14 132.99 , 170.03 132.99 , 169.93 132.99 , 169.82 132.99 , 169.72 132.99 , 169.61 132.99 , 169.50 132.99 , 169.40 132.99 , 169.29 132.99 , 169.19 132.99 , 169.08 132.99 , 168.97 132.99 , 168.87 132.99 , 168.76 132.99 , 168.66 132.99 , 168.55 132.99 , 168.44 132.99 , 168.34 132.99 , 168.23 132.99 , 168.13 132.99 , 168.02 132.99 , 167.92 132.99 , 167.81 132.99 , 167.70 132.99 , 167.60 132.99 , 167.49 132.99 , 167.39 132.99 , 167.28 132.99 , 167.17 132.99 , 167.07 132.99 , 166.96 132.99 , 166.86 132.99 , 166.75 132.99 , 166.64 132.99 , 166.54 132.99 , 166.43 132.99 , 166.33 132.99 , 166.22 132.99 , 166.12 132.99 , 166.01 132.99 , 165.90 132.99 , 165.80 132.99 , 165.69 132.99 , 165.59 132.99 , 165.48 132.99 , 165.37 132.99 , 165.27 132.99 , 165.16 132.99 , 165.06 132.99 , 164.95 132.99 , 164.84 132.99 , 164.74 132.99 , 164.63 132.99 , 164.53 132.99 , 164.42 132.99 , 164.32 132.99 , 164.21 132.99 , 164.10 132.99 , 164.00 132.99 , 163.89 132.99 , 163.79 132.99 , 163.68 132.99 , 163.57 132.99 , 163.47 132.99 , 163.36 132.99 , 163.26 132.99 , 163.15 132.99 , 163.04 132.99 , 162.94 132.99 , 162.83 132.99 , 162.73 132.99 , 162.62 132.99 , 162.52 132.99 , 162.41 132.99 , 162.30 132.99 , 162.20 132.99 , 162.09 132.99 , 161.99 132.99 , 161.88 132.99 , 161.77 132.99 , 161.67 132.99 , 161.56 132.99 , 161.46 132.99 , 161.35 132.99 , 161.24 132.99 , 161.14 132.99 , 161.03 132.99 , 160.93 132.99 , 160.82 132.99 , 160.72 132.99 , 160.61 132.99 , 160.50 132.99 , 160.40 132.99 , 160.29 132.99 , 160.19 132.99 , 160.08 132.99 , 159.97 132.99 , 159.87 132.99 , 159.76 132.99 , 159.66 132.99 , 159.55 132.99 , 159.44 132.99 , 159.34 132.99 , 159.23 132.99 , 159.13 132.99 , 159.02 132.99 , 158.92 132.99 , 158.81 132.99 , 158.70 132.99 , 158.60 132.99 , 158.49 132.99 , 158.39 132.99 , 158.28 132.99 , 158.17 132.99 , 158.07 132.99 , 157.96 132.99 , 157.86 132.99 , 157.75 132.99 , 157.64 132.99 , 157.54 132.99 , 157.43 132.99 , 157.33 132.99 , 157.22 132.99 , 157.12 132.99 , 157.01 132.99 , 156.90 132.99 , 156.80 132.99 , 156.69 132.99 , 156.59 132.99 , 156.48 132.99 , 156.37 132.99 , 156.27 132.99 , 156.16 132.99 , 156.06 132.99 , 155.95 132.99 , 155.84 132.99 , 155.74 132.99 , 155.63 132.99 , 155.53 132.99 , 155.42 132.99 , 155.32 132.99 , 155.21 132.99 , 155.10 132.99 , 155.00 132.99 , 154.89 132.99 , 154.79 132.99 , 154.68 132.99 , 154.57 132.99 , 154.47 132.99 , 154.36 132.99 , 154.26 132.99 , 154.15 132.99 , 154.04 132.99 , 153.94 132.99 , 153.83 132.99 , 153.73 132.99 , 153.62 132.99 , 153.51 132.99 , 153.41 132.99 , 153.30 132.99 , 153.20 132.99 , 153.09 132.99 , 152.99 132.99 , 152.88 132.99 , 152.77 132.99 , 152.67 132.99 , 152.56 132.99 , 152.46 132.99 , 152.35 132.99 , 152.24 132.99 , 152.14 132.99 , 152.03 132.99 , 151.93 132.99 , 151.82 132.99 , 151.71 132.99 , 151.61 132.99 , 151.50 132.99 , 151.40 132.99 , 151.29 132.99 , 151.19 132.99 , 151.08 132.99 , 150.97 132.99 , 150.87 132.99 , 150.76 132.99 , 150.66 132.99 , 150.55 132.99 , 150.44 132.99 , 150.34 132.99 , 150.23 132.99 , 150.13 132.99 , 150.02 132.99 , 149.91 132.99 , 149.81 132.99 , 149.70 132.99 , 149.60 132.99 , 149.49 132.99 , 149.39 132.99 , 149.28 132.99 , 149.17 132.99 , 149.07 132.99 , 148.96 132.99 , 148.86 132.99 , 148.75 132.99 , 148.64 132.99 , 148.54 132.99 , 148.43 132.99 , 148.33 132.99 , 148.22 132.99 , 148.11 132.99 , 148.01 132.99 , 147.90 132.99 , 147.80 132.99 , 147.69 132.99 , 147.59 132.99 , 147.48 132.99 , 147.37 132.99 , 147.27 132.99 , 147.16 132.99 , 147.06 132.99 , 146.95 132.99 , 146.84 132.99 , 146.74 132.99 , 146.63 132.99 , 146.53 132.99 , 146.42 132.99 , 146.31 132.99 , 146.21 132.99 , 146.10 132.99 , 146.00 132.99 , 145.89 132.99 , 145.79 132.99 , 145.68 132.99 , 145.57 132.99 , 145.47 132.99 , 145.36 132.99 , 145.26 132.99 , 145.15 132.99 , 145.04 132.99 , 144.94 132.99 , 144.83 132.99 , 144.73 132.99 , 144.62 132.99 , 144.51 132.99 , 144.41 132.99 , 144.30 132.99 , 144.20 132.99 , 144.09 132.99 , 143.99 132.99 , 143.88 132.98 , 143.88 132.99 , 143.99 132.99 , 144.09 132.99 , 144.20 132.99 , 144.30 132.99 , 144.41 132.99 , 144.51 132.99 , 144.62 132.99 , 144.73 132.99 , 144.83 132.99 , 144.94 132.99 , 145.04 132.99 , 145.15 132.99 , 145.26 132.99 , 145.36 132.99 , 145.47 132.99 , 145.57 132.99 , 145.68 132.99 , 145.79 132.99 , 145.89 132.99 , 146.00 132.99 , 146.10 132.99 , 146.21 132.99 , 146.31 132.99 , 146.42 132.99 , 146.53 132.99 , 146.63 132.99 , 146.74 132.99 , 146.84 132.99 , 146.95 132.99 , 147.06 132.99 , 147.16 132.99 , 147.27 132.99 , 147.37 132.99 , 147.48 132.99 , 147.59 132.99 , 147.69 132.99 , 147.80 132.99 , 147.90 132.99 , 148.01 132.99 , 148.11 132.99 , 148.22 132.99 , 148.33 132.99 , 148.43 132.99 , 148.54 132.98 , 148.64 132.98 , 148.75 132.98 , 148.86 132.98 , 148.96 132.98 , 149.07 132.99 , 149.17 132.99 , 149.28 132.99 , 149.39 132.99 , 149.49 132.99 , 149.60 132.99 , 149.70 132.99 , 149.81 132.99 , 149.91 132.99 , 150.02 132.99 , 150.13 132.99 , 150.23 132.99 , 150.34 132.99 , 150.44 132.99 , 150.55 132.99 , 150.66 132.99 , 150.76 132.99 , 150.87 132.99 , 150.97 132.99 , 151.08 132.99 , 151.19 132.99 , 151.29 132.99 , 151.40 132.99 , 151.50 132.99 , 151.61 132.99 , 151.71 132.99 , 151.82 132.99 , 151.93 132.99 , 152.03 132.98 , 152.14 132.99 , 152.24 132.99 , 152.35 132.99 , 152.46 132.99 , 152.56 132.99 , 152.67 132.99 , 152.77 132.99 , 152.88 132.99 , 152.99 132.99 , 153.09 132.99 , 153.20 132.99 , 153.30 132.99 , 153.41 132.99 , 153.51 132.99 , 153.62 132.99 , 153.73 132.98 , 153.83 132.98 , 153.94 132.97 , 154.04 132.97 , 154.15 132.98 , 154.26 132.99 , 154.36 132.99 , 154.47 132.99 , 154.57 132.99 , 154.68 132.99 , 154.79 132.99 , 154.89 132.99 , 155.00 132.99 , 155.10 132.99 , 155.21 132.99 , 155.32 132.99 , 155.42 132.98 , 155.53 132.98 , 155.63 132.98 , 155.74 132.98 , 155.84 132.98 , 155.95 132.97 , 156.06 132.97 , 156.16 132.97 , 156.27 132.97 , 156.37 132.98 , 156.48 132.98 , 156.59 132.98 , 156.69 132.98 , 156.80 132.98 , 156.90 132.97 , 157.01 132.96 , 157.12 132.97 , 157.22 132.98 , 157.33 132.98 , 157.43 132.99 , 157.54 132.99 , 157.64 132.99 , 157.75 132.99 , 157.86 132.99 , 157.96 132.99 , 158.07 132.98 , 158.17 132.99 , 158.28 132.99 , 158.39 132.99 , 158.49 132.99 , 158.60 132.98 , 158.70 132.98 , 158.81 132.98 , 158.92 132.98 , 159.02 132.98 , 159.13 132.97 , 159.23 132.97 , 159.34 132.96 , 159.44 132.96 , 159.55 132.96 , 159.66 132.96 , 159.76 132.96 , 159.87 132.96 , 159.97 132.97 , 160.08 132.97 , 160.19 132.97 , 160.29 132.97 , 160.40 132.97 , 160.50 132.98 , 160.61 132.98 , 160.72 132.99 , 160.82 132.99 , 160.93 132.99 , 161.03 132.99 , 161.14 132.99 , 161.24 132.98 , 161.35 132.98 , 161.46 132.98 , 161.56 132.98 , 161.67 132.97 , 161.77 132.97 , 161.88 132.96 , 161.99 132.97 , 162.09 132.97 , 162.20 132.96 , 162.30 132.96 , 162.41 132.96 , 162.52 132.97 , 162.62 132.98 , 162.73 132.98 , 162.83 132.98 , 162.94 132.98 , 163.04 132.97 , 163.15 132.97 , 163.26 132.97 , 163.36 132.97 , 163.47 132.96 , 163.57 132.96 , 163.68 132.96 , 163.79 132.95 , 163.89 132.95 , 164.00 132.95 , 164.10 132.96 , 164.21 132.96 , 164.32 132.96 , 164.42 132.95 , 164.53 132.95 , 164.63 132.95 , 164.74 132.95 , 164.84 132.95 , 164.95 132.95 , 165.06 132.95 , 165.16 132.94 , 165.27 132.93 , 165.37 132.91 , 165.48 132.90 , 165.59 132.90 , 165.69 132.91 , 165.80 132.92 , 165.90 132.94 , 166.01 132.95 , 166.12 132.96 , 166.22 132.95 , 166.33 132.93 , 166.43 132.93 , 166.54 132.93 , 166.64 132.93 , 166.75 132.93 , 166.86 132.92 , 166.96 132.92 , 167.07 132.91 , 167.17 132.90 , 167.28 132.89 , 167.39 132.90 , 167.49 132.91 , 167.60 132.92 , 167.70 132.93 , 167.81 132.93 , 167.92 132.93 , 168.02 132.92 , 168.13 132.92 , 168.23 132.91 , 168.34 132.91 , 168.44 132.92 , 168.55 132.93 , 168.66 132.94 , 168.76 132.94 , 168.87 132.94 , 168.97 132.94 , 169.08 132.94 , 169.19 132.94 , 169.29 132.93 , 169.40 132.92 , 169.50 132.90 , 169.61 132.88 , 169.72 132.87 , 169.82 132.88 , 169.93 132.88 , 170.03 132.89 , 170.14 132.89 , 170.25 132.90 , 170.35 132.91 , 170.46 132.92 , 170.56 132.93 , 170.67 132.92 , 170.77 132.91 , 170.88 132.90 , 170.99 132.89 , 171.09 132.89 , 171.20 132.89 , 171.30 132.89 , 171.41 132.89 , 171.52 132.88 , 171.62 132.87 , 171.73 132.85 , 171.83 132.84 , 171.94 132.84 , 172.05 132.84 , 172.15 132.85 , 172.26 132.86 , 172.36 132.88 , 172.47 132.89 , 172.57 132.89 , 172.68 132.87 , 172.79 132.86 , 172.89 132.85 , 173.00 132.83 , 173.10 132.82 , 173.21 132.79 , 173.32 132.77 , 173.42 132.75 , 173.53 132.75 , 173.63 132.76 , 173.74 132.77 , 173.85 132.78 , 173.95 132.78 , 174.06 132.77 , 174.16 132.74 , 174.27 132.73 , 174.37 132.73 , 174.48 132.74 , 174.59 132.75 , 174.69 132.76 , 174.80 132.76 , 174.90 132.76 , 175.01 132.76 , 175.12 132.75 , 175.22 132.73 , 175.33 132.71 , 175.43 132.70 , 175.54 132.69 , 175.65 132.68 , 175.75 132.67 , 175.86 132.66 , 175.96 132.66 , 176.07 132.65 , 176.17 132.66 , 176.28 132.65 , 176.39 132.64 , 176.49 132.61 , 176.60 132.57 , 176.70 132.56 , 176.81 132.56 , 176.92 132.56 , 177.02 132.55 , 177.13 132.54 , 177.23 132.56 , 177.34 132.60 , 177.45 132.61 , 177.55 132.57 , 177.66 132.51 , 177.76 132.44 , 177.87 132.39 , 177.97 132.35 , 178.08 132.32 , 178.19 132.28 , 178.29 132.25 , 178.40 132.24 , 178.50 132.27 , 178.61 132.30 , 178.72 132.30 , 178.82 132.28 , 178.93 132.24 , 179.03 132.22 , 179.14 132.23 , 179.25 132.25 , 179.35 132.23 , 179.46 132.17 , 179.56 132.09 , 179.67 132.04 , 179.77 132.04 , 179.88 132.05 , 179.99 132.06 , 180.09 132.04 , 180.20 131.99 , 180.30 131.90 , 180.41 131.80 , 180.52 131.70 , 180.62 131.61 , 180.73 131.54 , 180.83 131.46 , 180.94 131.37 , 181.05 131.30 , 181.15 131.24 , 181.26 131.18 , 181.36 131.12 , 181.47 131.04 , 181.57 130.93 , 181.68 130.81 , 181.79 130.68 , 181.89 130.55 , 182.00 130.41 , 182.10 130.24 , 182.21 130.05 , 182.32 129.89 , 182.42 129.75 , 182.53 129.61 , 182.63 129.41 , 182.74 129.13 , 182.85 128.80 , 182.95 128.43 , 183.06 128.01 , 183.16 127.54 , 183.27 127.02 , 183.37 126.41 , 183.48 125.75 , 183.59 125.09 , 183.69 124.44 , 183.80 123.82 , 183.90 123.10 , 184.01 122.20 , 184.12 121.15 , 184.22 120.03 , 184.33 118.85 , 184.43 117.63 , 184.54 116.32 , 184.65 114.85 , 184.75 113.14 , 184.86 111.15 , 184.96 109.01 , 185.07 106.85 , 185.18 104.67 , 185.28 102.40 , 185.39 99.92 , 185.49 97.22 , 185.60 94.38 , 185.70 91.47 , 185.81 88.47 , 185.92 85.33 , 186.02 82.03 , 186.13 78.64 , 186.23 75.34 , 186.34 72.34 , 186.45 69.82 , 186.55 67.70 , 186.66 65.77 , 186.76 63.92 , 186.87 62.21 , 186.98 60.64 , 187.08 59.13 , 187.19 57.72 , 187.29 56.60 , 187.40 56.09 , 187.50 56.38 , 187.61 57.31 , 187.72 58.49 , 187.82 59.70 , 187.93 60.95 , 188.03 62.30 , 188.14 63.85 , 188.25 65.70 , 188.35 67.79 , 188.46 69.93 , 188.56 72.04 , 188.67 74.28 , 188.78 76.74 , 188.88 79.30 , 188.99 81.78 , 189.09 84.13 , 189.20 86.49 , 189.30 89.01 , 189.41 91.70 , 189.52 94.42 , 189.62 97.01 , 189.73 99.42 , 189.83 101.66 , 189.94 103.74 , 190.05 105.67 , 190.15 107.44 , 190.26 109.09 , 190.36 110.65 , 190.47 112.18 , 190.58 113.75 , 190.68 115.35 , 190.79 116.91 , 190.89 118.29 , 191.00 119.44 , 191.10 120.47 , 191.21 121.49 , 191.32 122.50 , 191.42 123.43 , 191.53 124.24 , 191.63 124.98 , 191.74 125.71 , 191.85 126.43 , 191.95 127.10 , 192.06 127.70 , 192.16 128.22 , 192.27 128.65 , 192.38 129.00 , 192.48 129.35 , 192.59 129.75 , 192.69 130.18 , 192.80 130.59 , 192.90 130.94 , 193.01 131.20 , 193.12 131.39 , 193.22 131.53 , 193.33 131.62 , 193.43 131.66 , 193.54 131.70 , 193.65 131.77 , 193.75 131.88 , 193.86 132.03 , 193.96 132.16 , 194.07 132.28 , 194.18 132.36 , 194.28 132.42 , 194.39 132.44 , 194.49 132.45 , 194.60 132.47 , 194.70 132.50 , 194.81 132.55 , 194.92 132.60 , 195.02 132.66 , 195.13 132.73 , 195.23 132.79 , 195.34 132.84 , 195.45 132.87 , 195.55 132.90 , 195.66 132.92 , 195.76 132.94 , 195.87 132.96 , 195.98 132.96 , 196.08 132.97 , 196.19 132.97 , 196.29 132.98 , 196.40 132.98 , 196.50 132.99 , 196.61 132.99 , 196.72 132.99 , 196.82 132.99 , 196.93 132.99 , 197.03 132.99 , 197.14 132.98 , 197.25 132.98 , 197.35 132.98 , 197.46 132.98 , 197.56 132.98 , 197.67 132.98 , 197.78 132.98 , 197.88 132.98 , 197.99 132.99 , 197.99 " style="stroke-width:1;stroke:#A6CEE3;fill:#A6CEE3;stroke-opacity:1.000000;fill-opacity:0.000000" />
<polygon points="303.90 , 152.66 303.90 , 152.04 303.90 , 151.41 303.90 , 150.79 303.90 , 150.17 303.90 , 149.54 303.90 , 148.92 303.90 , 148.29 303.90 , 147.67 303.90 , 147.05 303.90 , 146.42 303.90 , 145.80 303.90 , 145.18 303.90 , 144.55 303.90 , 143.93 303.90 , 143.31 303.90 , 142.68 303.90 , 142.06 303.90 , 141.43 303.90 , 140.81 303.90 , 140.19 303.90 , 139.56 303.90 , 138.94 303.90 , 138.32 303.90 , 137.69 303.90 , 137.07 303.90 , 136.45 303.90 , 135.82 303.90 , 135.20 303.90 , 134.57 303.90 , 133.95 303.90 , 133.33 303.90 , 132.70 303.90 , 132.08 303.90 , 131.46 303.90 , 130.83 303.90 , 130.21 303.90 , 129.59 303.90 , 128.96 303.90 , 128.34 303.90 , 127.72 303.90 , 127.09 303.90 , 126.47 303.90 , 125.84 303.90 , 125.22 303.90 , 124.60 303.90 , 123.97 303.90 , 123.35 303.90 , 122.73 303.90 , 122.10 303.90 , 121.48 303.90 , 120.86 303.90 , 120.23 303.90 , 119.61 303.90 , 118.98 303.90 , 118.36 303.90 , 117.74 303.90 , 117.11 303.90 , 116.49 303.90 , 115.87 303.90 , 115.24 303.90 , 114.62 303.90 , 114.00 303.90 , 113.37 303.90 , 112.75 303.90 , 112.12 303.90 , 111.50 303.90 , 110.88 303.90 , 110.25 303.90 , 109.63 303.90 , 109.01 303.90 , 108.38 303.90 , 107.76 303.90 , 107.14 303.90 , 106.51 303.90 , 105.89 303.90 , 105.26 303.90 , 104.64 303.90 , 104.02 303.90 , 103.39 303.90 , 102.77 303.90 , 102.15 303.90 , 101.52 303.90 , 100.90 303.90 , 100.28 303.90 , 99.65 303.90 , 99.03 303.90 , 98.40 303.90 , 97.78 303.90 , 97.16 303.90 , 96.53 303.90 , 95.91 303.90 , 95.29 303.90 , 94.66 303.90 , 94.04 303.90 , 93.42 303.90 , 92.79 303.90 , 92.17 303.90 , 91.54 303.90 , 90.92 303.90 , 90.30 303.90 , 89.67 303.90 , 89.05 303.90 , 88.43 303.90 , 87.80 303.90 , 87.18 303.90 , 86.56 303.90 , 85.93 303.90 , 85.31 303.90 , 84.68 303.90 , 84.06 303.90 , 83.44 303.90 , 82.81 303.90 , 82.19 303.90 , 81.57 303.90 , 80.94 303.90 , 80.32 303.90 , 79.70 303.90 , 79.07 303.90 , 78.45 303.90 , 77.83 303.90 , 77.20 303.90 , 76.58 303.90 , 75.95 303.90 , 75.33 303.90 , 74.71 303.90 , 74.08 303.90 , 73.46 303.90 , 72.84 303.90 , 72.21 303.90 , 71.59 303.90 , 70.97 303.90 , 70.34 303.90 , 69.72 303.90 , 69.09 303.90 , 68.47 303.90 , 67.85 303.90 , 67.22 303.90 , 66.60 303.90 , 65.98 303.90 , 65.35 303.90 , 64.73 303.90 , 64.11 303.90 , 63.48 303.90 , 62.86 303.90 , 62.23 303.90 , 61.61 303.90 , 60.99 303.90 , 60.36 303.90 , 59.74 303.90 , 59.12 303.90 , 58.49 303.90 , 57.87 303.90 , 57.25 303.90 , 56.62 303.90 , 56.00 303.90 , 55.37 303.90 , 54.75 303.90 , 54.13 303.90 , 53.50 303.90 , 52.88 303.90 , 52.26 303.90 , 51.63 303.90 , 51.01 303.90 , 50.39 303.90 , 49.76 303.90 , 49.14 303.90 , 48.51 303.90 , 47.89 303.90 , 47.27 303.90 , 46.64 303.90 , 46.02 303.90 , 45.40 303.90 , 44.77 303.90 , 44.15 303.90 , 43.53 303.90 , 42.90 303.90 , 42.28 303.90 , 41.95 304.03 , 41.95 304.03 , 42.28 304.05 , 42.90 304.06 , 43.53 304.07 , 44.15 304.06 , 44.77 304.06 , 45.40 304.05 , 46.02 304.05 , 46.64 304.05 , 47.27 304.05 , 47.89 304.06 , 48.51 304.07 , 49.14 304.08 , 49.76 304.09 , 50.39 304.10 , 51.01 304.11 , 51.63 304.11 , 52.26 304.11 , 52.88 304.12 , 53.50 304.13 , 54.13 304.13 , 54.75 304.13 , 55.37 304.13 , 56.00 304.13 , 56.62 304.13 , 57.25 304.14 , 57.87 304.14 , 58.49 304.14 , 59.12 304.14 , 59.74 304.15 , 60.36 304.15 , 60.99 304.16 , 61.61 304.17 , 62.23 304.19 , 62.86 304.20 , 63.48 304.21 , 64.11 304.21 , 64.73 304.21 , 65.35 304.21 , 65.98 304.21 , 66.60 304.21 , 67.22 304.22 , 67.85 304.23 , 68.47 304.24 , 69.09 304.26 , 69.72 304.28 , 70.34 304.31 , 70.97 304.35 , 71.59 304.38 , 72.21 304.40 , 72.84 304.41 , 73.46 304.42 , 74.08 304.43 , 74.71 304.45 , 75.33 304.47 , 75.95 304.51 , 76.58 304.53 , 77.20 304.56 , 77.83 304.58 , 78.45 304.61 , 79.07 304.64 , 79.70 304.68 , 80.32 304.72 , 80.94 304.75 , 81.57 304.77 , 82.19 304.79 , 82.81 304.82 , 83.44 304.85 , 84.06 304.88 , 84.68 304.93 , 85.31 304.98 , 85.93 305.05 , 86.56 305.11 , 87.18 305.18 , 87.80 305.24 , 88.43 305.31 , 89.05 305.38 , 89.67 305.45 , 90.30 305.53 , 90.92 305.62 , 91.54 305.71 , 92.17 305.82 , 92.79 305.95 , 93.42 306.09 , 94.04 306.24 , 94.66 306.40 , 95.29 306.55 , 95.91 306.69 , 96.53 306.83 , 97.16 306.97 , 97.78 307.13 , 98.40 307.30 , 99.03 307.47 , 99.65 307.65 , 100.28 307.86 , 100.90 308.10 , 101.52 308.37 , 102.15 308.66 , 102.77 308.95 , 103.39 309.22 , 104.02 309.47 , 104.64 309.71 , 105.26 309.95 , 105.89 310.20 , 106.51 310.45 , 107.14 310.69 , 107.76 310.94 , 108.38 311.18 , 109.01 311.43 , 109.63 311.69 , 110.25 311.95 , 110.88 312.21 , 111.50 312.45 , 112.12 312.67 , 112.75 312.89 , 113.37 313.11 , 114.00 313.37 , 114.62 313.70 , 115.24 314.08 , 115.87 314.50 , 116.49 314.93 , 117.11 315.38 , 117.74 315.82 , 118.36 316.23 , 118.98 316.58 , 119.61 316.87 , 120.23 317.09 , 120.86 317.21 , 121.48 317.24 , 122.10 317.16 , 122.73 316.95 , 123.35 316.62 , 123.97 316.16 , 124.60 315.61 , 125.22 314.99 , 125.84 314.30 , 126.47 313.57 , 127.09 312.82 , 127.72 312.07 , 128.34 311.35 , 128.96 310.68 , 129.59 310.07 , 130.21 309.49 , 130.83 308.93 , 131.46 308.38 , 132.08 307.82 , 132.70 307.29 , 133.33 306.80 , 133.95 306.36 , 134.57 305.96 , 135.20 305.61 , 135.82 305.30 , 136.45 305.02 , 137.07 304.79 , 137.69 304.60 , 138.32 304.44 , 138.94 304.32 , 139.56 304.22 , 140.19 304.14 , 140.81 304.07 , 141.43 304.02 , 142.06 303.99 , 142.68 303.97 , 143.31 303.95 , 143.93 303.94 , 144.55 303.93 , 145.18 303.92 , 145.80 303.91 , 146.42 303.91 , 147.05 303.90 , 147.67 303.90 , 148.29 303.90 , 148.92 303.90 , 149.54 303.90 , 150.17 303.90 , 150.79 303.90 , 151.41 303.90 , 152.04 303.90 , 152.66 303.90 , 152.66 " style="stroke-width:1;stroke:#1F78B4;fill:#1F78B4;stroke-opacity:1.000000;fill-opacity:0.000000" />
<text transform="translate(21.00,220.93)"  style="font-size:9" >0</text>
<text transform="translate(15.60,187.47)"  style="font-size:9" >10</text>
<text transform="translate(15.60,154.01)"  style="font-size:9" >20</text>
<text transform="translate(15.60,120.54)"  style="font-size:9" >30</text>
<text transform="translate(15.60,87.08)"  style="font-size:9" >40</text>
<text transform="translate(15.60,53.62)"  style="font-size:9" >50</text>
<polyline points="27.70 , 217.63 30.45 , 217.63 " style="stroke-width:1;stroke:#333333;fill:#000000;stroke-opacity:1.000000;fill-opacity:0.000000"/>
<polyline points="27.70 , 184.17 30.45 , 184.17 " style="stroke-width:1;stroke:#333333;fill:#000000;stroke-opacity:1.000000;fill-opacity:0.000000"/>
<polyline points="27.70 , 150.71 30.45 , 150.71 " style="stroke-width:1;stroke:#333333;fill:#000000;stroke-opacity:1.000000;fill-opacity:0.000000"/>
<polyline points="27.70 , 117.24 30.45 , 117.24 " style="stroke-width:1;stroke:#333333;fill:#000000;stroke-opacity:1.000000;fill-opacity:0.000000"/>
<polyline points="27.70 , 83.78 30.45 , 83.78 " style="stroke-width:1;stroke:#333333;fill:#000000;stroke-opacity:1.000000;fill-opacity:0.000000"/>
<polyline points="27.70 , 50.32 30.45 , 50.32 " style="stroke-width:1;stroke:#333333;fill:#000000;stroke-opacity:1.000000;fill-opacity:0.000000"/>
<text transform="translate(13.75,190.23) rotate(-90)"  style="font-size:11" >tailfindr tail length [nt]</text>
<rect x="157.71" y="5.50" width="121.46" height="25.45" style="stroke-width:1;stroke:#FFFFFF;fill:#FFFFFF;stroke-opacity:0.000000;fill-opacity:1.000000" />
<text transform="translate(163.21,22.35)"  style="font-size:11" >Data</text>
<rect x="191.20" y="11.00" width="14.45" height="14.45" style="stroke-width:1;stroke:#FFFFFF;fill:#F2F2F2;stroke-opacity:1.000000;fill-opacity:1.000000" />
<rect x="191.91" y="11.71" width="13.03" height="13.03" style="stroke-width:1;stroke:#A6CEE3;fill:#A6CEE3;stroke-opacity:1.000000;fill-opacity:0.000000" />
<rect x="235.53" y="11.00" width="14.45" height="14.45" style="stroke-width:1;stroke:#FFFFFF;fill:#F2F2F2;stroke-opacity:1.000000;fill-opacity:1.000000" />
<rect x="236.24" y="11.71" width="13.03" height="13.03" style="stroke-width:1;stroke:#1F78B4;fill:#1F78B4;stroke-opacity:1.000000;fill-opacity:0.000000" />
<text transform="translate(211.16,21.53)"  style="font-size:9" >DNA</text>
<text transform="translate(255.49,21.53)"  style="font-size:9" >RNA</text>
<text transform="translate(181.71,240.84)"  style="font-size:9" >DNA tail estimates have less spread comapred to RNA. </text>
<text transform="translate(113.33,247.44)"  style="font-size:9" >       The black horizontal lines represent the expected poly(A) tail length.</text>
</svg>
