<?xml version="1.0" encoding="UTF-8"?>
<svg xmlns="http://www.w3.org/2000/svg" width="722.70" height="252.94" viewBox="0,0,722.70,252.94">
<desc>R SVG Plot!</desc>
<rect width="100%" height="100%" style="fill:#FFFFFF"/>
<polygon points="0.00 , 252.94 0.00 , 0.00 722.70 , 0.00 722.70 , 252.94 " style="stroke-width:1;stroke:#FFFFFF;fill:#FFFFFF;stroke-opacity:1.000000;fill-opacity:1.000000" />
<polyline points="145.59 , 212.79 145.59 , 84.61 " style="stroke-width:1;stroke:#BEBEBE;fill:#000000;stroke-opacity:1.000000;fill-opacity:0.000000"/>
<polyline points="300.08 , 212.79 300.08 , 84.61 " style="stroke-width:1;stroke:#BEBEBE;fill:#000000;stroke-opacity:1.000000;fill-opacity:0.000000"/>
<polyline points="454.57 , 212.79 454.57 , 84.61 " style="stroke-width:1;stroke:#BEBEBE;fill:#000000;stroke-opacity:1.000000;fill-opacity:0.000000"/>
<polyline points="609.06 , 212.79 609.06 , 84.61 " style="stroke-width:1;stroke:#BEBEBE;fill:#000000;stroke-opacity:1.000000;fill-opacity:0.000000"/>
<polyline points="68.35 , 212.79 68.35 , 84.61 " style="stroke-width:1;stroke:#BEBEBE;fill:#000000;stroke-opacity:1.000000;fill-opacity:0.000000"/>
<polyline points="222.84 , 212.79 222.84 , 84.61 " style="stroke-width:1;stroke:#BEBEBE;fill:#000000;stroke-opacity:1.000000;fill-opacity:0.000000"/>
<polyline points="377.33 , 212.79 377.33 , 84.61 " style="stroke-width:1;stroke:#BEBEBE;fill:#000000;stroke-opacity:1.000000;fill-opacity:0.000000"/>
<polyline points="531.81 , 212.79 531.81 , 84.61 " style="stroke-width:1;stroke:#BEBEBE;fill:#000000;stroke-opacity:1.000000;fill-opacity:0.000000"/>
<polyline points="686.30 , 212.79 686.30 , 84.61 " style="stroke-width:1;stroke:#BEBEBE;fill:#000000;stroke-opacity:1.000000;fill-opacity:0.000000"/>
<polyline points="59.32 , 206.97 62.20 , 206.97 65.08 , 206.97 67.96 , 206.97 70.84 , 206.97 73.72 , 206.97 76.60 , 206.96 79.48 , 206.96 82.36 , 206.94 85.24 , 206.92 88.12 , 206.89 91.00 , 206.86 93.87 , 206.83 96.75 , 206.80 99.63 , 206.76 102.51 , 206.73 105.39 , 206.68 108.27 , 206.62 111.15 , 206.53 114.03 , 206.39 116.91 , 206.21 119.79 , 205.96 122.67 , 205.64 125.55 , 205.24 128.42 , 204.75 131.30 , 204.12 134.18 , 203.30 137.06 , 202.31 139.94 , 201.15 142.82 , 199.84 145.70 , 198.32 148.58 , 196.46 151.46 , 194.15 154.34 , 191.29 157.22 , 187.84 160.10 , 183.77 162.97 , 179.05 165.85 , 173.58 168.73 , 167.23 171.61 , 159.97 174.49 , 151.98 177.37 , 143.57 180.25 , 135.06 183.13 , 126.63 186.01 , 118.49 188.89 , 110.92 191.77 , 104.29 194.65 , 98.93 197.52 , 95.15 200.40 , 93.14 203.28 , 92.83 206.16 , 93.86 209.04 , 95.78 211.92 , 98.30 214.80 , 101.37 217.68 , 105.05 220.56 , 109.29 223.44 , 113.78 226.32 , 118.11 229.20 , 121.89 232.07 , 124.91 234.95 , 127.20 237.83 , 128.98 240.71 , 130.59 243.59 , 132.32 246.47 , 134.33 249.35 , 136.57 252.23 , 138.86 255.11 , 140.96 257.99 , 142.79 260.87 , 144.37 263.75 , 145.84 266.62 , 147.37 269.50 , 149.08 272.38 , 150.96 275.26 , 152.90 278.14 , 154.76 281.02 , 156.53 283.90 , 158.33 286.78 , 160.30 289.66 , 162.50 292.54 , 164.85 295.42 , 167.22 298.30 , 169.53 301.17 , 171.71 304.05 , 173.75 306.93 , 175.63 309.81 , 177.34 312.69 , 178.93 315.57 , 180.43 318.45 , 181.89 321.33 , 183.31 324.21 , 184.67 327.09 , 185.97 329.97 , 187.23 332.85 , 188.44 335.72 , 189.56 338.60 , 190.59 341.48 , 191.50 344.36 , 192.28 347.24 , 192.96 350.12 , 193.60 353.00 , 194.25 355.88 , 194.94 358.76 , 195.65 361.64 , 196.36 364.52 , 197.03 367.40 , 197.61 370.28 , 198.08 373.15 , 198.46 376.03 , 198.78 378.91 , 199.06 381.79 , 199.31 384.67 , 199.52 387.55 , 199.75 390.43 , 200.03 393.31 , 200.41 396.19 , 200.87 399.07 , 201.33 401.95 , 201.74 404.83 , 202.04 407.70 , 202.24 410.58 , 202.34 413.46 , 202.41 416.34 , 202.46 419.22 , 202.52 422.10 , 202.58 424.98 , 202.65 427.86 , 202.77 430.74 , 202.95 433.62 , 203.22 436.50 , 203.52 439.38 , 203.80 442.25 , 204.02 445.13 , 204.15 448.01 , 204.22 450.89 , 204.28 453.77 , 204.36 456.65 , 204.47 459.53 , 204.58 462.41 , 204.65 465.29 , 204.66 468.17 , 204.63 471.05 , 204.61 473.93 , 204.63 476.80 , 204.71 479.68 , 204.84 482.56 , 204.97 485.44 , 205.08 488.32 , 205.15 491.20 , 205.18 494.08 , 205.19 496.96 , 205.18 499.84 , 205.16 502.72 , 205.14 505.60 , 205.14 508.48 , 205.17 511.35 , 205.23 514.23 , 205.31 517.11 , 205.39 519.99 , 205.44 522.87 , 205.49 525.75 , 205.53 528.63 , 205.58 531.51 , 205.64 534.39 , 205.68 537.27 , 205.71 540.15 , 205.75 543.03 , 205.78 545.90 , 205.81 548.78 , 205.82 551.66 , 205.81 554.54 , 205.82 557.42 , 205.84 560.30 , 205.88 563.18 , 205.93 566.06 , 205.97 568.94 , 206.01 571.82 , 206.05 574.70 , 206.09 577.58 , 206.13 580.45 , 206.15 583.33 , 206.17 586.21 , 206.18 589.09 , 206.19 591.97 , 206.19 594.85 , 206.18 597.73 , 206.18 600.61 , 206.17 603.49 , 206.16 606.37 , 206.16 609.25 , 206.16 612.13 , 206.18 615.00 , 206.23 617.88 , 206.31 620.76 , 206.39 623.64 , 206.47 626.52 , 206.51 629.40 , 206.52 632.28 , 206.52 635.16 , 206.50 638.04 , 206.50 640.92 , 206.49 643.80 , 206.49 646.68 , 206.47 649.55 , 206.45 652.43 , 206.42 655.31 , 206.40 658.19 , 206.41 661.07 , 206.44 663.95 , 206.48 666.83 , 206.53 669.71 , 206.58 672.59 , 206.61 675.47 , 206.64 678.35 , 206.65 681.23 , 206.67 684.11 , 206.67 686.98 , 206.67 689.86 , 206.66 692.74 , 206.64 695.62 , 206.62 698.50 , 206.60 701.38 , 206.58 704.26 , 206.55 707.14 , 206.53 710.02 , 206.52 712.90 , 206.53 715.78 , 206.54 717.20 , 206.55 " style="stroke-width:1;stroke:#A6CEE3;fill:#000000;stroke-opacity:1.000000;fill-opacity:0.000000"/>
<polyline points="59.32 , 206.95 62.20 , 206.95 65.08 , 206.95 67.96 , 206.95 70.84 , 206.96 73.72 , 206.96 76.60 , 206.96 79.48 , 206.95 82.36 , 206.95 85.24 , 206.94 88.12 , 206.93 91.00 , 206.92 93.87 , 206.90 96.75 , 206.87 99.63 , 206.82 102.51 , 206.75 105.39 , 206.65 108.27 , 206.53 111.15 , 206.37 114.03 , 206.18 116.91 , 205.96 119.79 , 205.71 122.67 , 205.43 125.55 , 205.08 128.42 , 204.62 131.30 , 204.03 134.18 , 203.30 137.06 , 202.39 139.94 , 201.27 142.82 , 199.90 145.70 , 198.22 148.58 , 196.15 151.46 , 193.56 154.34 , 190.39 157.22 , 186.60 160.10 , 182.14 162.97 , 176.93 165.85 , 170.92 168.73 , 164.16 171.61 , 156.73 174.49 , 148.75 177.37 , 140.37 180.25 , 131.84 183.13 , 123.49 186.01 , 115.59 188.89 , 108.35 191.77 , 102.01 194.65 , 96.91 197.52 , 93.28 200.40 , 91.16 203.28 , 90.44 206.16 , 91.04 209.04 , 92.98 211.92 , 96.25 214.80 , 100.57 217.68 , 105.35 220.56 , 110.06 223.44 , 114.39 226.32 , 118.23 229.20 , 121.64 232.07 , 124.73 234.95 , 127.51 237.83 , 129.89 240.71 , 131.84 243.59 , 133.51 246.47 , 135.13 249.35 , 136.83 252.23 , 138.47 255.11 , 139.94 257.99 , 141.42 260.87 , 143.21 263.75 , 145.38 266.62 , 147.74 269.50 , 149.99 272.38 , 152.02 275.26 , 153.97 278.14 , 156.02 281.02 , 158.19 283.90 , 160.41 286.78 , 162.64 289.66 , 164.96 292.54 , 167.40 295.42 , 169.83 298.30 , 172.01 301.17 , 173.88 304.05 , 175.55 306.93 , 177.22 309.81 , 178.97 312.69 , 180.74 315.57 , 182.39 318.45 , 183.87 321.33 , 185.21 324.21 , 186.46 327.09 , 187.67 329.97 , 188.87 332.85 , 189.99 335.72 , 190.94 338.60 , 191.71 341.48 , 192.41 344.36 , 193.14 347.24 , 193.86 350.12 , 194.53 353.00 , 195.14 355.88 , 195.74 358.76 , 196.34 361.64 , 196.96 364.52 , 197.61 367.40 , 198.23 370.28 , 198.75 373.15 , 199.13 376.03 , 199.43 378.91 , 199.70 381.79 , 199.95 384.67 , 200.17 387.55 , 200.36 390.43 , 200.55 393.31 , 200.75 396.19 , 200.97 399.07 , 201.21 401.95 , 201.49 404.83 , 201.79 407.70 , 202.11 410.58 , 202.43 413.46 , 202.70 416.34 , 202.92 419.22 , 203.09 422.10 , 203.21 424.98 , 203.30 427.86 , 203.39 430.74 , 203.52 433.62 , 203.67 436.50 , 203.81 439.38 , 203.91 442.25 , 203.97 445.13 , 204.01 448.01 , 204.08 450.89 , 204.19 453.77 , 204.29 456.65 , 204.37 459.53 , 204.40 462.41 , 204.43 465.29 , 204.49 468.17 , 204.59 471.05 , 204.72 473.93 , 204.83 476.80 , 204.90 479.68 , 204.95 482.56 , 204.99 485.44 , 205.06 488.32 , 205.14 491.20 , 205.21 494.08 , 205.24 496.96 , 205.23 499.84 , 205.21 502.72 , 205.19 505.60 , 205.18 508.48 , 205.16 511.35 , 205.15 514.23 , 205.19 517.11 , 205.28 519.99 , 205.40 522.87 , 205.49 525.75 , 205.52 528.63 , 205.51 531.51 , 205.50 534.39 , 205.54 537.27 , 205.63 540.15 , 205.73 543.03 , 205.78 545.90 , 205.79 548.78 , 205.76 551.66 , 205.70 554.54 , 205.64 557.42 , 205.59 560.30 , 205.58 563.18 , 205.60 566.06 , 205.66 568.94 , 205.75 571.82 , 205.84 574.70 , 205.90 577.58 , 205.93 580.45 , 205.96 583.33 , 206.00 586.21 , 206.02 589.09 , 206.02 591.97 , 206.01 594.85 , 206.00 597.73 , 206.03 600.61 , 206.09 603.49 , 206.18 606.37 , 206.25 609.25 , 206.28 612.13 , 206.28 615.00 , 206.25 617.88 , 206.24 620.76 , 206.24 623.64 , 206.25 626.52 , 206.27 629.40 , 206.28 632.28 , 206.29 635.16 , 206.29 638.04 , 206.29 640.92 , 206.29 643.80 , 206.28 646.68 , 206.28 649.55 , 206.30 652.43 , 206.35 655.31 , 206.39 658.19 , 206.42 661.07 , 206.44 663.95 , 206.45 666.83 , 206.45 669.71 , 206.43 672.59 , 206.43 675.47 , 206.46 678.35 , 206.50 681.23 , 206.55 684.11 , 206.58 686.98 , 206.60 689.86 , 206.59 692.74 , 206.58 695.62 , 206.58 698.50 , 206.59 701.38 , 206.58 704.26 , 206.55 707.14 , 206.52 710.02 , 206.50 712.90 , 206.51 715.78 , 206.52 717.20 , 206.53 " style="stroke-width:1;stroke:#1F78B4;fill:#000000;stroke-opacity:1.000000;fill-opacity:0.000000"/>
<polyline points="59.32 , 206.97 62.20 , 206.96 65.08 , 206.96 67.96 , 206.95 70.84 , 206.94 73.72 , 206.92 76.60 , 206.90 79.48 , 206.86 82.36 , 206.81 85.24 , 206.73 88.12 , 206.64 91.00 , 206.51 93.87 , 206.35 96.75 , 206.13 99.63 , 205.84 102.51 , 205.45 105.39 , 204.93 108.27 , 204.21 111.15 , 203.20 114.03 , 201.85 116.91 , 200.13 119.79 , 197.99 122.67 , 195.35 125.55 , 192.06 128.42 , 187.98 131.30 , 183.00 134.18 , 177.09 137.06 , 170.30 139.94 , 162.78 142.82 , 154.74 145.70 , 146.44 148.58 , 138.19 151.46 , 130.32 154.34 , 123.13 157.22 , 116.91 160.10 , 111.82 162.97 , 107.92 165.85 , 105.19 168.73 , 103.59 171.61 , 103.11 174.49 , 103.75 177.37 , 105.35 180.25 , 107.67 183.13 , 110.40 186.01 , 113.30 188.89 , 116.13 191.77 , 118.71 194.65 , 120.94 197.52 , 122.82 200.40 , 124.44 203.28 , 125.91 206.16 , 127.39 209.04 , 128.94 211.92 , 130.58 214.80 , 132.30 217.68 , 134.05 220.56 , 135.78 223.44 , 137.47 226.32 , 139.15 229.20 , 140.92 232.07 , 142.85 234.95 , 144.94 237.83 , 147.12 240.71 , 149.30 243.59 , 151.40 246.47 , 153.49 249.35 , 155.70 252.23 , 158.11 255.11 , 160.61 257.99 , 163.02 260.87 , 165.19 263.75 , 167.13 266.62 , 168.93 269.50 , 170.69 272.38 , 172.38 275.26 , 173.99 278.14 , 175.52 281.02 , 176.99 283.90 , 178.41 286.78 , 179.79 289.66 , 181.11 292.54 , 182.38 295.42 , 183.60 298.30 , 184.81 301.17 , 186.00 304.05 , 187.15 306.93 , 188.21 309.81 , 189.14 312.69 , 189.92 315.57 , 190.56 318.45 , 191.08 321.33 , 191.54 324.21 , 192.07 327.09 , 192.75 329.97 , 193.57 332.85 , 194.45 335.72 , 195.28 338.60 , 195.96 341.48 , 196.51 344.36 , 196.94 347.24 , 197.31 350.12 , 197.63 353.00 , 197.92 355.88 , 198.20 358.76 , 198.50 361.64 , 198.82 364.52 , 199.15 367.40 , 199.48 370.28 , 199.81 373.15 , 200.13 376.03 , 200.43 378.91 , 200.67 381.79 , 200.86 384.67 , 201.01 387.55 , 201.16 390.43 , 201.34 393.31 , 201.55 396.19 , 201.75 399.07 , 201.92 401.95 , 202.05 404.83 , 202.16 407.70 , 202.28 410.58 , 202.42 413.46 , 202.57 416.34 , 202.71 419.22 , 202.83 422.10 , 202.94 424.98 , 203.05 427.86 , 203.16 430.74 , 203.30 433.62 , 203.47 436.50 , 203.64 439.38 , 203.80 442.25 , 203.91 445.13 , 203.98 448.01 , 204.01 450.89 , 204.02 453.77 , 204.04 456.65 , 204.07 459.53 , 204.12 462.41 , 204.20 465.29 , 204.28 468.17 , 204.37 471.05 , 204.45 473.93 , 204.54 476.80 , 204.62 479.68 , 204.68 482.56 , 204.73 485.44 , 204.76 488.32 , 204.78 491.20 , 204.80 494.08 , 204.82 496.96 , 204.85 499.84 , 204.89 502.72 , 204.95 505.60 , 205.02 508.48 , 205.10 511.35 , 205.17 514.23 , 205.19 517.11 , 205.16 519.99 , 205.12 522.87 , 205.09 525.75 , 205.12 528.63 , 205.19 531.51 , 205.29 534.39 , 205.37 537.27 , 205.44 540.15 , 205.48 543.03 , 205.51 545.90 , 205.54 548.78 , 205.59 551.66 , 205.63 554.54 , 205.66 557.42 , 205.68 560.30 , 205.69 563.18 , 205.72 566.06 , 205.79 568.94 , 205.88 571.82 , 205.97 574.70 , 206.03 577.58 , 206.06 580.45 , 206.06 583.33 , 206.04 586.21 , 206.01 589.09 , 206.00 591.97 , 205.99 594.85 , 205.98 597.73 , 205.96 600.61 , 205.95 603.49 , 205.96 606.37 , 206.00 609.25 , 206.06 612.13 , 206.13 615.00 , 206.18 617.88 , 206.22 620.76 , 206.25 623.64 , 206.25 626.52 , 206.26 629.40 , 206.27 632.28 , 206.28 635.16 , 206.29 638.04 , 206.31 640.92 , 206.33 643.80 , 206.36 646.68 , 206.39 649.55 , 206.41 652.43 , 206.43 655.31 , 206.45 658.19 , 206.46 661.07 , 206.46 663.95 , 206.46 666.83 , 206.46 669.71 , 206.47 672.59 , 206.47 675.47 , 206.47 678.35 , 206.46 681.23 , 206.46 684.11 , 206.46 686.98 , 206.47 689.86 , 206.49 692.74 , 206.52 695.62 , 206.56 698.50 , 206.58 701.38 , 206.58 704.26 , 206.57 707.14 , 206.57 710.02 , 206.59 712.90 , 206.63 715.78 , 206.65 717.20 , 206.65 " style="stroke-width:1;stroke:#B2DF8A;fill:#000000;stroke-opacity:1.000000;fill-opacity:0.000000"/>
<text transform="translate(16.50,210.27)"  style="font-size:9" >0.00</text>
<text transform="translate(14.90,169.64)"  style="font-size:9" >0.05</text>
<text transform="translate(14.90,129.01)"  style="font-size:9" >0.10</text>
<text transform="translate(14.90,88.38)"  style="font-size:9" >0.15</text>
<polyline points="34.70 , 206.97 37.45 , 206.97 " style="stroke-width:1;stroke:#333333;fill:#000000;stroke-opacity:1.000000;fill-opacity:0.000000"/>
<polyline points="34.70 , 166.34 37.45 , 166.34 " style="stroke-width:1;stroke:#333333;fill:#000000;stroke-opacity:1.000000;fill-opacity:0.000000"/>
<polyline points="34.70 , 125.71 37.45 , 125.71 " style="stroke-width:1;stroke:#333333;fill:#000000;stroke-opacity:1.000000;fill-opacity:0.000000"/>
<polyline points="34.70 , 85.08 37.45 , 85.08 " style="stroke-width:1;stroke:#333333;fill:#000000;stroke-opacity:1.000000;fill-opacity:0.000000"/>
<polyline points="68.35 , 215.54 68.35 , 212.79 " style="stroke-width:1;stroke:#333333;fill:#000000;stroke-opacity:1.000000;fill-opacity:0.000000"/>
<polyline points="222.84 , 215.54 222.84 , 212.79 " style="stroke-width:1;stroke:#333333;fill:#000000;stroke-opacity:1.000000;fill-opacity:0.000000"/>
<polyline points="377.33 , 215.54 377.33 , 212.79 " style="stroke-width:1;stroke:#333333;fill:#000000;stroke-opacity:1.000000;fill-opacity:0.000000"/>
<polyline points="531.81 , 215.54 531.81 , 212.79 " style="stroke-width:1;stroke:#333333;fill:#000000;stroke-opacity:1.000000;fill-opacity:0.000000"/>
<polyline points="686.30 , 215.54 686.30 , 212.79 " style="stroke-width:1;stroke:#333333;fill:#000000;stroke-opacity:1.000000;fill-opacity:0.000000"/>
<text transform="translate(63.40,224.34)"  style="font-size:9" >20</text>
<text transform="translate(217.89,224.34)"  style="font-size:9" >30</text>
<text transform="translate(372.38,224.34)"  style="font-size:9" >40</text>
<text transform="translate(526.86,224.34)"  style="font-size:9" >50</text>
<text transform="translate(681.35,224.34)"  style="font-size:9" >60</text>
<text transform="translate(276.43,235.34)"  style="font-size:11" >Translocation rate (Samples/nucleotide)</text>
<text transform="translate(13.75,167.67) rotate(-90)"  style="font-size:11" >Density</text>
<rect x="303.45" y="5.50" width="147.74" height="68.11" style="stroke-width:1;stroke:#FFFFFF;fill:#FFFFFF;stroke-opacity:0.000000;fill-opacity:1.000000" />
<text transform="translate(308.95,19.25)"  style="font-size:11" >Replicates </text>
<rect x="308.95" y="24.75" width="14.45" height="14.45" style="stroke-width:1;stroke:#FFFFFF;fill:#F2F2F2;stroke-opacity:1.000000;fill-opacity:1.000000" />
<line x1="310.40" y1="31.98" x2="321.96" y2="31.98" style="stroke-width:1;stroke:#A6CEE3;fill:#000000;stroke-opacity:1.000000;fill-opacity:0.000000"/>
<rect x="308.95" y="39.20" width="14.45" height="14.45" style="stroke-width:1;stroke:#FFFFFF;fill:#F2F2F2;stroke-opacity:1.000000;fill-opacity:1.000000" />
<line x1="310.40" y1="46.43" x2="321.96" y2="46.43" style="stroke-width:1;stroke:#1F78B4;fill:#000000;stroke-opacity:1.000000;fill-opacity:0.000000"/>
<rect x="308.95" y="53.66" width="14.45" height="14.45" style="stroke-width:1;stroke:#FFFFFF;fill:#F2F2F2;stroke-opacity:1.000000;fill-opacity:1.000000" />
<line x1="310.40" y1="60.88" x2="321.96" y2="60.88" style="stroke-width:1;stroke:#B2DF8A;fill:#000000;stroke-opacity:1.000000;fill-opacity:0.000000"/>
<text transform="translate(328.91,35.28)"  style="font-size:9" >Replicate 1 SQK-RNA001 +RT</text>
<text transform="translate(328.91,49.73)"  style="font-size:9" >Replicate 2 SQK-RNA001 +RT</text>
<text transform="translate(328.91,64.18)"  style="font-size:9" >Replicate 3 SQK-RNA002 -RT</text>
<text transform="translate(317.25,247.44)"  style="font-size:9" >RNA without reverse transcription transloactes slightly slower than RNA with reverse transcription.</text>
</svg>
