<?xml version="1.0" encoding="UTF-8"?>
<svg xmlns="http://www.w3.org/2000/svg" width="289.08" height="216.81" viewBox="0,0,289.08,216.81">
<desc>R SVG Plot!</desc>
<rect width="100%" height="100%" style="fill:#FFFFFF"/>
<polygon points="0.00 , 0.00 289.08 , 0.00 289.08 , 216.81 0.00 , 216.81 " style="stroke-width:1;stroke:#FFFFFF;fill:#FFFFFF;stroke-opacity:1.000000;fill-opacity:1.000000" />
<polyline points="34.95 , 180.35 141.20 , 180.35 " style="stroke-width:1;stroke:#BEBEBE;fill:#000000;stroke-opacity:1.000000;fill-opacity:0.000000"/>
<polyline points="34.95 , 169.74 141.20 , 169.74 " style="stroke-width:1;stroke:#BEBEBE;fill:#000000;stroke-opacity:1.000000;fill-opacity:0.000000"/>
<polyline points="34.95 , 159.14 141.20 , 159.14 " style="stroke-width:1;stroke:#BEBEBE;fill:#000000;stroke-opacity:1.000000;fill-opacity:0.000000"/>
<polyline points="34.95 , 137.92 141.20 , 137.92 " style="stroke-width:1;stroke:#BEBEBE;fill:#000000;stroke-opacity:1.000000;fill-opacity:0.000000"/>
<polyline points="34.95 , 127.32 141.20 , 127.32 " style="stroke-width:1;stroke:#BEBEBE;fill:#000000;stroke-opacity:1.000000;fill-opacity:0.000000"/>
<polyline points="34.95 , 116.71 141.20 , 116.71 " style="stroke-width:1;stroke:#BEBEBE;fill:#000000;stroke-opacity:1.000000;fill-opacity:0.000000"/>
<polyline points="34.95 , 95.50 141.20 , 95.50 " style="stroke-width:1;stroke:#BEBEBE;fill:#000000;stroke-opacity:1.000000;fill-opacity:0.000000"/>
<polyline points="34.95 , 84.89 141.20 , 84.89 " style="stroke-width:1;stroke:#BEBEBE;fill:#000000;stroke-opacity:1.000000;fill-opacity:0.000000"/>
<polyline points="34.95 , 74.28 141.20 , 74.28 " style="stroke-width:1;stroke:#BEBEBE;fill:#000000;stroke-opacity:1.000000;fill-opacity:0.000000"/>
<polyline points="34.95 , 190.96 141.20 , 190.96 " style="stroke-width:1;stroke:#BEBEBE;fill:#000000;stroke-opacity:1.000000;fill-opacity:0.000000"/>
<polyline points="34.95 , 148.53 141.20 , 148.53 " style="stroke-width:1;stroke:#BEBEBE;fill:#000000;stroke-opacity:1.000000;fill-opacity:0.000000"/>
<polyline points="34.95 , 106.10 141.20 , 106.10 " style="stroke-width:1;stroke:#BEBEBE;fill:#000000;stroke-opacity:1.000000;fill-opacity:0.000000"/>
<polyline points="34.95 , 63.68 141.20 , 63.68 " style="stroke-width:1;stroke:#BEBEBE;fill:#000000;stroke-opacity:1.000000;fill-opacity:0.000000"/>
<polygon points="88.07 , 189.52 88.07 , 189.28 88.07 , 189.03 88.07 , 188.78 88.07 , 188.54 88.07 , 188.29 88.07 , 188.04 88.07 , 187.80 88.07 , 187.55 88.07 , 187.31 88.07 , 187.06 88.07 , 186.81 88.07 , 186.57 88.07 , 186.32 88.07 , 186.07 88.07 , 185.83 88.07 , 185.58 88.07 , 185.34 88.07 , 185.09 88.07 , 184.84 88.07 , 184.60 88.07 , 184.35 88.07 , 184.10 88.07 , 183.86 88.07 , 183.61 88.07 , 183.37 88.07 , 183.12 88.07 , 182.87 88.07 , 182.63 88.07 , 182.38 88.07 , 182.13 88.07 , 181.89 88.07 , 181.64 88.07 , 181.40 88.07 , 181.15 88.07 , 180.90 88.07 , 180.66 88.07 , 180.41 88.07 , 180.16 88.07 , 179.92 88.07 , 179.67 88.07 , 179.43 88.07 , 179.18 88.07 , 178.93 88.07 , 178.69 88.07 , 178.44 88.07 , 178.19 88.07 , 177.95 88.07 , 177.70 88.07 , 177.45 88.07 , 177.21 88.07 , 176.96 88.07 , 176.72 88.07 , 176.47 88.07 , 176.22 88.07 , 175.98 88.07 , 175.73 88.07 , 175.48 88.07 , 175.24 88.07 , 174.99 88.07 , 174.75 88.07 , 174.50 88.07 , 174.25 88.07 , 174.01 88.07 , 173.76 88.07 , 173.51 88.07 , 173.27 88.07 , 173.02 88.07 , 172.78 88.07 , 172.53 88.07 , 172.28 88.07 , 172.04 88.07 , 171.79 88.07 , 171.54 88.07 , 171.30 88.07 , 171.05 88.07 , 170.81 88.07 , 170.56 88.07 , 170.31 88.07 , 170.07 88.07 , 169.82 88.07 , 169.57 88.07 , 169.33 88.07 , 169.08 88.07 , 168.84 88.07 , 168.59 88.07 , 168.34 88.07 , 168.10 88.07 , 167.85 88.07 , 167.60 88.07 , 167.36 88.07 , 167.11 88.07 , 166.87 88.07 , 166.62 88.07 , 166.37 88.07 , 166.13 88.07 , 165.88 88.07 , 165.63 88.07 , 165.39 88.07 , 165.14 88.07 , 164.90 88.07 , 164.65 88.07 , 164.40 88.07 , 164.16 88.07 , 163.91 88.07 , 163.66 88.07 , 163.42 88.07 , 163.17 88.07 , 162.92 88.07 , 162.68 88.07 , 162.43 88.07 , 162.19 88.07 , 161.94 88.07 , 161.69 88.07 , 161.45 88.07 , 161.20 88.07 , 160.95 88.07 , 160.71 88.07 , 160.46 88.07 , 160.22 88.07 , 159.97 88.07 , 159.72 88.07 , 159.48 88.07 , 159.23 88.07 , 158.98 88.07 , 158.74 88.07 , 158.49 88.07 , 158.25 88.07 , 158.00 88.07 , 157.75 88.07 , 157.51 88.07 , 157.26 88.07 , 157.01 88.07 , 156.77 88.07 , 156.52 88.07 , 156.28 88.07 , 156.03 88.07 , 155.78 88.07 , 155.54 88.07 , 155.29 88.07 , 155.04 88.07 , 154.80 88.07 , 154.55 88.07 , 154.31 88.07 , 154.06 88.07 , 153.81 88.07 , 153.57 88.07 , 153.32 88.07 , 153.07 88.07 , 152.83 88.07 , 152.58 88.07 , 152.34 88.07 , 152.09 88.07 , 151.84 88.07 , 151.60 88.07 , 151.35 88.07 , 151.10 88.07 , 150.86 88.07 , 150.61 88.07 , 150.36 88.07 , 150.12 88.07 , 149.87 88.07 , 149.63 88.07 , 149.38 88.07 , 149.13 88.07 , 148.89 88.07 , 148.64 88.07 , 148.39 88.07 , 148.15 88.07 , 147.90 88.07 , 147.66 88.07 , 147.41 88.07 , 147.16 88.07 , 146.92 88.07 , 146.67 88.07 , 146.42 88.07 , 146.18 88.07 , 145.93 88.07 , 145.69 88.07 , 145.44 88.07 , 145.19 88.07 , 144.95 88.07 , 144.70 88.07 , 144.45 88.07 , 144.21 88.07 , 143.96 88.07 , 143.72 88.07 , 143.47 88.07 , 143.22 88.07 , 142.98 88.07 , 142.73 88.07 , 142.48 88.07 , 142.24 88.07 , 141.99 88.07 , 141.75 88.07 , 141.50 88.07 , 141.25 88.07 , 141.01 88.07 , 140.76 88.07 , 140.51 88.07 , 140.27 88.07 , 140.02 88.07 , 139.78 88.07 , 139.53 88.07 , 139.28 88.07 , 139.04 88.07 , 138.79 88.07 , 138.54 88.07 , 138.30 88.07 , 138.05 88.07 , 137.81 88.07 , 137.56 88.07 , 137.31 88.07 , 137.07 88.07 , 136.82 88.07 , 136.57 88.07 , 136.33 88.07 , 136.08 88.07 , 135.83 88.07 , 135.59 88.07 , 135.34 88.07 , 135.10 88.07 , 134.85 88.07 , 134.60 88.07 , 134.36 88.07 , 134.11 88.07 , 133.86 88.07 , 133.62 88.07 , 133.37 88.07 , 133.13 88.07 , 132.88 88.07 , 132.63 88.07 , 132.39 88.07 , 132.14 88.07 , 131.89 88.07 , 131.65 88.07 , 131.40 88.07 , 131.16 88.07 , 130.91 88.07 , 130.66 88.07 , 130.42 88.07 , 130.17 88.07 , 129.92 88.07 , 129.68 88.07 , 129.43 88.07 , 129.19 88.07 , 128.94 88.07 , 128.69 88.07 , 128.45 88.07 , 128.20 88.07 , 127.95 88.07 , 127.71 88.07 , 127.46 88.07 , 127.22 88.07 , 126.97 88.07 , 126.72 88.07 , 126.48 88.07 , 126.23 88.07 , 125.98 88.07 , 125.74 88.07 , 125.49 88.07 , 125.25 88.07 , 125.00 88.07 , 124.75 88.07 , 124.51 88.07 , 124.26 88.07 , 124.01 88.07 , 123.77 88.07 , 123.52 88.07 , 123.27 88.07 , 123.03 88.07 , 122.78 88.07 , 122.54 88.07 , 122.29 88.07 , 122.04 88.07 , 121.80 88.07 , 121.55 88.07 , 121.30 88.07 , 121.06 88.07 , 120.81 88.07 , 120.57 88.07 , 120.32 88.07 , 120.07 88.07 , 119.83 88.07 , 119.58 88.07 , 119.33 88.07 , 119.09 88.07 , 118.84 88.07 , 118.60 88.07 , 118.35 88.07 , 118.10 88.07 , 117.86 88.07 , 117.61 88.07 , 117.36 88.07 , 117.12 88.07 , 116.87 88.07 , 116.63 88.07 , 116.38 88.07 , 116.13 88.07 , 115.89 88.07 , 115.64 88.07 , 115.39 88.07 , 115.15 88.07 , 114.90 88.07 , 114.66 88.07 , 114.41 88.07 , 114.16 88.07 , 113.92 88.07 , 113.67 88.07 , 113.42 88.07 , 113.18 88.07 , 112.93 88.07 , 112.69 88.07 , 112.44 88.07 , 112.19 88.07 , 111.95 88.07 , 111.70 88.07 , 111.45 88.07 , 111.21 88.07 , 110.96 88.07 , 110.72 88.07 , 110.47 88.07 , 110.22 88.07 , 109.98 88.07 , 109.73 88.07 , 109.48 88.07 , 109.24 88.07 , 108.99 88.07 , 108.74 88.07 , 108.50 88.07 , 108.25 88.07 , 108.01 88.07 , 107.76 88.07 , 107.51 88.07 , 107.27 88.07 , 107.02 88.07 , 106.77 88.07 , 106.53 88.07 , 106.28 88.07 , 106.04 88.07 , 105.79 88.07 , 105.54 88.07 , 105.30 88.07 , 105.05 88.07 , 104.80 88.07 , 104.56 88.07 , 104.31 88.07 , 104.07 88.07 , 103.82 88.07 , 103.57 88.07 , 103.33 88.07 , 103.08 88.07 , 102.83 88.07 , 102.59 88.07 , 102.34 88.07 , 102.10 88.07 , 101.85 88.07 , 101.60 88.07 , 101.36 88.07 , 101.11 88.07 , 100.86 88.07 , 100.62 88.07 , 100.37 88.07 , 100.13 88.07 , 99.88 88.07 , 99.63 88.07 , 99.39 88.07 , 99.14 88.07 , 98.89 88.07 , 98.65 88.07 , 98.40 88.07 , 98.16 88.07 , 97.91 88.07 , 97.66 88.07 , 97.42 88.07 , 97.17 88.07 , 96.92 88.07 , 96.68 88.07 , 96.43 88.07 , 96.18 88.07 , 95.94 88.07 , 95.69 88.07 , 95.45 88.07 , 95.20 88.07 , 94.95 88.07 , 94.71 88.07 , 94.46 88.07 , 94.21 88.07 , 93.97 88.07 , 93.72 88.07 , 93.48 88.07 , 93.23 88.07 , 92.98 88.07 , 92.74 88.07 , 92.49 88.07 , 92.24 88.07 , 92.00 88.07 , 91.75 88.07 , 91.51 88.07 , 91.26 88.07 , 91.01 88.07 , 90.77 88.07 , 90.52 88.07 , 90.27 88.07 , 90.03 88.07 , 89.78 88.07 , 89.54 88.07 , 89.29 88.07 , 89.04 88.07 , 88.80 88.07 , 88.55 88.07 , 88.30 88.07 , 88.06 88.07 , 87.81 88.07 , 87.57 88.07 , 87.32 88.07 , 87.07 88.07 , 86.83 88.07 , 86.58 88.07 , 86.33 88.07 , 86.09 88.07 , 85.84 88.07 , 85.60 88.07 , 85.35 88.07 , 85.10 88.07 , 84.86 88.07 , 84.61 88.07 , 84.36 88.07 , 84.12 88.07 , 83.87 88.07 , 83.63 88.07 , 83.38 88.07 , 83.13 88.07 , 82.89 88.07 , 82.64 88.07 , 82.39 88.07 , 82.15 88.07 , 81.90 88.07 , 81.65 88.07 , 81.41 88.07 , 81.16 88.07 , 80.92 88.07 , 80.67 88.07 , 80.42 88.07 , 80.18 88.07 , 79.93 88.07 , 79.68 88.07 , 79.44 88.07 , 79.19 88.07 , 78.95 88.07 , 78.70 88.07 , 78.45 88.07 , 78.21 88.07 , 77.96 88.07 , 77.71 88.07 , 77.47 88.07 , 77.22 88.07 , 76.98 88.07 , 76.73 88.07 , 76.48 88.07 , 76.24 88.07 , 75.99 88.07 , 75.74 88.07 , 75.50 88.07 , 75.25 88.07 , 75.01 88.07 , 74.76 88.07 , 74.51 88.07 , 74.27 88.07 , 74.02 88.07 , 73.77 88.07 , 73.53 88.07 , 73.28 88.07 , 73.04 88.07 , 72.79 88.07 , 72.54 88.07 , 72.30 88.07 , 72.05 88.07 , 71.80 88.07 , 71.56 88.07 , 71.31 88.07 , 71.07 88.07 , 70.82 88.07 , 70.57 88.07 , 70.33 88.07 , 70.08 88.07 , 69.83 88.07 , 69.59 88.07 , 69.34 88.07 , 69.09 88.07 , 68.85 88.07 , 68.60 88.07 , 68.36 88.07 , 68.11 88.07 , 67.86 88.07 , 67.62 88.07 , 67.37 88.07 , 67.12 88.07 , 66.88 88.07 , 66.63 88.07 , 66.39 88.07 , 66.14 88.07 , 65.89 88.07 , 65.65 88.07 , 65.40 88.07 , 65.15 88.07 , 64.91 88.07 , 64.66 88.07 , 64.42 88.07 , 64.17 88.07 , 63.92 88.07 , 63.68 87.82 , 63.68 87.82 , 63.92 87.82 , 64.17 87.83 , 64.42 87.84 , 64.66 87.86 , 64.91 87.88 , 65.15 87.90 , 65.40 87.92 , 65.65 87.93 , 65.89 87.94 , 66.14 87.95 , 66.39 87.96 , 66.63 87.96 , 66.88 87.97 , 67.12 87.97 , 67.37 87.97 , 67.62 87.96 , 67.86 87.96 , 68.11 87.96 , 68.36 87.96 , 68.60 87.96 , 68.85 87.95 , 69.09 87.95 , 69.34 87.95 , 69.59 87.95 , 69.83 87.95 , 70.08 87.94 , 70.33 87.94 , 70.57 87.94 , 70.82 87.94 , 71.07 87.94 , 71.31 87.93 , 71.56 87.93 , 71.80 87.93 , 72.05 87.92 , 72.30 87.92 , 72.54 87.91 , 72.79 87.91 , 73.04 87.91 , 73.28 87.90 , 73.53 87.90 , 73.77 87.90 , 74.02 87.90 , 74.27 87.90 , 74.51 87.89 , 74.76 87.89 , 75.01 87.89 , 75.25 87.89 , 75.50 87.90 , 75.74 87.90 , 75.99 87.90 , 76.24 87.90 , 76.48 87.90 , 76.73 87.90 , 76.98 87.90 , 77.22 87.90 , 77.47 87.90 , 77.71 87.90 , 77.96 87.90 , 78.21 87.90 , 78.45 87.90 , 78.70 87.89 , 78.95 87.89 , 79.19 87.89 , 79.44 87.88 , 79.68 87.88 , 79.93 87.88 , 80.18 87.88 , 80.42 87.88 , 80.67 87.88 , 80.92 87.88 , 81.16 87.88 , 81.41 87.89 , 81.65 87.89 , 81.90 87.90 , 82.15 87.91 , 82.39 87.91 , 82.64 87.92 , 82.89 87.92 , 83.13 87.93 , 83.38 87.93 , 83.63 87.93 , 83.87 87.93 , 84.12 87.93 , 84.36 87.92 , 84.61 87.92 , 84.86 87.91 , 85.10 87.91 , 85.35 87.90 , 85.60 87.89 , 85.84 87.89 , 86.09 87.88 , 86.33 87.87 , 86.58 87.87 , 86.83 87.87 , 87.07 87.86 , 87.32 87.86 , 87.57 87.86 , 87.81 87.85 , 88.06 87.85 , 88.30 87.84 , 88.55 87.83 , 88.80 87.83 , 89.04 87.81 , 89.29 87.80 , 89.54 87.79 , 89.78 87.78 , 90.03 87.77 , 90.27 87.76 , 90.52 87.76 , 90.77 87.75 , 91.01 87.75 , 91.26 87.75 , 91.51 87.75 , 91.75 87.75 , 92.00 87.75 , 92.24 87.75 , 92.49 87.75 , 92.74 87.75 , 92.98 87.76 , 93.23 87.76 , 93.48 87.76 , 93.72 87.77 , 93.97 87.77 , 94.21 87.78 , 94.46 87.78 , 94.71 87.78 , 94.95 87.79 , 95.20 87.79 , 95.45 87.79 , 95.69 87.79 , 95.94 87.79 , 96.18 87.78 , 96.43 87.78 , 96.68 87.78 , 96.92 87.77 , 97.17 87.77 , 97.42 87.77 , 97.66 87.76 , 97.91 87.76 , 98.16 87.76 , 98.40 87.75 , 98.65 87.74 , 98.89 87.74 , 99.14 87.73 , 99.39 87.72 , 99.63 87.71 , 99.88 87.70 , 100.13 87.69 , 100.37 87.68 , 100.62 87.67 , 100.86 87.66 , 101.11 87.65 , 101.36 87.64 , 101.60 87.63 , 101.85 87.62 , 102.10 87.61 , 102.34 87.60 , 102.59 87.59 , 102.83 87.57 , 103.08 87.56 , 103.33 87.54 , 103.57 87.52 , 103.82 87.50 , 104.07 87.47 , 104.31 87.45 , 104.56 87.43 , 104.80 87.42 , 105.05 87.40 , 105.30 87.39 , 105.54 87.39 , 105.79 87.38 , 106.04 87.38 , 106.28 87.39 , 106.53 87.39 , 106.77 87.39 , 107.02 87.40 , 107.27 87.40 , 107.51 87.40 , 107.76 87.39 , 108.01 87.38 , 108.25 87.37 , 108.50 87.36 , 108.74 87.34 , 108.99 87.33 , 109.24 87.31 , 109.48 87.30 , 109.73 87.29 , 109.98 87.28 , 110.22 87.27 , 110.47 87.27 , 110.72 87.26 , 110.96 87.25 , 111.21 87.25 , 111.45 87.24 , 111.70 87.23 , 111.95 87.22 , 112.19 87.21 , 112.44 87.20 , 112.69 87.20 , 112.93 87.19 , 113.18 87.18 , 113.42 87.18 , 113.67 87.17 , 113.92 87.16 , 114.16 87.14 , 114.41 87.13 , 114.66 87.11 , 114.90 87.09 , 115.15 87.06 , 115.39 87.03 , 115.64 87.00 , 115.89 86.97 , 116.13 86.95 , 116.38 86.92 , 116.63 86.90 , 116.87 86.88 , 117.12 86.87 , 117.36 86.86 , 117.61 86.86 , 117.86 86.86 , 118.10 86.85 , 118.35 86.85 , 118.60 86.85 , 118.84 86.85 , 119.09 86.85 , 119.33 86.85 , 119.58 86.85 , 119.83 86.84 , 120.07 86.84 , 120.32 86.83 , 120.57 86.82 , 120.81 86.81 , 121.06 86.80 , 121.30 86.78 , 121.55 86.76 , 121.80 86.74 , 122.04 86.71 , 122.29 86.68 , 122.54 86.65 , 122.78 86.62 , 123.03 86.59 , 123.27 86.55 , 123.52 86.52 , 123.77 86.50 , 124.01 86.47 , 124.26 86.44 , 124.51 86.42 , 124.75 86.39 , 125.00 86.36 , 125.25 86.33 , 125.49 86.31 , 125.74 86.28 , 125.98 86.25 , 126.23 86.23 , 126.48 86.21 , 126.72 86.19 , 126.97 86.18 , 127.22 86.17 , 127.46 86.16 , 127.71 86.16 , 127.95 86.16 , 128.20 86.15 , 128.45 86.15 , 128.69 86.14 , 128.94 86.13 , 129.19 86.11 , 129.43 86.09 , 129.68 86.06 , 129.92 86.03 , 130.17 85.99 , 130.42 85.95 , 130.66 85.91 , 130.91 85.87 , 131.16 85.83 , 131.40 85.79 , 131.65 85.76 , 131.89 85.73 , 132.14 85.70 , 132.39 85.67 , 132.63 85.64 , 132.88 85.62 , 133.13 85.59 , 133.37 85.57 , 133.62 85.54 , 133.86 85.51 , 134.11 85.48 , 134.36 85.44 , 134.60 85.41 , 134.85 85.38 , 135.10 85.34 , 135.34 85.31 , 135.59 85.27 , 135.83 85.23 , 136.08 85.19 , 136.33 85.15 , 136.57 85.10 , 136.82 85.04 , 137.07 84.98 , 137.31 84.92 , 137.56 84.85 , 137.81 84.78 , 138.05 84.70 , 138.30 84.63 , 138.54 84.55 , 138.79 84.48 , 139.04 84.41 , 139.28 84.34 , 139.53 84.28 , 139.78 84.23 , 140.02 84.18 , 140.27 84.14 , 140.51 84.10 , 140.76 84.07 , 141.01 84.03 , 141.25 84.00 , 141.50 83.97 , 141.75 83.93 , 141.99 83.88 , 142.24 83.83 , 142.48 83.78 , 142.73 83.71 , 142.98 83.64 , 143.22 83.55 , 143.47 83.46 , 143.72 83.36 , 143.96 83.25 , 144.21 83.13 , 144.45 83.01 , 144.70 82.89 , 144.95 82.75 , 145.19 82.62 , 145.44 82.48 , 145.69 82.35 , 145.93 82.21 , 146.18 82.07 , 146.42 81.93 , 146.67 81.80 , 146.92 81.66 , 147.16 81.53 , 147.41 81.40 , 147.66 81.26 , 147.90 81.13 , 148.15 81.01 , 148.39 80.88 , 148.64 80.76 , 148.89 80.64 , 149.13 80.52 , 149.38 80.40 , 149.63 80.28 , 149.87 80.16 , 150.12 80.04 , 150.36 79.91 , 150.61 79.78 , 150.86 79.64 , 151.10 79.48 , 151.35 79.32 , 151.60 79.15 , 151.84 78.97 , 152.09 78.78 , 152.34 78.58 , 152.58 78.38 , 152.83 78.18 , 153.07 77.98 , 153.32 77.78 , 153.57 77.58 , 153.81 77.39 , 154.06 77.20 , 154.31 77.02 , 154.55 76.85 , 154.80 76.67 , 155.04 76.50 , 155.29 76.33 , 155.54 76.16 , 155.78 75.98 , 156.03 75.79 , 156.28 75.59 , 156.52 75.37 , 156.77 75.13 , 157.01 74.88 , 157.26 74.62 , 157.51 74.34 , 157.75 74.05 , 158.00 73.76 , 158.25 73.48 , 158.49 73.20 , 158.74 72.94 , 158.98 72.69 , 159.23 72.45 , 159.48 72.22 , 159.72 72.00 , 159.97 71.77 , 160.22 71.54 , 160.46 71.29 , 160.71 71.02 , 160.95 70.72 , 161.20 70.40 , 161.45 70.06 , 161.69 69.68 , 161.94 69.29 , 162.19 68.87 , 162.43 68.43 , 162.68 67.98 , 162.92 67.50 , 163.17 67.01 , 163.42 66.50 , 163.66 65.97 , 163.91 65.42 , 164.16 64.86 , 164.40 64.29 , 164.65 63.71 , 164.90 63.13 , 165.14 62.55 , 165.39 61.99 , 165.63 61.43 , 165.88 60.89 , 166.13 60.36 , 166.37 59.84 , 166.62 59.34 , 166.87 58.83 , 167.11 58.31 , 167.36 57.79 , 167.60 57.25 , 167.85 56.69 , 168.10 56.10 , 168.34 55.50 , 168.59 54.88 , 168.84 54.26 , 169.08 53.63 , 169.33 53.02 , 169.57 52.42 , 169.82 51.85 , 170.07 51.33 , 170.31 50.84 , 170.56 50.39 , 170.81 49.99 , 171.05 49.63 , 171.30 49.32 , 171.54 49.05 , 171.79 48.81 , 172.04 48.61 , 172.28 48.45 , 172.53 48.33 , 172.78 48.25 , 173.02 48.23 , 173.27 48.27 , 173.51 48.38 , 173.76 48.56 , 174.01 48.84 , 174.25 49.22 , 174.50 49.70 , 174.75 50.29 , 174.99 50.99 , 175.24 51.80 , 175.48 52.71 , 175.73 53.72 , 175.98 54.82 , 176.22 56.00 , 176.47 57.23 , 176.72 58.52 , 176.96 59.84 , 177.21 61.19 , 177.45 62.54 , 177.70 63.90 , 177.95 65.25 , 178.19 66.57 , 178.44 67.85 , 178.69 69.09 , 178.93 70.27 , 179.18 71.37 , 179.43 72.39 , 179.67 73.34 , 179.92 74.19 , 180.16 74.96 , 180.41 75.65 , 180.66 76.26 , 180.90 76.80 , 181.15 77.27 , 181.40 77.69 , 181.64 78.07 , 181.89 78.41 , 182.13 78.72 , 182.38 79.02 , 182.63 79.31 , 182.87 79.60 , 183.12 79.89 , 183.37 80.18 , 183.61 80.49 , 183.86 80.80 , 184.10 81.13 , 184.35 81.47 , 184.60 81.83 , 184.84 82.20 , 185.09 82.57 , 185.34 82.96 , 185.58 83.35 , 185.83 83.74 , 186.07 84.12 , 186.32 84.50 , 186.57 84.87 , 186.81 85.22 , 187.06 85.55 , 187.31 85.86 , 187.55 86.16 , 187.80 86.43 , 188.04 86.68 , 188.29 86.91 , 188.54 87.11 , 188.78 87.29 , 189.03 87.45 , 189.28 87.58 , 189.52 88.07 , 189.52 " style="stroke-width:1;stroke:#A6CEE3;fill:#A6CEE3;stroke-opacity:1.000000;fill-opacity:0.000000" />
<polygon points="88.07 , 190.14 88.07 , 189.89 88.07 , 189.64 88.07 , 189.39 88.07 , 189.15 88.07 , 188.90 88.07 , 188.65 88.07 , 188.40 88.07 , 188.16 88.07 , 187.91 88.07 , 187.66 88.07 , 187.41 88.07 , 187.17 88.07 , 186.92 88.07 , 186.67 88.07 , 186.42 88.07 , 186.18 88.07 , 185.93 88.07 , 185.68 88.07 , 185.43 88.07 , 185.19 88.07 , 184.94 88.07 , 184.69 88.07 , 184.45 88.07 , 184.20 88.07 , 183.95 88.07 , 183.70 88.07 , 183.46 88.07 , 183.21 88.07 , 182.96 88.07 , 182.71 88.07 , 182.47 88.07 , 182.22 88.07 , 181.97 88.07 , 181.72 88.07 , 181.48 88.07 , 181.23 88.07 , 180.98 88.07 , 180.73 88.07 , 180.49 88.07 , 180.24 88.07 , 179.99 88.07 , 179.74 88.07 , 179.50 88.07 , 179.25 88.07 , 179.00 88.07 , 178.75 88.07 , 178.51 88.07 , 178.26 88.07 , 178.01 88.07 , 177.76 88.07 , 177.52 88.07 , 177.27 88.07 , 177.02 88.07 , 176.77 88.07 , 176.53 88.07 , 176.28 88.07 , 176.03 88.07 , 175.78 88.07 , 175.54 88.07 , 175.29 88.07 , 175.04 88.07 , 174.79 88.07 , 174.55 88.07 , 174.30 88.07 , 174.05 88.07 , 173.80 88.07 , 173.56 88.07 , 173.31 88.07 , 173.06 88.07 , 172.81 88.07 , 172.57 88.07 , 172.32 88.07 , 172.07 88.07 , 171.82 88.07 , 171.58 88.07 , 171.33 88.07 , 171.08 88.07 , 170.83 88.07 , 170.59 88.07 , 170.34 88.07 , 170.09 88.07 , 169.84 88.07 , 169.60 88.07 , 169.35 88.07 , 169.10 88.07 , 168.85 88.07 , 168.61 88.07 , 168.36 88.07 , 168.11 88.07 , 167.86 88.07 , 167.62 88.07 , 167.37 88.07 , 167.12 88.07 , 166.87 88.07 , 166.63 88.07 , 166.38 88.07 , 166.13 88.07 , 165.88 88.07 , 165.64 88.07 , 165.39 88.07 , 165.14 88.07 , 164.89 88.07 , 164.65 88.07 , 164.40 88.07 , 164.15 88.07 , 163.90 88.07 , 163.66 88.07 , 163.41 88.07 , 163.16 88.07 , 162.91 88.07 , 162.67 88.07 , 162.42 88.07 , 162.17 88.07 , 161.92 88.07 , 161.68 88.07 , 161.43 88.07 , 161.18 88.07 , 160.93 88.07 , 160.69 88.07 , 160.44 88.07 , 160.19 88.07 , 159.94 88.07 , 159.70 88.07 , 159.45 88.07 , 159.20 88.07 , 158.96 88.07 , 158.71 88.07 , 158.46 88.07 , 158.21 88.07 , 157.97 88.07 , 157.72 88.07 , 157.47 88.07 , 157.22 88.07 , 156.98 88.07 , 156.73 88.07 , 156.48 88.07 , 156.23 88.07 , 155.99 88.07 , 155.74 88.07 , 155.49 88.07 , 155.24 88.07 , 155.00 88.07 , 154.75 88.07 , 154.50 88.07 , 154.25 88.07 , 154.01 88.07 , 153.76 88.07 , 153.51 88.07 , 153.26 88.07 , 153.02 88.07 , 152.77 88.07 , 152.52 88.07 , 152.27 88.07 , 152.03 88.07 , 151.78 88.07 , 151.53 88.07 , 151.28 88.07 , 151.04 88.07 , 150.79 88.07 , 150.54 88.07 , 150.29 88.07 , 150.05 88.07 , 149.80 88.07 , 149.55 88.07 , 149.30 88.07 , 149.06 88.07 , 148.81 88.07 , 148.56 88.07 , 148.31 88.07 , 148.07 88.07 , 147.82 88.07 , 147.57 88.07 , 147.32 88.07 , 147.08 88.07 , 146.83 88.07 , 146.58 88.07 , 146.33 88.07 , 146.09 88.07 , 145.84 88.07 , 145.59 88.07 , 145.34 88.07 , 145.10 88.07 , 144.85 88.07 , 144.60 88.07 , 144.35 88.07 , 144.11 88.07 , 143.86 88.07 , 143.61 88.07 , 143.36 88.07 , 143.12 88.07 , 142.87 88.07 , 142.62 88.07 , 142.37 88.07 , 142.13 88.07 , 141.88 88.07 , 141.63 88.07 , 141.38 88.07 , 141.14 88.07 , 140.89 88.07 , 140.64 88.07 , 140.39 88.07 , 140.15 88.07 , 139.90 88.07 , 139.65 88.07 , 139.40 88.07 , 139.16 88.07 , 138.91 88.07 , 138.66 88.07 , 138.41 88.07 , 138.17 88.07 , 137.92 88.07 , 137.67 88.07 , 137.42 88.07 , 137.18 88.07 , 136.93 88.07 , 136.68 88.07 , 136.43 88.07 , 136.19 88.07 , 135.94 88.07 , 135.69 88.07 , 135.44 88.07 , 135.20 88.07 , 134.95 88.07 , 134.70 88.07 , 134.46 88.07 , 134.21 88.07 , 133.96 88.07 , 133.71 88.07 , 133.47 88.07 , 133.22 88.07 , 132.97 88.07 , 132.72 88.07 , 132.48 88.07 , 132.23 88.07 , 131.98 88.07 , 131.73 88.07 , 131.49 88.07 , 131.24 88.07 , 130.99 88.07 , 130.74 88.07 , 130.50 88.07 , 130.25 88.07 , 130.00 88.07 , 129.75 88.07 , 129.51 88.07 , 129.26 88.07 , 129.01 88.07 , 128.76 88.07 , 128.52 88.07 , 128.27 88.07 , 128.02 88.07 , 127.77 88.07 , 127.53 88.07 , 127.28 88.07 , 127.03 88.07 , 126.78 88.07 , 126.54 88.07 , 126.29 88.07 , 126.04 88.07 , 125.79 88.07 , 125.55 88.07 , 125.30 88.07 , 125.05 88.07 , 124.80 88.07 , 124.56 88.07 , 124.31 88.07 , 124.06 88.07 , 123.81 88.07 , 123.57 88.07 , 123.32 88.07 , 123.07 88.07 , 122.82 88.07 , 122.58 88.07 , 122.33 88.07 , 122.08 88.07 , 121.83 88.07 , 121.59 88.07 , 121.34 88.07 , 121.09 88.07 , 120.84 88.07 , 120.60 88.07 , 120.35 88.07 , 120.10 88.07 , 119.85 88.07 , 119.61 88.07 , 119.36 88.07 , 119.11 88.07 , 118.86 88.07 , 118.62 88.07 , 118.37 88.07 , 118.12 88.07 , 117.87 88.07 , 117.63 88.07 , 117.38 88.07 , 117.13 88.07 , 116.88 88.07 , 116.64 88.07 , 116.39 88.07 , 116.14 88.07 , 115.89 88.07 , 115.65 88.07 , 115.40 88.07 , 115.15 88.07 , 114.90 88.07 , 114.66 88.07 , 114.41 88.07 , 114.16 88.07 , 113.91 88.07 , 113.67 88.07 , 113.42 88.07 , 113.17 88.07 , 112.92 88.07 , 112.68 88.07 , 112.43 88.07 , 112.18 88.07 , 111.93 88.07 , 111.69 88.07 , 111.44 88.07 , 111.19 88.07 , 110.94 88.07 , 110.70 88.07 , 110.45 88.07 , 110.20 88.07 , 109.95 88.07 , 109.71 88.07 , 109.46 88.07 , 109.21 88.07 , 108.97 88.07 , 108.72 88.07 , 108.47 88.07 , 108.22 88.07 , 107.98 88.07 , 107.73 88.07 , 107.48 88.07 , 107.23 88.07 , 106.99 88.07 , 106.74 88.07 , 106.49 88.07 , 106.24 88.07 , 106.00 88.07 , 105.75 88.07 , 105.50 88.07 , 105.25 88.07 , 105.01 88.07 , 104.76 88.07 , 104.51 88.07 , 104.26 88.07 , 104.02 88.07 , 103.77 88.07 , 103.52 88.07 , 103.27 88.07 , 103.03 88.07 , 102.78 88.07 , 102.53 88.07 , 102.28 88.07 , 102.04 88.07 , 101.79 88.07 , 101.54 88.07 , 101.29 88.07 , 101.05 88.07 , 100.80 88.07 , 100.55 88.07 , 100.30 88.07 , 100.06 88.07 , 99.81 88.07 , 99.56 88.07 , 99.31 88.07 , 99.07 88.07 , 98.82 88.07 , 98.57 88.07 , 98.32 88.07 , 98.08 88.07 , 97.83 88.07 , 97.58 88.07 , 97.33 88.07 , 97.09 88.07 , 96.84 88.07 , 96.59 88.07 , 96.34 88.07 , 96.10 88.07 , 95.85 88.07 , 95.60 88.07 , 95.35 88.07 , 95.11 88.07 , 94.86 88.07 , 94.61 88.07 , 94.36 88.07 , 94.12 88.07 , 93.87 88.07 , 93.62 88.07 , 93.37 88.07 , 93.13 88.07 , 92.88 88.07 , 92.63 88.07 , 92.38 88.07 , 92.14 88.07 , 91.89 88.07 , 91.64 88.07 , 91.39 88.07 , 91.15 88.07 , 90.90 88.07 , 90.65 88.07 , 90.40 88.07 , 90.16 88.07 , 89.91 88.07 , 89.66 88.07 , 89.41 88.07 , 89.17 88.07 , 88.92 88.07 , 88.67 88.07 , 88.42 88.07 , 88.18 88.07 , 87.93 88.07 , 87.68 88.07 , 87.43 88.07 , 87.19 88.07 , 86.94 88.07 , 86.69 88.07 , 86.44 88.07 , 86.20 88.07 , 85.95 88.07 , 85.70 88.07 , 85.45 88.07 , 85.21 88.07 , 84.96 88.07 , 84.71 88.07 , 84.46 88.07 , 84.22 88.07 , 83.97 88.07 , 83.72 88.07 , 83.48 88.07 , 83.23 88.07 , 82.98 88.07 , 82.73 88.07 , 82.49 88.07 , 82.24 88.07 , 81.99 88.07 , 81.74 88.07 , 81.50 88.07 , 81.25 88.07 , 81.00 88.07 , 80.75 88.07 , 80.51 88.07 , 80.26 88.07 , 80.01 88.07 , 79.76 88.07 , 79.52 88.07 , 79.27 88.07 , 79.02 88.07 , 78.77 88.07 , 78.53 88.07 , 78.28 88.07 , 78.03 88.07 , 77.78 88.07 , 77.54 88.07 , 77.29 88.07 , 77.04 88.07 , 76.79 88.07 , 76.55 88.07 , 76.30 88.07 , 76.05 88.07 , 75.80 88.07 , 75.56 88.07 , 75.31 88.07 , 75.06 88.07 , 74.81 88.07 , 74.57 88.07 , 74.32 88.07 , 74.07 88.07 , 73.82 88.07 , 73.58 88.07 , 73.33 88.07 , 73.08 88.07 , 72.83 88.07 , 72.59 88.07 , 72.34 88.07 , 72.09 88.07 , 71.84 88.07 , 71.60 88.07 , 71.35 88.07 , 71.10 88.07 , 70.85 88.07 , 70.61 88.07 , 70.36 88.07 , 70.11 88.07 , 69.86 88.07 , 69.62 88.07 , 69.37 88.07 , 69.12 88.07 , 68.87 88.07 , 68.63 88.07 , 68.38 88.07 , 68.13 88.07 , 67.88 88.07 , 67.64 88.07 , 67.39 88.07 , 67.14 88.07 , 66.89 88.07 , 66.65 88.07 , 66.40 88.07 , 66.15 88.07 , 65.90 88.07 , 65.66 88.07 , 65.41 88.07 , 65.16 88.07 , 64.91 88.07 , 64.67 88.07 , 64.42 88.07 , 64.17 88.07 , 63.92 88.07 , 63.68 88.87 , 63.68 88.87 , 63.92 88.85 , 64.17 88.82 , 64.42 88.77 , 64.67 88.72 , 64.91 88.66 , 65.16 88.60 , 65.41 88.54 , 65.66 88.48 , 65.90 88.43 , 66.15 88.39 , 66.40 88.36 , 66.65 88.33 , 66.89 88.31 , 67.14 88.30 , 67.39 88.29 , 67.64 88.29 , 67.88 88.29 , 68.13 88.29 , 68.38 88.29 , 68.63 88.30 , 68.87 88.30 , 69.12 88.31 , 69.37 88.31 , 69.62 88.32 , 69.86 88.32 , 70.11 88.32 , 70.36 88.32 , 70.61 88.32 , 70.85 88.32 , 71.10 88.31 , 71.35 88.31 , 71.60 88.30 , 71.84 88.30 , 72.09 88.29 , 72.34 88.29 , 72.59 88.28 , 72.83 88.28 , 73.08 88.27 , 73.33 88.26 , 73.58 88.25 , 73.82 88.25 , 74.07 88.24 , 74.32 88.24 , 74.57 88.23 , 74.81 88.23 , 75.06 88.23 , 75.31 88.23 , 75.56 88.23 , 75.80 88.23 , 76.05 88.23 , 76.30 88.24 , 76.55 88.24 , 76.79 88.25 , 77.04 88.26 , 77.29 88.26 , 77.54 88.27 , 77.78 88.28 , 78.03 88.29 , 78.28 88.29 , 78.53 88.30 , 78.77 88.30 , 79.02 88.31 , 79.27 88.31 , 79.52 88.31 , 79.76 88.31 , 80.01 88.32 , 80.26 88.32 , 80.51 88.32 , 80.75 88.32 , 81.00 88.32 , 81.25 88.32 , 81.50 88.33 , 81.74 88.33 , 81.99 88.33 , 82.24 88.33 , 82.49 88.33 , 82.73 88.33 , 82.98 88.33 , 83.23 88.33 , 83.48 88.34 , 83.72 88.34 , 83.97 88.34 , 84.22 88.34 , 84.46 88.35 , 84.71 88.35 , 84.96 88.35 , 85.21 88.36 , 85.45 88.36 , 85.70 88.36 , 85.95 88.37 , 86.20 88.37 , 86.44 88.37 , 86.69 88.37 , 86.94 88.38 , 87.19 88.38 , 87.43 88.38 , 87.68 88.39 , 87.93 88.39 , 88.18 88.40 , 88.42 88.40 , 88.67 88.40 , 88.92 88.41 , 89.17 88.41 , 89.41 88.41 , 89.66 88.42 , 89.91 88.42 , 90.16 88.42 , 90.40 88.43 , 90.65 88.43 , 90.90 88.43 , 91.15 88.44 , 91.39 88.44 , 91.64 88.45 , 91.89 88.45 , 92.14 88.46 , 92.38 88.46 , 92.63 88.47 , 92.88 88.47 , 93.13 88.47 , 93.37 88.48 , 93.62 88.48 , 93.87 88.48 , 94.12 88.49 , 94.36 88.49 , 94.61 88.49 , 94.86 88.50 , 95.11 88.51 , 95.35 88.52 , 95.60 88.53 , 95.85 88.54 , 96.10 88.56 , 96.34 88.57 , 96.59 88.59 , 96.84 88.61 , 97.09 88.63 , 97.33 88.65 , 97.58 88.67 , 97.83 88.69 , 98.08 88.71 , 98.32 88.73 , 98.57 88.75 , 98.82 88.76 , 99.07 88.78 , 99.31 88.79 , 99.56 88.81 , 99.81 88.81 , 100.06 88.82 , 100.30 88.83 , 100.55 88.83 , 100.80 88.83 , 101.05 88.83 , 101.29 88.82 , 101.54 88.82 , 101.79 88.81 , 102.04 88.81 , 102.28 88.80 , 102.53 88.79 , 102.78 88.79 , 103.03 88.79 , 103.27 88.79 , 103.52 88.79 , 103.77 88.79 , 104.02 88.80 , 104.26 88.81 , 104.51 88.82 , 104.76 88.84 , 105.01 88.85 , 105.25 88.87 , 105.50 88.88 , 105.75 88.90 , 106.00 88.92 , 106.24 88.93 , 106.49 88.95 , 106.74 88.96 , 106.99 88.98 , 107.23 88.99 , 107.48 88.99 , 107.73 89.00 , 107.98 89.01 , 108.22 89.01 , 108.47 89.01 , 108.72 89.01 , 108.97 89.02 , 109.21 89.02 , 109.46 89.02 , 109.71 89.03 , 109.95 89.03 , 110.20 89.04 , 110.45 89.05 , 110.70 89.06 , 110.94 89.07 , 111.19 89.09 , 111.44 89.10 , 111.69 89.12 , 111.93 89.14 , 112.18 89.16 , 112.43 89.18 , 112.68 89.20 , 112.92 89.22 , 113.17 89.24 , 113.42 89.25 , 113.67 89.27 , 113.91 89.28 , 114.16 89.30 , 114.41 89.31 , 114.66 89.33 , 114.90 89.35 , 115.15 89.36 , 115.40 89.38 , 115.65 89.39 , 115.89 89.41 , 116.14 89.42 , 116.39 89.44 , 116.64 89.45 , 116.88 89.46 , 117.13 89.47 , 117.38 89.48 , 117.63 89.48 , 117.87 89.49 , 118.12 89.50 , 118.37 89.50 , 118.62 89.51 , 118.86 89.52 , 119.11 89.54 , 119.36 89.55 , 119.61 89.57 , 119.85 89.58 , 120.10 89.60 , 120.35 89.63 , 120.60 89.65 , 120.84 89.68 , 121.09 89.70 , 121.34 89.73 , 121.59 89.76 , 121.83 89.80 , 122.08 89.83 , 122.33 89.86 , 122.58 89.90 , 122.82 89.93 , 123.07 89.97 , 123.32 90.00 , 123.57 90.03 , 123.81 90.06 , 124.06 90.08 , 124.31 90.10 , 124.56 90.12 , 124.80 90.13 , 125.05 90.14 , 125.30 90.14 , 125.55 90.13 , 125.79 90.13 , 126.04 90.12 , 126.29 90.11 , 126.54 90.10 , 126.78 90.10 , 127.03 90.09 , 127.28 90.09 , 127.53 90.10 , 127.77 90.11 , 128.02 90.13 , 128.27 90.15 , 128.52 90.17 , 128.76 90.19 , 129.01 90.22 , 129.26 90.25 , 129.51 90.28 , 129.75 90.32 , 130.00 90.35 , 130.25 90.39 , 130.50 90.43 , 130.74 90.47 , 130.99 90.52 , 131.24 90.56 , 131.49 90.61 , 131.73 90.66 , 131.98 90.71 , 132.23 90.76 , 132.48 90.82 , 132.72 90.87 , 132.97 90.92 , 133.22 90.97 , 133.47 91.02 , 133.71 91.07 , 133.96 91.12 , 134.21 91.17 , 134.46 91.22 , 134.70 91.27 , 134.95 91.32 , 135.20 91.37 , 135.44 91.42 , 135.69 91.46 , 135.94 91.51 , 136.19 91.55 , 136.43 91.59 , 136.68 91.63 , 136.93 91.67 , 137.18 91.71 , 137.42 91.76 , 137.67 91.80 , 137.92 91.84 , 138.17 91.89 , 138.41 91.94 , 138.66 91.99 , 138.91 92.05 , 139.16 92.10 , 139.40 92.16 , 139.65 92.23 , 139.90 92.29 , 140.15 92.36 , 140.39 92.43 , 140.64 92.50 , 140.89 92.57 , 141.14 92.64 , 141.38 92.71 , 141.63 92.78 , 141.88 92.85 , 142.13 92.92 , 142.37 92.99 , 142.62 93.07 , 142.87 93.14 , 143.12 93.22 , 143.36 93.30 , 143.61 93.38 , 143.86 93.46 , 144.11 93.55 , 144.35 93.64 , 144.60 93.73 , 144.85 93.83 , 145.10 93.93 , 145.34 94.03 , 145.59 94.14 , 145.84 94.25 , 146.09 94.37 , 146.33 94.48 , 146.58 94.60 , 146.83 94.72 , 147.08 94.85 , 147.32 94.97 , 147.57 95.09 , 147.82 95.21 , 148.07 95.34 , 148.31 95.47 , 148.56 95.60 , 148.81 95.74 , 149.06 95.88 , 149.30 96.04 , 149.55 96.19 , 149.80 96.36 , 150.05 96.53 , 150.29 96.71 , 150.54 96.89 , 150.79 97.06 , 151.04 97.24 , 151.28 97.41 , 151.53 97.58 , 151.78 97.74 , 152.03 97.89 , 152.27 98.03 , 152.52 98.16 , 152.77 98.28 , 153.02 98.39 , 153.26 98.50 , 153.51 98.61 , 153.76 98.71 , 154.01 98.82 , 154.25 98.94 , 154.50 99.07 , 154.75 99.22 , 155.00 99.38 , 155.24 99.55 , 155.49 99.74 , 155.74 99.95 , 155.99 100.16 , 156.23 100.39 , 156.48 100.62 , 156.73 100.85 , 156.98 101.09 , 157.22 101.33 , 157.47 101.58 , 157.72 101.82 , 157.97 102.07 , 158.21 102.32 , 158.46 102.57 , 158.71 102.84 , 158.96 103.11 , 159.20 103.40 , 159.45 103.69 , 159.70 104.01 , 159.94 104.34 , 160.19 104.69 , 160.44 105.06 , 160.69 105.44 , 160.93 105.84 , 161.18 106.24 , 161.43 106.66 , 161.68 107.07 , 161.92 107.49 , 162.17 107.90 , 162.42 108.31 , 162.67 108.71 , 162.91 109.11 , 163.16 109.50 , 163.41 109.89 , 163.66 110.29 , 163.90 110.69 , 164.15 111.10 , 164.40 111.53 , 164.65 111.98 , 164.89 112.44 , 165.14 112.91 , 165.39 113.41 , 165.64 113.91 , 165.88 114.43 , 166.13 114.96 , 166.38 115.49 , 166.63 116.01 , 166.87 116.53 , 167.12 117.04 , 167.37 117.54 , 167.62 118.02 , 167.86 118.49 , 168.11 118.94 , 168.36 119.38 , 168.61 119.81 , 168.85 120.23 , 169.10 120.64 , 169.35 121.05 , 169.60 121.45 , 169.84 121.84 , 170.09 122.22 , 170.34 122.58 , 170.59 122.93 , 170.83 123.25 , 171.08 123.53 , 171.33 123.78 , 171.58 123.99 , 171.82 124.15 , 172.07 124.26 , 172.32 124.33 , 172.57 124.34 , 172.81 124.31 , 173.06 124.22 , 173.31 124.09 , 173.56 123.90 , 173.80 123.65 , 174.05 123.33 , 174.30 122.96 , 174.55 122.52 , 174.79 122.02 , 175.04 121.44 , 175.29 120.80 , 175.54 120.09 , 175.78 119.31 , 176.03 118.47 , 176.28 117.57 , 176.53 116.62 , 176.77 115.61 , 177.02 114.56 , 177.27 113.47 , 177.52 112.36 , 177.76 111.22 , 178.01 110.07 , 178.26 108.92 , 178.51 107.78 , 178.75 106.66 , 179.00 105.56 , 179.25 104.51 , 179.50 103.52 , 179.74 102.58 , 179.99 101.72 , 180.24 100.92 , 180.49 100.20 , 180.73 99.54 , 180.98 98.96 , 181.23 98.44 , 181.48 97.99 , 181.72 97.58 , 181.97 97.22 , 182.22 96.91 , 182.47 96.62 , 182.71 96.35 , 182.96 96.11 , 183.21 95.87 , 183.46 95.64 , 183.70 95.42 , 183.95 95.19 , 184.20 94.97 , 184.45 94.75 , 184.69 94.53 , 184.94 94.30 , 185.19 94.07 , 185.43 93.84 , 185.68 93.61 , 185.93 93.37 , 186.18 93.12 , 186.42 92.87 , 186.67 92.61 , 186.92 92.35 , 187.17 92.08 , 187.41 91.80 , 187.66 91.52 , 187.91 91.23 , 188.16 90.95 , 188.40 90.66 , 188.65 90.39 , 188.90 90.12 , 189.15 89.86 , 189.39 89.61 , 189.64 89.39 , 189.89 89.18 , 190.14 88.07 , 190.14 " style="stroke-width:1;stroke:#1F78B4;fill:#1F78B4;stroke-opacity:1.000000;fill-opacity:0.000000" />
<line x1="34.95" y1="173.99" x2="141.20" y2="173.99" style="stroke-width:1;stroke:#000000;fill:#000000;stroke-opacity:1.000000;fill-opacity:0.000000"/>
<polyline points="177.33 , 180.35 283.58 , 180.35 " style="stroke-width:1;stroke:#BEBEBE;fill:#000000;stroke-opacity:1.000000;fill-opacity:0.000000"/>
<polyline points="177.33 , 169.74 283.58 , 169.74 " style="stroke-width:1;stroke:#BEBEBE;fill:#000000;stroke-opacity:1.000000;fill-opacity:0.000000"/>
<polyline points="177.33 , 159.14 283.58 , 159.14 " style="stroke-width:1;stroke:#BEBEBE;fill:#000000;stroke-opacity:1.000000;fill-opacity:0.000000"/>
<polyline points="177.33 , 137.92 283.58 , 137.92 " style="stroke-width:1;stroke:#BEBEBE;fill:#000000;stroke-opacity:1.000000;fill-opacity:0.000000"/>
<polyline points="177.33 , 127.32 283.58 , 127.32 " style="stroke-width:1;stroke:#BEBEBE;fill:#000000;stroke-opacity:1.000000;fill-opacity:0.000000"/>
<polyline points="177.33 , 116.71 283.58 , 116.71 " style="stroke-width:1;stroke:#BEBEBE;fill:#000000;stroke-opacity:1.000000;fill-opacity:0.000000"/>
<polyline points="177.33 , 95.50 283.58 , 95.50 " style="stroke-width:1;stroke:#BEBEBE;fill:#000000;stroke-opacity:1.000000;fill-opacity:0.000000"/>
<polyline points="177.33 , 84.89 283.58 , 84.89 " style="stroke-width:1;stroke:#BEBEBE;fill:#000000;stroke-opacity:1.000000;fill-opacity:0.000000"/>
<polyline points="177.33 , 74.28 283.58 , 74.28 " style="stroke-width:1;stroke:#BEBEBE;fill:#000000;stroke-opacity:1.000000;fill-opacity:0.000000"/>
<polyline points="177.33 , 190.96 283.58 , 190.96 " style="stroke-width:1;stroke:#BEBEBE;fill:#000000;stroke-opacity:1.000000;fill-opacity:0.000000"/>
<polyline points="177.33 , 148.53 283.58 , 148.53 " style="stroke-width:1;stroke:#BEBEBE;fill:#000000;stroke-opacity:1.000000;fill-opacity:0.000000"/>
<polyline points="177.33 , 106.10 283.58 , 106.10 " style="stroke-width:1;stroke:#BEBEBE;fill:#000000;stroke-opacity:1.000000;fill-opacity:0.000000"/>
<polyline points="177.33 , 63.68 283.58 , 63.68 " style="stroke-width:1;stroke:#BEBEBE;fill:#000000;stroke-opacity:1.000000;fill-opacity:0.000000"/>
<polygon points="230.46 , 189.24 230.46 , 189.00 230.46 , 188.75 230.46 , 188.51 230.46 , 188.26 230.46 , 188.01 230.46 , 187.77 230.46 , 187.52 230.46 , 187.28 230.46 , 187.03 230.46 , 186.79 230.46 , 186.54 230.46 , 186.29 230.46 , 186.05 230.46 , 185.80 230.46 , 185.56 230.46 , 185.31 230.46 , 185.07 230.46 , 184.82 230.46 , 184.57 230.46 , 184.33 230.46 , 184.08 230.46 , 183.84 230.46 , 183.59 230.46 , 183.35 230.46 , 183.10 230.46 , 182.85 230.46 , 182.61 230.46 , 182.36 230.46 , 182.12 230.46 , 181.87 230.46 , 181.62 230.46 , 181.38 230.46 , 181.13 230.46 , 180.89 230.46 , 180.64 230.46 , 180.40 230.46 , 180.15 230.46 , 179.90 230.46 , 179.66 230.46 , 179.41 230.46 , 179.17 230.46 , 178.92 230.46 , 178.68 230.46 , 178.43 230.46 , 178.18 230.46 , 177.94 230.46 , 177.69 230.46 , 177.45 230.46 , 177.20 230.46 , 176.96 230.46 , 176.71 230.46 , 176.46 230.46 , 176.22 230.46 , 175.97 230.46 , 175.73 230.46 , 175.48 230.46 , 175.24 230.46 , 174.99 230.46 , 174.74 230.46 , 174.50 230.46 , 174.25 230.46 , 174.01 230.46 , 173.76 230.46 , 173.52 230.46 , 173.27 230.46 , 173.02 230.46 , 172.78 230.46 , 172.53 230.46 , 172.29 230.46 , 172.04 230.46 , 171.80 230.46 , 171.55 230.46 , 171.30 230.46 , 171.06 230.46 , 170.81 230.46 , 170.57 230.46 , 170.32 230.46 , 170.08 230.46 , 169.83 230.46 , 169.58 230.46 , 169.34 230.46 , 169.09 230.46 , 168.85 230.46 , 168.60 230.46 , 168.36 230.46 , 168.11 230.46 , 167.86 230.46 , 167.62 230.46 , 167.37 230.46 , 167.13 230.46 , 166.88 230.46 , 166.64 230.46 , 166.39 230.46 , 166.14 230.46 , 165.90 230.46 , 165.65 230.46 , 165.41 230.46 , 165.16 230.46 , 164.92 230.46 , 164.67 230.46 , 164.42 230.46 , 164.18 230.46 , 163.93 230.46 , 163.69 230.46 , 163.44 230.46 , 163.20 230.46 , 162.95 230.46 , 162.70 230.46 , 162.46 230.46 , 162.21 230.46 , 161.97 230.46 , 161.72 230.46 , 161.48 230.46 , 161.23 230.46 , 160.98 230.46 , 160.74 230.46 , 160.49 230.46 , 160.25 230.46 , 160.00 230.46 , 159.76 230.46 , 159.51 230.46 , 159.26 230.46 , 159.02 230.46 , 158.77 230.46 , 158.53 230.46 , 158.28 230.46 , 158.04 230.46 , 157.79 230.46 , 157.54 230.46 , 157.30 230.46 , 157.05 230.46 , 156.81 230.46 , 156.56 230.46 , 156.32 230.46 , 156.07 230.46 , 155.82 230.46 , 155.58 230.46 , 155.33 230.46 , 155.09 230.46 , 154.84 230.46 , 154.60 230.46 , 154.35 230.46 , 154.10 230.46 , 153.86 230.46 , 153.61 230.46 , 153.37 230.46 , 153.12 230.46 , 152.88 230.46 , 152.63 230.46 , 152.38 230.46 , 152.14 230.46 , 151.89 230.46 , 151.65 230.46 , 151.40 230.46 , 151.16 230.46 , 150.91 230.46 , 150.66 230.46 , 150.42 230.46 , 150.17 230.46 , 149.93 230.46 , 149.68 230.46 , 149.43 230.46 , 149.19 230.46 , 148.94 230.46 , 148.70 230.46 , 148.45 230.46 , 148.21 230.46 , 147.96 230.46 , 147.71 230.46 , 147.47 230.46 , 147.22 230.46 , 146.98 230.46 , 146.73 230.46 , 146.49 230.46 , 146.24 230.46 , 145.99 230.46 , 145.75 230.46 , 145.50 230.46 , 145.26 230.46 , 145.01 230.46 , 144.77 230.46 , 144.52 230.46 , 144.27 230.46 , 144.03 230.46 , 143.78 230.46 , 143.54 230.46 , 143.29 230.46 , 143.05 230.46 , 142.80 230.46 , 142.55 230.46 , 142.31 230.46 , 142.06 230.46 , 141.82 230.46 , 141.57 230.46 , 141.33 230.46 , 141.08 230.46 , 140.83 230.46 , 140.59 230.46 , 140.34 230.46 , 140.10 230.46 , 139.85 230.46 , 139.61 230.46 , 139.36 230.46 , 139.11 230.46 , 138.87 230.46 , 138.62 230.46 , 138.38 230.46 , 138.13 230.46 , 137.89 230.46 , 137.64 230.46 , 137.39 230.46 , 137.15 230.46 , 136.90 230.46 , 136.66 230.46 , 136.41 230.46 , 136.17 230.46 , 135.92 230.46 , 135.67 230.46 , 135.43 230.46 , 135.18 230.46 , 134.94 230.46 , 134.69 230.46 , 134.45 230.46 , 134.20 230.46 , 133.95 230.46 , 133.71 230.46 , 133.46 230.46 , 133.22 230.46 , 132.97 230.46 , 132.73 230.46 , 132.48 230.46 , 132.23 230.46 , 131.99 230.46 , 131.74 230.46 , 131.50 230.46 , 131.25 230.46 , 131.01 230.46 , 130.76 230.46 , 130.51 230.46 , 130.27 230.46 , 130.02 230.46 , 129.78 230.46 , 129.53 230.46 , 129.29 230.46 , 129.04 230.46 , 128.79 230.46 , 128.55 230.46 , 128.30 230.46 , 128.06 230.46 , 127.81 230.46 , 127.57 230.46 , 127.32 230.46 , 127.07 230.46 , 126.83 230.46 , 126.58 230.46 , 126.34 230.46 , 126.09 230.46 , 125.85 230.46 , 125.60 230.46 , 125.35 230.46 , 125.11 230.46 , 124.86 230.46 , 124.62 230.46 , 124.37 230.46 , 124.13 230.46 , 123.88 230.46 , 123.63 230.46 , 123.39 230.46 , 123.14 230.46 , 122.90 230.46 , 122.65 230.46 , 122.41 230.46 , 122.16 230.46 , 121.91 230.46 , 121.67 230.46 , 121.42 230.46 , 121.18 230.46 , 120.93 230.46 , 120.69 230.46 , 120.44 230.46 , 120.19 230.46 , 119.95 230.46 , 119.70 230.46 , 119.46 230.46 , 119.21 230.46 , 118.97 230.46 , 118.72 230.46 , 118.47 230.46 , 118.23 230.46 , 117.98 230.46 , 117.74 230.46 , 117.49 230.46 , 117.25 230.46 , 117.00 230.46 , 116.75 230.46 , 116.51 230.46 , 116.26 230.46 , 116.02 230.46 , 115.77 230.46 , 115.52 230.46 , 115.28 230.46 , 115.03 230.46 , 114.79 230.46 , 114.54 230.46 , 114.30 230.46 , 114.05 230.46 , 113.80 230.46 , 113.56 230.46 , 113.31 230.46 , 113.07 230.46 , 112.82 230.46 , 112.58 230.46 , 112.33 230.46 , 112.08 230.46 , 111.84 230.46 , 111.59 230.46 , 111.35 230.46 , 111.10 230.46 , 110.86 230.46 , 110.61 230.46 , 110.36 230.46 , 110.12 230.46 , 109.87 230.46 , 109.63 230.46 , 109.38 230.46 , 109.14 230.46 , 108.89 230.46 , 108.64 230.46 , 108.40 230.46 , 108.15 230.46 , 107.91 230.46 , 107.66 230.46 , 107.42 230.46 , 107.17 230.46 , 106.92 230.46 , 106.68 230.46 , 106.43 230.46 , 106.19 230.46 , 105.94 230.46 , 105.70 230.46 , 105.45 230.46 , 105.20 230.46 , 104.96 230.46 , 104.71 230.46 , 104.47 230.46 , 104.22 230.46 , 103.98 230.46 , 103.73 230.46 , 103.48 230.46 , 103.24 230.46 , 102.99 230.46 , 102.75 230.46 , 102.50 230.46 , 102.26 230.46 , 102.01 230.46 , 101.76 230.46 , 101.52 230.46 , 101.27 230.46 , 101.03 230.46 , 100.78 230.46 , 100.54 230.46 , 100.29 230.46 , 100.04 230.46 , 99.80 230.46 , 99.55 230.46 , 99.31 230.46 , 99.06 230.46 , 98.82 230.46 , 98.57 230.46 , 98.32 230.46 , 98.08 230.46 , 97.83 230.46 , 97.59 230.46 , 97.34 230.46 , 97.10 230.46 , 96.85 230.46 , 96.60 230.46 , 96.36 230.46 , 96.11 230.46 , 95.87 230.46 , 95.62 230.46 , 95.38 230.46 , 95.13 230.46 , 94.88 230.46 , 94.64 230.46 , 94.39 230.46 , 94.15 230.46 , 93.90 230.46 , 93.66 230.46 , 93.41 230.46 , 93.16 230.46 , 92.92 230.46 , 92.67 230.46 , 92.43 230.46 , 92.18 230.46 , 91.94 230.46 , 91.69 230.46 , 91.44 230.46 , 91.20 230.46 , 90.95 230.46 , 90.71 230.46 , 90.46 230.46 , 90.22 230.46 , 89.97 230.46 , 89.72 230.46 , 89.48 230.46 , 89.23 230.46 , 88.99 230.46 , 88.74 230.46 , 88.50 230.46 , 88.25 230.46 , 88.00 230.46 , 87.76 230.46 , 87.51 230.46 , 87.27 230.46 , 87.02 230.46 , 86.78 230.46 , 86.53 230.46 , 86.28 230.46 , 86.04 230.46 , 85.79 230.46 , 85.55 230.46 , 85.30 230.46 , 85.06 230.46 , 84.81 230.46 , 84.56 230.46 , 84.32 230.46 , 84.07 230.46 , 83.83 230.46 , 83.58 230.46 , 83.33 230.46 , 83.09 230.46 , 82.84 230.46 , 82.60 230.46 , 82.35 230.46 , 82.11 230.46 , 81.86 230.46 , 81.61 230.46 , 81.37 230.46 , 81.12 230.46 , 80.88 230.46 , 80.63 230.46 , 80.39 230.46 , 80.14 230.46 , 79.89 230.46 , 79.65 230.46 , 79.40 230.46 , 79.16 230.46 , 78.91 230.46 , 78.67 230.46 , 78.42 230.46 , 78.17 230.46 , 77.93 230.46 , 77.68 230.46 , 77.44 230.46 , 77.19 230.46 , 76.95 230.46 , 76.70 230.46 , 76.45 230.46 , 76.21 230.46 , 75.96 230.46 , 75.72 230.46 , 75.47 230.46 , 75.23 230.46 , 74.98 230.46 , 74.73 230.46 , 74.49 230.46 , 74.24 230.46 , 74.00 230.46 , 73.75 230.46 , 73.51 230.46 , 73.26 230.46 , 73.01 230.46 , 72.77 230.46 , 72.52 230.46 , 72.28 230.46 , 72.03 230.46 , 71.79 230.46 , 71.54 230.46 , 71.29 230.46 , 71.05 230.46 , 70.80 230.46 , 70.56 230.46 , 70.31 230.46 , 70.07 230.46 , 69.82 230.46 , 69.57 230.46 , 69.33 230.46 , 69.08 230.46 , 68.84 230.46 , 68.59 230.46 , 68.35 230.46 , 68.10 230.46 , 67.85 230.46 , 67.61 230.46 , 67.36 230.46 , 67.12 230.46 , 66.87 230.46 , 66.63 230.46 , 66.38 230.46 , 66.13 230.46 , 65.89 230.46 , 65.64 230.46 , 65.40 230.46 , 65.15 230.46 , 64.91 230.46 , 64.66 230.46 , 64.41 230.46 , 64.17 230.46 , 63.92 230.46 , 63.68 226.26 , 63.68 226.19 , 63.92 226.14 , 64.17 226.12 , 64.41 226.11 , 64.66 226.12 , 64.91 226.16 , 65.15 226.21 , 65.40 226.27 , 65.64 226.35 , 65.89 226.43 , 66.13 226.52 , 66.38 226.62 , 66.63 226.71 , 66.87 226.81 , 67.12 226.90 , 67.36 226.99 , 67.61 227.08 , 67.85 227.16 , 68.10 227.23 , 68.35 227.29 , 68.59 227.34 , 68.84 227.39 , 69.08 227.42 , 69.33 227.45 , 69.57 227.47 , 69.82 227.49 , 70.07 227.50 , 70.31 227.50 , 70.56 227.50 , 70.80 227.49 , 71.05 227.48 , 71.29 227.46 , 71.54 227.45 , 71.79 227.43 , 72.03 227.40 , 72.28 227.38 , 72.52 227.35 , 72.77 227.33 , 73.01 227.30 , 73.26 227.27 , 73.51 227.24 , 73.75 227.21 , 74.00 227.18 , 74.24 227.15 , 74.49 227.12 , 74.73 227.09 , 74.98 227.05 , 75.23 227.02 , 75.47 226.98 , 75.72 226.94 , 75.96 226.90 , 76.21 226.86 , 76.45 226.81 , 76.70 226.76 , 76.95 226.72 , 77.19 226.67 , 77.44 226.62 , 77.68 226.56 , 77.93 226.51 , 78.17 226.45 , 78.42 226.39 , 78.67 226.34 , 78.91 226.28 , 79.16 226.22 , 79.40 226.15 , 79.65 226.09 , 79.89 226.03 , 80.14 225.97 , 80.39 225.91 , 80.63 225.85 , 80.88 225.79 , 81.12 225.72 , 81.37 225.66 , 81.61 225.60 , 81.86 225.54 , 82.11 225.48 , 82.35 225.41 , 82.60 225.35 , 82.84 225.28 , 83.09 225.22 , 83.33 225.15 , 83.58 225.08 , 83.83 225.00 , 84.07 224.93 , 84.32 224.85 , 84.56 224.77 , 84.81 224.69 , 85.06 224.60 , 85.30 224.51 , 85.55 224.42 , 85.79 224.33 , 86.04 224.23 , 86.28 224.13 , 86.53 224.03 , 86.78 223.92 , 87.02 223.81 , 87.27 223.70 , 87.51 223.59 , 87.76 223.48 , 88.00 223.36 , 88.25 223.25 , 88.50 223.13 , 88.74 223.02 , 88.99 222.90 , 89.23 222.79 , 89.48 222.67 , 89.72 222.56 , 89.97 222.44 , 90.22 222.33 , 90.46 222.22 , 90.71 222.11 , 90.95 222.00 , 91.20 221.89 , 91.44 221.78 , 91.69 221.67 , 91.94 221.56 , 92.18 221.46 , 92.43 221.35 , 92.67 221.24 , 92.92 221.14 , 93.16 221.03 , 93.41 220.92 , 93.66 220.81 , 93.90 220.70 , 94.15 220.58 , 94.39 220.46 , 94.64 220.34 , 94.88 220.22 , 95.13 220.09 , 95.38 219.96 , 95.62 219.83 , 95.87 219.69 , 96.11 219.55 , 96.36 219.40 , 96.60 219.26 , 96.85 219.11 , 97.10 218.95 , 97.34 218.80 , 97.59 218.64 , 97.83 218.48 , 98.08 218.32 , 98.32 218.16 , 98.57 218.00 , 98.82 217.84 , 99.06 217.68 , 99.31 217.53 , 99.55 217.37 , 99.80 217.21 , 100.04 217.05 , 100.29 216.89 , 100.54 216.74 , 100.78 216.58 , 101.03 216.42 , 101.27 216.26 , 101.52 216.10 , 101.76 215.94 , 102.01 215.78 , 102.26 215.62 , 102.50 215.45 , 102.75 215.28 , 102.99 215.10 , 103.24 214.93 , 103.48 214.75 , 103.73 214.56 , 103.98 214.37 , 104.22 214.18 , 104.47 213.98 , 104.71 213.78 , 104.96 213.58 , 105.20 213.37 , 105.45 213.16 , 105.70 212.94 , 105.94 212.73 , 106.19 212.51 , 106.43 212.29 , 106.68 212.06 , 106.92 211.84 , 107.17 211.61 , 107.42 211.39 , 107.66 211.16 , 107.91 210.94 , 108.15 210.71 , 108.40 210.49 , 108.64 210.26 , 108.89 210.04 , 109.14 209.82 , 109.38 209.59 , 109.63 209.37 , 109.87 209.15 , 110.12 208.93 , 110.36 208.71 , 110.61 208.48 , 110.86 208.26 , 111.10 208.04 , 111.35 207.81 , 111.59 207.59 , 111.84 207.36 , 112.08 207.13 , 112.33 206.90 , 112.58 206.66 , 112.82 206.43 , 113.07 206.18 , 113.31 205.94 , 113.56 205.69 , 113.80 205.44 , 114.05 205.18 , 114.30 204.93 , 114.54 204.66 , 114.79 204.40 , 115.03 204.13 , 115.28 203.85 , 115.52 203.58 , 115.77 203.29 , 116.02 203.01 , 116.26 202.73 , 116.51 202.44 , 116.75 202.15 , 117.00 201.85 , 117.25 201.56 , 117.49 201.26 , 117.74 200.96 , 117.98 200.67 , 118.23 200.37 , 118.47 200.07 , 118.72 199.77 , 118.97 199.48 , 119.21 199.18 , 119.46 198.89 , 119.70 198.59 , 119.95 198.30 , 120.19 198.01 , 120.44 197.72 , 120.69 197.44 , 120.93 197.15 , 121.18 196.87 , 121.42 196.59 , 121.67 196.32 , 121.91 196.04 , 122.16 195.77 , 122.41 195.50 , 122.65 195.24 , 122.90 194.97 , 123.14 194.72 , 123.39 194.46 , 123.63 194.21 , 123.88 193.97 , 124.13 193.73 , 124.37 193.50 , 124.62 193.28 , 124.86 193.06 , 125.11 192.85 , 125.35 192.65 , 125.60 192.46 , 125.85 192.28 , 126.09 192.11 , 126.34 191.95 , 126.58 191.80 , 126.83 191.65 , 127.07 191.52 , 127.32 191.40 , 127.57 191.28 , 127.81 191.18 , 128.06 191.08 , 128.30 191.00 , 128.55 190.92 , 128.79 190.85 , 129.04 190.79 , 129.29 190.73 , 129.53 190.69 , 129.78 190.66 , 130.02 190.63 , 130.27 190.62 , 130.51 190.61 , 130.76 190.62 , 131.01 190.63 , 131.25 190.66 , 131.50 190.70 , 131.74 190.76 , 131.99 190.82 , 132.23 190.90 , 132.48 190.99 , 132.73 191.09 , 132.97 191.21 , 133.22 191.34 , 133.46 191.48 , 133.71 191.63 , 133.95 191.79 , 134.20 191.96 , 134.45 192.15 , 134.69 192.34 , 134.94 192.55 , 135.18 192.76 , 135.43 192.98 , 135.67 193.21 , 135.92 193.44 , 136.17 193.69 , 136.41 193.94 , 136.66 194.20 , 136.90 194.46 , 137.15 194.73 , 137.39 195.01 , 137.64 195.30 , 137.89 195.59 , 138.13 195.89 , 138.38 196.19 , 138.62 196.50 , 138.87 196.82 , 139.11 197.14 , 139.36 197.47 , 139.61 197.80 , 139.85 198.14 , 140.10 198.48 , 140.34 198.82 , 140.59 199.16 , 140.83 199.50 , 141.08 199.84 , 141.33 200.18 , 141.57 200.52 , 141.82 200.85 , 142.06 201.18 , 142.31 201.50 , 142.55 201.82 , 142.80 202.13 , 143.05 202.43 , 143.29 202.73 , 143.54 203.02 , 143.78 203.30 , 144.03 203.58 , 144.27 203.85 , 144.52 204.11 , 144.77 204.38 , 145.01 204.63 , 145.26 204.88 , 145.50 205.13 , 145.75 205.38 , 145.99 205.62 , 146.24 205.86 , 146.49 206.10 , 146.73 206.34 , 146.98 206.57 , 147.22 206.81 , 147.47 207.05 , 147.71 207.28 , 147.96 207.52 , 148.21 207.75 , 148.45 207.98 , 148.70 208.22 , 148.94 208.45 , 149.19 208.67 , 149.43 208.90 , 149.68 209.12 , 149.93 209.34 , 150.17 209.55 , 150.42 209.76 , 150.66 209.97 , 150.91 210.17 , 151.16 210.36 , 151.40 210.55 , 151.65 210.74 , 151.89 210.92 , 152.14 211.10 , 152.38 211.27 , 152.63 211.44 , 152.88 211.60 , 153.12 211.76 , 153.37 211.92 , 153.61 212.08 , 153.86 212.23 , 154.10 212.38 , 154.35 212.52 , 154.60 212.67 , 154.84 212.81 , 155.09 212.95 , 155.33 213.09 , 155.58 213.22 , 155.82 213.36 , 156.07 213.49 , 156.32 213.62 , 156.56 213.75 , 156.81 213.88 , 157.05 214.00 , 157.30 214.13 , 157.54 214.25 , 157.79 214.37 , 158.04 214.49 , 158.28 214.60 , 158.53 214.72 , 158.77 214.83 , 159.02 214.95 , 159.26 215.06 , 159.51 215.17 , 159.76 215.28 , 160.00 215.38 , 160.25 215.49 , 160.49 215.60 , 160.74 215.70 , 160.98 215.81 , 161.23 215.91 , 161.48 216.01 , 161.72 216.11 , 161.97 216.21 , 162.21 216.31 , 162.46 216.40 , 162.70 216.50 , 162.95 216.59 , 163.20 216.68 , 163.44 216.77 , 163.69 216.85 , 163.93 216.94 , 164.18 217.02 , 164.42 217.10 , 164.67 217.18 , 164.92 217.25 , 165.16 217.32 , 165.41 217.39 , 165.65 217.46 , 165.90 217.52 , 166.14 217.57 , 166.39 217.63 , 166.64 217.68 , 166.88 217.72 , 167.13 217.75 , 167.37 217.79 , 167.62 217.81 , 167.86 217.83 , 168.11 217.84 , 168.36 217.85 , 168.60 217.85 , 168.85 217.84 , 169.09 217.83 , 169.34 217.81 , 169.58 217.78 , 169.83 217.75 , 170.08 217.72 , 170.32 217.68 , 170.57 217.64 , 170.81 217.59 , 171.06 217.55 , 171.30 217.50 , 171.55 217.45 , 171.80 217.41 , 172.04 217.36 , 172.29 217.31 , 172.53 217.27 , 172.78 217.23 , 173.02 217.19 , 173.27 217.16 , 173.52 217.12 , 173.76 217.09 , 174.01 217.07 , 174.25 217.04 , 174.50 217.02 , 174.74 217.00 , 174.99 216.98 , 175.24 216.97 , 175.48 216.95 , 175.73 216.94 , 175.97 216.93 , 176.22 216.92 , 176.46 216.91 , 176.71 216.90 , 176.96 216.89 , 177.20 216.89 , 177.45 216.88 , 177.69 216.88 , 177.94 216.88 , 178.18 216.88 , 178.43 216.88 , 178.68 216.89 , 178.92 216.90 , 179.17 216.91 , 179.41 216.93 , 179.66 216.96 , 179.90 217.00 , 180.15 217.05 , 180.40 217.11 , 180.64 217.18 , 180.89 217.26 , 181.13 217.36 , 181.38 217.48 , 181.62 217.62 , 181.87 217.78 , 182.12 217.95 , 182.36 218.15 , 182.61 218.37 , 182.85 218.61 , 183.10 218.87 , 183.35 219.16 , 183.59 219.46 , 183.84 219.79 , 184.08 220.13 , 184.33 220.49 , 184.57 220.87 , 184.82 221.26 , 185.07 221.67 , 185.31 222.08 , 185.56 222.50 , 185.80 222.93 , 186.05 223.36 , 186.29 223.79 , 186.54 224.22 , 186.79 224.64 , 187.03 225.05 , 187.28 225.45 , 187.52 225.85 , 187.77 226.23 , 188.01 226.59 , 188.26 226.94 , 188.51 227.27 , 188.75 227.58 , 189.00 227.88 , 189.24 230.46 , 189.24 " style="stroke-width:1;stroke:#A6CEE3;fill:#A6CEE3;stroke-opacity:1.000000;fill-opacity:0.000000" />
<polygon points="230.46 , 189.98 230.46 , 189.73 230.46 , 189.49 230.46 , 189.24 230.46 , 188.99 230.46 , 188.74 230.46 , 188.50 230.46 , 188.25 230.46 , 188.00 230.46 , 187.76 230.46 , 187.51 230.46 , 187.26 230.46 , 187.01 230.46 , 186.77 230.46 , 186.52 230.46 , 186.27 230.46 , 186.03 230.46 , 185.78 230.46 , 185.53 230.46 , 185.28 230.46 , 185.04 230.46 , 184.79 230.46 , 184.54 230.46 , 184.30 230.46 , 184.05 230.46 , 183.80 230.46 , 183.55 230.46 , 183.31 230.46 , 183.06 230.46 , 182.81 230.46 , 182.56 230.46 , 182.32 230.46 , 182.07 230.46 , 181.82 230.46 , 181.58 230.46 , 181.33 230.46 , 181.08 230.46 , 180.83 230.46 , 180.59 230.46 , 180.34 230.46 , 180.09 230.46 , 179.85 230.46 , 179.60 230.46 , 179.35 230.46 , 179.10 230.46 , 178.86 230.46 , 178.61 230.46 , 178.36 230.46 , 178.12 230.46 , 177.87 230.46 , 177.62 230.46 , 177.37 230.46 , 177.13 230.46 , 176.88 230.46 , 176.63 230.46 , 176.39 230.46 , 176.14 230.46 , 175.89 230.46 , 175.64 230.46 , 175.40 230.46 , 175.15 230.46 , 174.90 230.46 , 174.66 230.46 , 174.41 230.46 , 174.16 230.46 , 173.91 230.46 , 173.67 230.46 , 173.42 230.46 , 173.17 230.46 , 172.93 230.46 , 172.68 230.46 , 172.43 230.46 , 172.18 230.46 , 171.94 230.46 , 171.69 230.46 , 171.44 230.46 , 171.20 230.46 , 170.95 230.46 , 170.70 230.46 , 170.45 230.46 , 170.21 230.46 , 169.96 230.46 , 169.71 230.46 , 169.47 230.46 , 169.22 230.46 , 168.97 230.46 , 168.72 230.46 , 168.48 230.46 , 168.23 230.46 , 167.98 230.46 , 167.73 230.46 , 167.49 230.46 , 167.24 230.46 , 166.99 230.46 , 166.75 230.46 , 166.50 230.46 , 166.25 230.46 , 166.00 230.46 , 165.76 230.46 , 165.51 230.46 , 165.26 230.46 , 165.02 230.46 , 164.77 230.46 , 164.52 230.46 , 164.27 230.46 , 164.03 230.46 , 163.78 230.46 , 163.53 230.46 , 163.29 230.46 , 163.04 230.46 , 162.79 230.46 , 162.54 230.46 , 162.30 230.46 , 162.05 230.46 , 161.80 230.46 , 161.56 230.46 , 161.31 230.46 , 161.06 230.46 , 160.81 230.46 , 160.57 230.46 , 160.32 230.46 , 160.07 230.46 , 159.83 230.46 , 159.58 230.46 , 159.33 230.46 , 159.08 230.46 , 158.84 230.46 , 158.59 230.46 , 158.34 230.46 , 158.10 230.46 , 157.85 230.46 , 157.60 230.46 , 157.35 230.46 , 157.11 230.46 , 156.86 230.46 , 156.61 230.46 , 156.37 230.46 , 156.12 230.46 , 155.87 230.46 , 155.62 230.46 , 155.38 230.46 , 155.13 230.46 , 154.88 230.46 , 154.63 230.46 , 154.39 230.46 , 154.14 230.46 , 153.89 230.46 , 153.65 230.46 , 153.40 230.46 , 153.15 230.46 , 152.90 230.46 , 152.66 230.46 , 152.41 230.46 , 152.16 230.46 , 151.92 230.46 , 151.67 230.46 , 151.42 230.46 , 151.17 230.46 , 150.93 230.46 , 150.68 230.46 , 150.43 230.46 , 150.19 230.46 , 149.94 230.46 , 149.69 230.46 , 149.44 230.46 , 149.20 230.46 , 148.95 230.46 , 148.70 230.46 , 148.46 230.46 , 148.21 230.46 , 147.96 230.46 , 147.71 230.46 , 147.47 230.46 , 147.22 230.46 , 146.97 230.46 , 146.73 230.46 , 146.48 230.46 , 146.23 230.46 , 145.98 230.46 , 145.74 230.46 , 145.49 230.46 , 145.24 230.46 , 145.00 230.46 , 144.75 230.46 , 144.50 230.46 , 144.25 230.46 , 144.01 230.46 , 143.76 230.46 , 143.51 230.46 , 143.27 230.46 , 143.02 230.46 , 142.77 230.46 , 142.52 230.46 , 142.28 230.46 , 142.03 230.46 , 141.78 230.46 , 141.54 230.46 , 141.29 230.46 , 141.04 230.46 , 140.79 230.46 , 140.55 230.46 , 140.30 230.46 , 140.05 230.46 , 139.80 230.46 , 139.56 230.46 , 139.31 230.46 , 139.06 230.46 , 138.82 230.46 , 138.57 230.46 , 138.32 230.46 , 138.07 230.46 , 137.83 230.46 , 137.58 230.46 , 137.33 230.46 , 137.09 230.46 , 136.84 230.46 , 136.59 230.46 , 136.34 230.46 , 136.10 230.46 , 135.85 230.46 , 135.60 230.46 , 135.36 230.46 , 135.11 230.46 , 134.86 230.46 , 134.61 230.46 , 134.37 230.46 , 134.12 230.46 , 133.87 230.46 , 133.63 230.46 , 133.38 230.46 , 133.13 230.46 , 132.88 230.46 , 132.64 230.46 , 132.39 230.46 , 132.14 230.46 , 131.90 230.46 , 131.65 230.46 , 131.40 230.46 , 131.15 230.46 , 130.91 230.46 , 130.66 230.46 , 130.41 230.46 , 130.17 230.46 , 129.92 230.46 , 129.67 230.46 , 129.42 230.46 , 129.18 230.46 , 128.93 230.46 , 128.68 230.46 , 128.44 230.46 , 128.19 230.46 , 127.94 230.46 , 127.69 230.46 , 127.45 230.46 , 127.20 230.46 , 126.95 230.46 , 126.70 230.46 , 126.46 230.46 , 126.21 230.46 , 125.96 230.46 , 125.72 230.46 , 125.47 230.46 , 125.22 230.46 , 124.97 230.46 , 124.73 230.46 , 124.48 230.46 , 124.23 230.46 , 123.99 230.46 , 123.74 230.46 , 123.49 230.46 , 123.24 230.46 , 123.00 230.46 , 122.75 230.46 , 122.50 230.46 , 122.26 230.46 , 122.01 230.46 , 121.76 230.46 , 121.51 230.46 , 121.27 230.46 , 121.02 230.46 , 120.77 230.46 , 120.53 230.46 , 120.28 230.46 , 120.03 230.46 , 119.78 230.46 , 119.54 230.46 , 119.29 230.46 , 119.04 230.46 , 118.80 230.46 , 118.55 230.46 , 118.30 230.46 , 118.05 230.46 , 117.81 230.46 , 117.56 230.46 , 117.31 230.46 , 117.07 230.46 , 116.82 230.46 , 116.57 230.46 , 116.32 230.46 , 116.08 230.46 , 115.83 230.46 , 115.58 230.46 , 115.34 230.46 , 115.09 230.46 , 114.84 230.46 , 114.59 230.46 , 114.35 230.46 , 114.10 230.46 , 113.85 230.46 , 113.61 230.46 , 113.36 230.46 , 113.11 230.46 , 112.86 230.46 , 112.62 230.46 , 112.37 230.46 , 112.12 230.46 , 111.87 230.46 , 111.63 230.46 , 111.38 230.46 , 111.13 230.46 , 110.89 230.46 , 110.64 230.46 , 110.39 230.46 , 110.14 230.46 , 109.90 230.46 , 109.65 230.46 , 109.40 230.46 , 109.16 230.46 , 108.91 230.46 , 108.66 230.46 , 108.41 230.46 , 108.17 230.46 , 107.92 230.46 , 107.67 230.46 , 107.43 230.46 , 107.18 230.46 , 106.93 230.46 , 106.68 230.46 , 106.44 230.46 , 106.19 230.46 , 105.94 230.46 , 105.70 230.46 , 105.45 230.46 , 105.20 230.46 , 104.95 230.46 , 104.71 230.46 , 104.46 230.46 , 104.21 230.46 , 103.97 230.46 , 103.72 230.46 , 103.47 230.46 , 103.22 230.46 , 102.98 230.46 , 102.73 230.46 , 102.48 230.46 , 102.24 230.46 , 101.99 230.46 , 101.74 230.46 , 101.49 230.46 , 101.25 230.46 , 101.00 230.46 , 100.75 230.46 , 100.51 230.46 , 100.26 230.46 , 100.01 230.46 , 99.76 230.46 , 99.52 230.46 , 99.27 230.46 , 99.02 230.46 , 98.77 230.46 , 98.53 230.46 , 98.28 230.46 , 98.03 230.46 , 97.79 230.46 , 97.54 230.46 , 97.29 230.46 , 97.04 230.46 , 96.80 230.46 , 96.55 230.46 , 96.30 230.46 , 96.06 230.46 , 95.81 230.46 , 95.56 230.46 , 95.31 230.46 , 95.07 230.46 , 94.82 230.46 , 94.57 230.46 , 94.33 230.46 , 94.08 230.46 , 93.83 230.46 , 93.58 230.46 , 93.34 230.46 , 93.09 230.46 , 92.84 230.46 , 92.60 230.46 , 92.35 230.46 , 92.10 230.46 , 91.85 230.46 , 91.61 230.46 , 91.36 230.46 , 91.11 230.46 , 90.87 230.46 , 90.62 230.46 , 90.37 230.46 , 90.12 230.46 , 89.88 230.46 , 89.63 230.46 , 89.38 230.46 , 89.14 230.46 , 88.89 230.46 , 88.64 230.46 , 88.39 230.46 , 88.15 230.46 , 87.90 230.46 , 87.65 230.46 , 87.41 230.46 , 87.16 230.46 , 86.91 230.46 , 86.66 230.46 , 86.42 230.46 , 86.17 230.46 , 85.92 230.46 , 85.67 230.46 , 85.43 230.46 , 85.18 230.46 , 84.93 230.46 , 84.69 230.46 , 84.44 230.46 , 84.19 230.46 , 83.94 230.46 , 83.70 230.46 , 83.45 230.46 , 83.20 230.46 , 82.96 230.46 , 82.71 230.46 , 82.46 230.46 , 82.21 230.46 , 81.97 230.46 , 81.72 230.46 , 81.47 230.46 , 81.23 230.46 , 80.98 230.46 , 80.73 230.46 , 80.48 230.46 , 80.24 230.46 , 79.99 230.46 , 79.74 230.46 , 79.50 230.46 , 79.25 230.46 , 79.00 230.46 , 78.75 230.46 , 78.51 230.46 , 78.26 230.46 , 78.01 230.46 , 77.77 230.46 , 77.52 230.46 , 77.27 230.46 , 77.02 230.46 , 76.78 230.46 , 76.53 230.46 , 76.28 230.46 , 76.04 230.46 , 75.79 230.46 , 75.54 230.46 , 75.29 230.46 , 75.05 230.46 , 74.80 230.46 , 74.55 230.46 , 74.31 230.46 , 74.06 230.46 , 73.81 230.46 , 73.56 230.46 , 73.32 230.46 , 73.07 230.46 , 72.82 230.46 , 72.58 230.46 , 72.33 230.46 , 72.08 230.46 , 71.83 230.46 , 71.59 230.46 , 71.34 230.46 , 71.09 230.46 , 70.84 230.46 , 70.60 230.46 , 70.35 230.46 , 70.10 230.46 , 69.86 230.46 , 69.61 230.46 , 69.36 230.46 , 69.11 230.46 , 68.87 230.46 , 68.62 230.46 , 68.37 230.46 , 68.13 230.46 , 67.88 230.46 , 67.63 230.46 , 67.38 230.46 , 67.14 230.46 , 66.89 230.46 , 66.64 230.46 , 66.40 230.46 , 66.15 230.46 , 65.90 230.46 , 65.65 230.46 , 65.41 230.46 , 65.16 230.46 , 64.91 230.46 , 64.67 230.46 , 64.42 230.46 , 64.17 230.46 , 63.92 230.46 , 63.68 240.03 , 63.68 240.13 , 63.92 240.18 , 64.17 240.19 , 64.42 240.17 , 64.67 240.10 , 64.91 240.01 , 65.16 239.88 , 65.41 239.71 , 65.65 239.53 , 65.90 239.32 , 66.15 239.10 , 66.40 238.87 , 66.64 238.62 , 66.89 238.38 , 67.14 238.13 , 67.38 237.89 , 67.63 237.65 , 67.88 237.42 , 68.13 237.21 , 68.37 237.01 , 68.62 236.83 , 68.87 236.66 , 69.11 236.51 , 69.36 236.37 , 69.61 236.26 , 69.86 236.16 , 70.10 236.08 , 70.35 236.02 , 70.60 235.97 , 70.84 235.93 , 71.09 235.91 , 71.34 235.91 , 71.59 235.91 , 71.83 235.92 , 72.08 235.94 , 72.33 235.97 , 72.58 236.01 , 72.82 236.05 , 73.07 236.09 , 73.32 236.14 , 73.56 236.20 , 73.81 236.25 , 74.06 236.31 , 74.31 236.37 , 74.55 236.43 , 74.80 236.49 , 75.05 236.55 , 75.29 236.61 , 75.54 236.68 , 75.79 236.74 , 76.04 236.80 , 76.28 236.87 , 76.53 236.93 , 76.78 236.99 , 77.02 237.06 , 77.27 237.12 , 77.52 237.19 , 77.77 237.25 , 78.01 237.32 , 78.26 237.39 , 78.51 237.46 , 78.75 237.53 , 79.00 237.61 , 79.25 237.68 , 79.50 237.76 , 79.74 237.84 , 79.99 237.92 , 80.24 238.00 , 80.48 238.09 , 80.73 238.17 , 80.98 238.26 , 81.23 238.35 , 81.47 238.44 , 81.72 238.54 , 81.97 238.64 , 82.21 238.73 , 82.46 238.83 , 82.71 238.93 , 82.96 239.03 , 83.20 239.14 , 83.45 239.24 , 83.70 239.35 , 83.94 239.45 , 84.19 239.56 , 84.44 239.67 , 84.69 239.78 , 84.93 239.88 , 85.18 239.99 , 85.43 240.11 , 85.67 240.22 , 85.92 240.33 , 86.17 240.44 , 86.42 240.56 , 86.66 240.67 , 86.91 240.79 , 87.16 240.90 , 87.41 241.02 , 87.65 241.14 , 87.90 241.26 , 88.15 241.38 , 88.39 241.50 , 88.64 241.62 , 88.89 241.75 , 89.14 241.87 , 89.38 242.00 , 89.63 242.12 , 89.88 242.25 , 90.12 242.38 , 90.37 242.51 , 90.62 242.65 , 90.87 242.78 , 91.11 242.91 , 91.36 243.05 , 91.61 243.18 , 91.85 243.32 , 92.10 243.45 , 92.35 243.59 , 92.60 243.72 , 92.84 243.86 , 93.09 244.00 , 93.34 244.14 , 93.58 244.27 , 93.83 244.41 , 94.08 244.55 , 94.33 244.69 , 94.57 244.83 , 94.82 244.97 , 95.07 245.11 , 95.31 245.26 , 95.56 245.40 , 95.81 245.55 , 96.06 245.69 , 96.30 245.84 , 96.55 245.99 , 96.80 246.15 , 97.04 246.30 , 97.29 246.46 , 97.54 246.62 , 97.79 246.78 , 98.03 246.95 , 98.28 247.11 , 98.53 247.29 , 98.77 247.46 , 99.02 247.64 , 99.27 247.82 , 99.52 248.00 , 99.76 248.19 , 100.01 248.37 , 100.26 248.57 , 100.51 248.76 , 100.75 248.96 , 101.00 249.15 , 101.25 249.35 , 101.49 249.56 , 101.74 249.76 , 101.99 249.96 , 102.24 250.17 , 102.48 250.37 , 102.73 250.58 , 102.98 250.78 , 103.22 250.99 , 103.47 251.19 , 103.72 251.39 , 103.97 251.59 , 104.21 251.79 , 104.46 251.99 , 104.71 252.18 , 104.95 252.38 , 105.20 252.57 , 105.45 252.76 , 105.70 252.95 , 105.94 253.13 , 106.19 253.32 , 106.44 253.50 , 106.68 253.68 , 106.93 253.86 , 107.18 254.05 , 107.43 254.23 , 107.67 254.41 , 107.92 254.60 , 108.17 254.79 , 108.41 254.98 , 108.66 255.17 , 108.91 255.37 , 109.16 255.57 , 109.40 255.78 , 109.65 255.99 , 109.90 256.20 , 110.14 256.42 , 110.39 256.65 , 110.64 256.88 , 110.89 257.11 , 111.13 257.35 , 111.38 257.59 , 111.63 257.84 , 111.87 258.09 , 112.12 258.34 , 112.37 258.59 , 112.62 258.85 , 112.86 259.11 , 113.11 259.38 , 113.36 259.64 , 113.61 259.90 , 113.85 260.17 , 114.10 260.44 , 114.35 260.70 , 114.59 260.97 , 114.84 261.23 , 115.09 261.50 , 115.34 261.76 , 115.58 262.02 , 115.83 262.28 , 116.08 262.54 , 116.32 262.79 , 116.57 263.05 , 116.82 263.29 , 117.07 263.54 , 117.31 263.78 , 117.56 264.01 , 117.81 264.24 , 118.05 264.46 , 118.30 264.67 , 118.55 264.88 , 118.80 265.08 , 119.04 265.27 , 119.29 265.45 , 119.54 265.62 , 119.78 265.78 , 120.03 265.93 , 120.28 266.07 , 120.53 266.20 , 120.77 266.32 , 121.02 266.42 , 121.27 266.51 , 121.51 266.59 , 121.76 266.66 , 122.01 266.72 , 122.26 266.77 , 122.50 266.81 , 122.75 266.83 , 123.00 266.84 , 123.24 266.85 , 123.49 266.84 , 123.74 266.83 , 123.99 266.80 , 124.23 266.77 , 124.48 266.73 , 124.73 266.68 , 124.97 266.63 , 125.22 266.57 , 125.47 266.50 , 125.72 266.42 , 125.96 266.34 , 126.21 266.25 , 126.46 266.16 , 126.70 266.06 , 126.95 265.95 , 127.20 265.84 , 127.45 265.72 , 127.69 265.60 , 127.94 265.47 , 128.19 265.34 , 128.44 265.20 , 128.68 265.05 , 128.93 264.90 , 129.18 264.74 , 129.42 264.58 , 129.67 264.40 , 129.92 264.22 , 130.17 264.04 , 130.41 263.84 , 130.66 263.64 , 130.91 263.44 , 131.15 263.22 , 131.40 263.00 , 131.65 262.77 , 131.90 262.53 , 132.14 262.29 , 132.39 262.03 , 132.64 261.77 , 132.88 261.51 , 133.13 261.23 , 133.38 260.95 , 133.63 260.67 , 133.87 260.37 , 134.12 260.07 , 134.37 259.77 , 134.61 259.46 , 134.86 259.15 , 135.11 258.83 , 135.36 258.51 , 135.60 258.19 , 135.85 257.87 , 136.10 257.55 , 136.34 257.22 , 136.59 256.90 , 136.84 256.57 , 137.09 256.26 , 137.33 255.94 , 137.58 255.63 , 137.83 255.32 , 138.07 255.01 , 138.32 254.72 , 138.57 254.43 , 138.82 254.15 , 139.06 253.87 , 139.31 253.61 , 139.56 253.35 , 139.80 253.10 , 140.05 252.86 , 140.30 252.64 , 140.55 252.42 , 140.79 252.21 , 141.04 252.00 , 141.29 251.81 , 141.54 251.63 , 141.78 251.45 , 142.03 251.28 , 142.28 251.12 , 142.52 250.96 , 142.77 250.81 , 143.02 250.66 , 143.27 250.51 , 143.51 250.36 , 143.76 250.22 , 144.01 250.08 , 144.25 249.94 , 144.50 249.80 , 144.75 249.66 , 145.00 249.51 , 145.24 249.37 , 145.49 249.22 , 145.74 249.08 , 145.98 248.93 , 146.23 248.78 , 146.48 248.62 , 146.73 248.47 , 146.97 248.32 , 147.22 248.16 , 147.47 248.01 , 147.71 247.85 , 147.96 247.70 , 148.21 247.55 , 148.46 247.40 , 148.70 247.25 , 148.95 247.10 , 149.20 246.95 , 149.44 246.81 , 149.69 246.67 , 149.94 246.53 , 150.19 246.40 , 150.43 246.27 , 150.68 246.14 , 150.93 246.02 , 151.17 245.90 , 151.42 245.78 , 151.67 245.66 , 151.92 245.55 , 152.16 245.44 , 152.41 245.34 , 152.66 245.23 , 152.90 245.13 , 153.15 245.03 , 153.40 244.93 , 153.65 244.84 , 153.89 244.74 , 154.14 244.65 , 154.39 244.56 , 154.63 244.47 , 154.88 244.38 , 155.13 244.29 , 155.38 244.20 , 155.62 244.12 , 155.87 244.03 , 156.12 243.95 , 156.37 243.86 , 156.61 243.78 , 156.86 243.70 , 157.11 243.61 , 157.35 243.53 , 157.60 243.45 , 157.85 243.37 , 158.10 243.30 , 158.34 243.22 , 158.59 243.14 , 158.84 243.07 , 159.08 242.99 , 159.33 242.92 , 159.58 242.85 , 159.83 242.77 , 160.07 242.70 , 160.32 242.63 , 160.57 242.56 , 160.81 242.49 , 161.06 242.42 , 161.31 242.35 , 161.56 242.28 , 161.80 242.21 , 162.05 242.14 , 162.30 242.07 , 162.54 242.00 , 162.79 241.92 , 163.04 241.85 , 163.29 241.78 , 163.53 241.71 , 163.78 241.64 , 164.03 241.56 , 164.27 241.49 , 164.52 241.42 , 164.77 241.35 , 165.02 241.29 , 165.26 241.22 , 165.51 241.16 , 165.76 241.10 , 166.00 241.04 , 166.25 240.98 , 166.50 240.93 , 166.75 240.89 , 166.99 240.85 , 167.24 240.81 , 167.49 240.78 , 167.73 240.75 , 167.98 240.73 , 168.23 240.71 , 168.48 240.70 , 168.72 240.70 , 168.97 240.70 , 169.22 240.70 , 169.47 240.71 , 169.71 240.73 , 169.96 240.75 , 170.21 240.78 , 170.45 240.81 , 170.70 240.84 , 170.95 240.88 , 171.20 240.93 , 171.44 240.97 , 171.69 241.02 , 171.94 241.07 , 172.18 241.12 , 172.43 241.18 , 172.68 241.23 , 172.93 241.29 , 173.17 241.34 , 173.42 241.40 , 173.67 241.46 , 173.91 241.51 , 174.16 241.57 , 174.41 241.63 , 174.66 241.68 , 174.90 241.73 , 175.15 241.78 , 175.40 241.83 , 175.64 241.88 , 175.89 241.93 , 176.14 241.97 , 176.39 242.01 , 176.63 242.05 , 176.88 242.09 , 177.13 242.12 , 177.37 242.16 , 177.62 242.19 , 177.87 242.21 , 178.12 242.24 , 178.36 242.25 , 178.61 242.27 , 178.86 242.28 , 179.10 242.29 , 179.35 242.29 , 179.60 242.29 , 179.85 242.28 , 180.09 242.26 , 180.34 242.24 , 180.59 242.20 , 180.83 242.17 , 181.08 242.12 , 181.33 242.06 , 181.58 241.99 , 181.82 241.91 , 182.07 241.82 , 182.32 241.72 , 182.56 241.61 , 182.81 241.48 , 183.06 241.34 , 183.31 241.19 , 183.55 241.02 , 183.80 240.85 , 184.05 240.65 , 184.30 240.45 , 184.54 240.23 , 184.79 240.00 , 185.04 239.75 , 185.28 239.50 , 185.53 239.23 , 185.78 238.95 , 186.03 238.66 , 186.27 238.37 , 186.52 238.07 , 186.77 237.76 , 187.01 237.45 , 187.26 237.13 , 187.51 236.81 , 187.76 236.49 , 188.00 236.17 , 188.25 235.85 , 188.50 235.54 , 188.74 235.22 , 188.99 234.92 , 189.24 234.62 , 189.49 234.33 , 189.73 234.04 , 189.98 230.46 , 189.98 " style="stroke-width:1;stroke:#1F78B4;fill:#1F78B4;stroke-opacity:1.000000;fill-opacity:0.000000" />
<line x1="177.33" y1="127.32" x2="283.58" y2="127.32" style="stroke-width:1;stroke:#000000;fill:#000000;stroke-opacity:1.000000;fill-opacity:0.000000"/>
<polygon points="34.95 , 57.35 34.95 , 41.95 141.20 , 41.95 141.20 , 57.35 " style="stroke-width:1;stroke:#FFFFFF;fill:#D9D9D9;stroke-opacity:0.000000;fill-opacity:1.000000" />
<text transform="translate(83.57,52.95)"  style="font-size:9" >40</text>
<polygon points="177.33 , 57.35 177.33 , 41.95 283.58 , 41.95 283.58 , 57.35 " style="stroke-width:1;stroke:#FFFFFF;fill:#D9D9D9;stroke-opacity:0.000000;fill-opacity:1.000000" />
<text transform="translate(223.03,52.95)"  style="font-size:9" >150</text>
<text transform="translate(25.05,194.26)"  style="font-size:9" >0</text>
<text transform="translate(15.15,151.83)"  style="font-size:9" >100</text>
<text transform="translate(15.15,109.40)"  style="font-size:9" >200</text>
<text transform="translate(15.15,66.98)"  style="font-size:9" >300</text>
<polyline points="32.20 , 190.96 34.95 , 190.96 " style="stroke-width:1;stroke:#333333;fill:#000000;stroke-opacity:1.000000;fill-opacity:0.000000"/>
<polyline points="32.20 , 148.53 34.95 , 148.53 " style="stroke-width:1;stroke:#333333;fill:#000000;stroke-opacity:1.000000;fill-opacity:0.000000"/>
<polyline points="32.20 , 106.10 34.95 , 106.10 " style="stroke-width:1;stroke:#333333;fill:#000000;stroke-opacity:1.000000;fill-opacity:0.000000"/>
<polyline points="32.20 , 63.68 34.95 , 63.68 " style="stroke-width:1;stroke:#333333;fill:#000000;stroke-opacity:1.000000;fill-opacity:0.000000"/>
<text transform="translate(13.75,163.29) rotate(-90)"  style="font-size:11" >tail length (nt)</text>
<rect x="82.48" y="5.50" width="153.57" height="25.45" style="stroke-width:1;stroke:#FFFFFF;fill:#FFFFFF;stroke-opacity:0.000000;fill-opacity:1.000000" />
<text transform="translate(87.98,22.35)"  style="font-size:11" >Tool</text>
<rect x="114.59" y="11.00" width="14.45" height="14.45" style="stroke-width:1;stroke:#FFFFFF;fill:#F2F2F2;stroke-opacity:1.000000;fill-opacity:1.000000" />
<rect x="115.30" y="11.71" width="13.03" height="13.03" style="stroke-width:1;stroke:#A6CEE3;fill:#A6CEE3;stroke-opacity:1.000000;fill-opacity:0.000000" />
<rect x="181.45" y="11.00" width="14.45" height="14.45" style="stroke-width:1;stroke:#FFFFFF;fill:#F2F2F2;stroke-opacity:1.000000;fill-opacity:1.000000" />
<rect x="182.16" y="11.71" width="13.03" height="13.03" style="stroke-width:1;stroke:#1F78B4;fill:#1F78B4;stroke-opacity:1.000000;fill-opacity:0.000000" />
<text transform="translate(134.55,21.53)"  style="font-size:9" >Nanopolish</text>
<text transform="translate(201.40,21.53)"  style="font-size:9" >tailfindr</text>
<text transform="translate(6.58,211.31)"  style="font-size:9" >The black horizontal lines represent the expected poly(A) tail length.</text>
</svg>
